<?xml version="1.0" encoding="utf-8"?>
<!-- Generator: Adobe Illustrator 27.5.0, SVG Export Plug-In . SVG Version: 6.00 Build 0)  -->
<svg version="1.1" xmlns="http://www.w3.org/2000/svg" xmlns:xlink="http://www.w3.org/1999/xlink" x="0px" y="0px"
	 viewBox="0 0 500 500" style="enable-background:new 0 0 500 500;" xml:space="preserve">
<g id="Background_Complete">
	<rect x="416.779" y="398.494" style="fill:#EBEBEB;" width="33.122" height="0.25"/>
	<rect x="322.527" y="401.208" style="fill:#EBEBEB;" width="8.693" height="0.25"/>
	<rect x="396.586" y="389.208" style="fill:#EBEBEB;" width="19.192" height="0.25"/>
	<rect x="52.459" y="390.888" style="fill:#EBEBEB;" width="43.193" height="0.25"/>
	<rect x="104.556" y="390.888" style="fill:#EBEBEB;" width="6.333" height="0.25"/>
	<rect x="131.471" y="395.111" style="fill:#EBEBEB;" width="93.676" height="0.25"/>
	<g>
		<path style="fill:#EBEBEB;" d="M238.401,337.8H45.302c-3.147,0-5.708-2.561-5.708-5.708V60.66c0-3.147,2.561-5.708,5.708-5.708
			h193.099c3.146,0,5.707,2.561,5.707,5.708v271.432C244.108,335.239,241.547,337.8,238.401,337.8z M45.302,55.203
			c-3.01,0-5.458,2.448-5.458,5.458v271.432c0,3.01,2.448,5.458,5.458,5.458h193.099c3.009,0,5.457-2.448,5.457-5.458V60.66
			c0-3.009-2.448-5.458-5.457-5.458H45.302z"/>
		<path style="fill:#EBEBEB;" d="M454.698,337.8H261.599c-3.146,0-5.707-2.561-5.707-5.708V60.66c0-3.147,2.561-5.708,5.707-5.708
			h193.099c3.148,0,5.708,2.561,5.708,5.708v271.432C460.406,335.239,457.845,337.8,454.698,337.8z M261.599,55.203
			c-3.009,0-5.457,2.448-5.457,5.458v271.432c0,3.01,2.448,5.458,5.457,5.458h193.099c3.01,0,5.458-2.448,5.458-5.458V60.66
			c0-3.009-2.448-5.458-5.458-5.458H261.599z"/>
	</g>
	<rect y="382.398" style="fill:#EBEBEB;" width="500" height="0.25"/>
	<g>
		<rect x="96.953" y="124.276" style="fill:#F0F0F0;" width="72.656" height="92.073"/>
		<rect x="104.186" y="133.442" style="fill:#FAFAFA;" width="58.19" height="73.741"/>
		
			<rect x="91.333" y="124.276" transform="matrix(-1 -1.224647e-16 1.224647e-16 -1 188.2867 340.6253)" style="fill:#E0E0E0;" width="5.62" height="92.073"/>
		<path style="fill:#F5F5F5;" d="M141.748,171.448c6.503,6.503,6.503,17.047,0,23.55c-6.503,6.503-17.047,6.503-23.55,0
			C111.694,188.495,135.245,164.944,141.748,171.448z"/>
		<path style="fill:#EBEBEB;" d="M124.36,170.163c-5.117-5.117-5.117-13.413,0-18.531c5.117-5.117,13.413-5.117,18.531,0
			C148.008,156.749,129.477,175.28,124.36,170.163z"/>
	</g>
	<g>
		<rect x="381.847" y="253.719" style="fill:#F0F0F0;" width="8.63" height="129.28"/>
		<rect x="386.727" y="253.719" style="fill:#E6E6E6;" width="7.51" height="129.28"/>
		<rect x="294.837" y="253.719" style="fill:#F0F0F0;" width="8.63" height="129.28"/>
		<rect x="299.717" y="253.719" style="fill:#E6E6E6;" width="7.51" height="129.28"/>
		<rect x="414.567" y="253.719" style="fill:#F0F0F0;" width="8.63" height="129.28"/>
		<rect x="419.437" y="253.719" style="fill:#E6E6E6;" width="7.51" height="129.28"/>
		<rect x="327.557" y="253.719" style="fill:#F0F0F0;" width="8.63" height="129.28"/>
		<rect x="294.847" y="245.419" style="fill:#F0F0F0;" width="132.11" height="10.36"/>
		<rect x="294.847" y="245.419" style="fill:#E0E0E0;" width="37.59" height="10.36"/>
		<rect x="332.437" y="253.719" style="fill:#E6E6E6;" width="7.51" height="129.28"/>
	</g>
	<g>
		<rect x="67.302" y="246.076" style="fill:#E6E6E6;" width="55.263" height="136.923"/>
		<rect x="110.496" y="246.076" style="fill:#F5F5F5;" width="115.427" height="136.923"/>
		<path style="fill:#EBEBEB;" d="M220.43,376.201h-48.81V269.699c0-8.273,6.707-14.98,14.98-14.98h18.851
			c8.273,0,14.98,6.707,14.98,14.98V376.201z"/>
		<path style="fill:#EBEBEB;" d="M165.93,376.201h-48.81V269.699c0-8.273,6.707-14.98,14.98-14.98h18.851
			c8.273,0,14.98,6.707,14.98,14.98V376.201z"/>
		<path style="fill:#E0E0E0;" d="M161.538,314.538c0,2.842-2.168,5.146-4.843,5.146c-2.675,0-4.843-2.304-4.843-5.146
			c0-2.842,2.168-5.146,4.843-5.146C159.369,309.392,161.538,311.696,161.538,314.538z"/>
		<path style="fill:#E0E0E0;" d="M186.512,314.538c0,2.842-2.168,5.146-4.843,5.146c-2.675,0-4.843-2.304-4.843-5.146
			c0-2.842,2.168-5.146,4.843-5.146C184.343,309.392,186.512,311.696,186.512,314.538z"/>
	</g>
</g>
<g id="Background_Simple" style="display:none;">
	<g style="display:inline;">
		<path style="fill:#407BFF;" d="M157.557,185.746c28.987-2.44,55.426-19.347,76.785-41.741
			c93.899-115.978,266.069-17.31,155.59,126.435c-53.833,74.523-120.733,84.585-188.978,84.651
			C63.646,362.406,55.484,243.803,70.893,210.389C86.727,177.666,129.718,188.929,157.557,185.746z"/>
	</g>
	<path style="display:inline;opacity:0.9;fill:#FFFFFF;" d="M157.557,185.746c28.987-2.44,55.426-19.347,76.785-41.741
		c93.899-115.978,266.069-17.31,155.59,126.435c-53.833,74.523-120.733,84.585-188.978,84.651
		C63.646,362.406,55.484,243.803,70.893,210.389C86.727,177.666,129.718,188.929,157.557,185.746z"/>
</g>
<g id="Shadow">
	<ellipse id="_x3C_Path_x3E__359_" style="fill:#F5F5F5;" cx="250" cy="415.693" rx="193.889" ry="11.323"/>
</g>
<g id="Plant">
	<g>
		<g>
			<g>
				<g>
					<path style="fill:#407BFF;" d="M292.525,388.385c-0.095-14.304-4.348-23.081-7.9-27.926c-3.842-5.241-7.714-7.135-7.753-7.155
						l0.451-0.946c0.161,0.077,16.064,7.973,16.249,36.021L292.525,388.385z"/>
				</g>
				<g>
					<path style="fill:#407BFF;" d="M296.654,385.862l-1.044-0.092c4.1-46.439-26.959-62.755-27.273-62.914l0.474-0.935
						C269.131,322.083,300.816,338.724,296.654,385.862z"/>
				</g>
				<g>
					<path style="fill:#407BFF;" d="M300.163,387.588c-1.109-26.444,1.689-55.852,1.717-56.146l1.043,0.1
						c-0.029,0.293-2.82,29.631-1.714,56.002L300.163,387.588z"/>
				</g>
				<g>
					<path style="fill:#407BFF;" d="M302.226,389.128c1.814-11.279,6.24-17.69,9.632-21.083c3.671-3.669,6.957-4.694,6.99-4.705
						l-0.241-0.801c-0.136,0.041-13.65,4.34-17.207,26.457L302.226,389.128z"/>
				</g>
			</g>
			<g style="opacity:0.3;">
				<g>
					<path style="fill:#FFFFFF;" d="M292.525,388.385c-0.095-14.304-4.348-23.081-7.9-27.926c-3.842-5.241-7.714-7.135-7.753-7.155
						l0.451-0.946c0.161,0.077,16.064,7.973,16.249,36.021L292.525,388.385z"/>
				</g>
				<g>
					<path style="fill:#FFFFFF;" d="M296.654,385.862l-1.044-0.092c4.1-46.439-26.959-62.755-27.273-62.914l0.474-0.935
						C269.131,322.083,300.816,338.724,296.654,385.862z"/>
				</g>
				<g>
					<path style="fill:#FFFFFF;" d="M300.163,387.588c-1.109-26.444,1.689-55.852,1.717-56.146l1.043,0.1
						c-0.029,0.293-2.82,29.631-1.714,56.002L300.163,387.588z"/>
				</g>
				<g>
					<path style="fill:#FFFFFF;" d="M302.226,389.128c1.814-11.279,6.24-17.69,9.632-21.083c3.671-3.669,6.957-4.694,6.99-4.705
						l-0.241-0.801c-0.136,0.041-13.65,4.34-17.207,26.457L302.226,389.128z"/>
				</g>
			</g>
		</g>
		<g>
			<path style="fill:#407BFF;" d="M271.84,323.958c0,0-6.912-17.588-16.844-4.513c-8.059,10.608-0.023,22.223-0.023,22.223
				s43.228,1.095,35.494-15.412C285.707,316.097,271.84,323.958,271.84,323.958z"/>
			<g style="opacity:0.5;">
				<path style="fill:#FFFFFF;" d="M270.427,324.797c0,0-12.735-1.973-12.811-0.981c-0.076,0.992,11.17,1.45,10.123,2.848
					c-1.047,1.397-11.882,2.582-11.984,3.917c-0.102,1.335,10.14-1.909,9.687-0.735c-0.454,1.174-7.323,6.691-7.435,8.16
					c-0.112,1.469,6.442-6.222,7.22-5.356c0.779,0.865,1.185,7.835,1.845,6.229c0.66-1.605-0.145-8.621,1.437-9.992
					c1.582-1.371,10.849,7.397,12.954,6.215C283.568,333.919,271.175,328.96,270.427,324.797z"/>
				<path style="fill:#FFFFFF;" d="M277.095,325.5c0,0,10.599,0.14,10.918,2.985C288.332,331.33,286.01,328.332,277.095,325.5z"/>
			</g>
		</g>
		<path style="fill:#407BFF;" d="M275.598,387.509l4.926,26.736c0.518,2.812,2.97,4.853,5.829,4.853h19.147
			c2.859,0,5.311-2.041,5.829-4.853l4.926-26.736c0.39-2.117-1.235-4.068-3.387-4.068h-33.883
			C276.833,383.441,275.208,385.393,275.598,387.509z"/>
		<g>
			<path style="fill:#407BFF;" d="M272.606,354.841c0,0-11.872-10.072-13.986,3.289c-1.715,10.842,8.645,16.14,8.645,16.14
				s31.804-16.054,19.757-25.022C279.607,343.73,272.606,354.841,272.606,354.841z"/>
			<path style="opacity:0.2;" d="M272.606,354.841c0,0-11.872-10.072-13.986,3.289c-1.715,10.842,8.645,16.14,8.645,16.14
				s31.804-16.054,19.757-25.022C279.607,343.73,272.606,354.841,272.606,354.841z"/>
			<g style="opacity:0.5;">
				<path style="fill:#FFFFFF;" d="M271.907,356.001c0,0-10.013,3.531-9.681,4.281c0.332,0.75,8.673-3.301,8.458-1.879
					c-0.216,1.422-7.618,6.505-7.172,7.514c0.446,1.009,6.616-5.338,6.745-4.31c0.128,1.029-2.707,7.711-2.216,8.821
					c0.491,1.11,2.251-7.027,3.153-6.702c0.902,0.325,3.914,5.225,3.767,3.803c-0.147-1.423-3.466-6.201-2.852-7.813
					c0.614-1.612,10.758,1.141,11.825-0.538C285.001,357.501,274.072,358.732,271.907,356.001z"/>
				<path style="fill:#FFFFFF;" d="M277.021,353.912c0,0,7.748-4.029,9.089-2.089C287.45,353.764,284.596,352.493,277.021,353.912z"
					/>
			</g>
		</g>
		<g>
			<path style="fill:#407BFF;" d="M313.477,327.604c0,0,13.797-11.706,16.254,3.823c1.993,12.599-10.047,18.757-10.047,18.757
				s-36.961-18.657-22.96-29.079C305.34,314.691,313.477,327.604,313.477,327.604z"/>
			<path style="opacity:0.3;" d="M313.477,327.604c0,0,13.797-11.706,16.254,3.823c1.993,12.599-10.047,18.757-10.047,18.757
				s-36.961-18.657-22.96-29.079C305.34,314.691,313.477,327.604,313.477,327.604z"/>
			<g style="opacity:0.5;">
				<path style="fill:#FFFFFF;" d="M314.289,328.952c0,0,11.636,4.104,11.251,4.975c-0.385,0.871-10.08-3.836-9.829-2.184
					c0.251,1.653,8.854,7.56,8.335,8.733c-0.518,1.173-7.689-6.204-7.838-5.008c-0.149,1.196,3.146,8.962,2.576,10.251
					c-0.57,1.29-2.616-8.166-3.665-7.789c-1.049,0.377-4.548,6.072-4.378,4.419c0.17-1.653,4.028-7.207,3.314-9.08
					c-0.714-1.873-12.502,1.325-13.743-0.625C299.071,330.694,311.772,332.125,314.289,328.952z"/>
				<path style="fill:#FFFFFF;" d="M308.346,326.524c0,0-9.005-4.683-10.562-2.428C296.225,326.352,299.542,324.874,308.346,326.524
					z"/>
			</g>
		</g>
		<g>
			<path style="fill:#407BFF;" d="M321.57,362.967c0,0,9.305-9.536,12.18,1.677c2.333,9.099-6.067,14.446-6.067,14.446
				s-28.388-11.12-18.845-19.729C314.711,354.064,321.57,362.967,321.57,362.967z"/>
			<path style="opacity:0.4;" d="M321.57,362.967c0,0,9.305-9.536,12.18,1.677c2.333,9.099-6.067,14.446-6.067,14.446
				s-28.388-11.12-18.845-19.729C314.711,354.064,321.57,362.967,321.57,362.967z"/>
			<g style="opacity:0.5;">
				<path style="fill:#FFFFFF;" d="M322.259,363.899c0,0,8.815,2.203,8.592,2.869c-0.222,0.665-7.655-2.115-7.357-0.92
					c0.298,1.194,7.014,4.93,6.715,5.825c-0.299,0.896-6.066-4.016-6.093-3.129c-0.026,0.887,2.927,6.352,2.598,7.337
					c-0.329,0.985-2.483-5.806-3.226-5.457c-0.743,0.349-2.914,4.766-2.904,3.543c0.01-1.224,2.454-5.562,1.801-6.886
					c-0.653-1.324-9.074,1.837-10.118,0.493C311.224,366.23,320.633,366.399,322.259,363.899z"/>
				<path style="fill:#FFFFFF;" d="M317.734,362.531c0,0-6.925-2.81-7.911-1.049C308.836,363.243,311.166,361.931,317.734,362.531z"
					/>
			</g>
		</g>
	</g>
</g>
<g id="Charts">
	<g>
		<path style="fill:#263238;" d="M381.473,260.38h-71.309c-3.52,0-6.124-2.854-5.816-6.374l3.843-43.921
			c0.308-3.52,3.411-6.374,6.931-6.374h71.309c3.52,0,6.124,2.854,5.816,6.374l-3.843,43.921
			C388.096,257.526,384.993,260.38,381.473,260.38z"/>
		<g>
			<g>
				<path style="fill:#407BFF;" d="M339.449,228.504c-0.562,6.422-6.223,11.628-12.645,11.628c-6.422,0-11.172-5.206-10.61-11.628
					c0.562-6.422,6.223-11.628,12.645-11.628l0.52-5.945c-9.705,0-18.261,7.867-19.11,17.572
					c-0.849,9.705,6.33,17.572,16.035,17.572c9.705,0,18.261-7.867,19.11-17.572H339.449z"/>
				<path style="fill:#407BFF;" d="M347.478,225.927c0.849-9.705-6.33-17.572-16.035-17.572l-0.52,5.945
					c6.422,0,11.172,5.206,10.61,11.628H347.478z"/>
				<path style="opacity:0.7;fill:#FFFFFF;" d="M347.478,225.927c0.849-9.705-6.33-17.572-16.035-17.572l-0.52,5.945
					c6.422,0,11.172,5.206,10.61,11.628H347.478z"/>
			</g>
			<g>
				<path style="fill:#407BFF;" d="M332.917,228.505c-0.256,2.923-2.832,5.292-5.755,5.292c-2.923,0-5.085-2.369-4.829-5.292
					c0.256-2.923,2.832-5.292,5.755-5.292l0.237-2.706c-4.417,0-8.311,3.581-8.697,7.998c-0.386,4.417,2.881,7.997,7.298,7.997
					s8.311-3.581,8.697-7.997H332.917z"/>
				<path style="opacity:0.7;fill:#FFFFFF;" d="M332.917,228.505c-0.256,2.923-2.832,5.292-5.755,5.292
					c-2.923,0-5.085-2.369-4.829-5.292c0.256-2.923,2.832-5.292,5.755-5.292l0.237-2.706c-4.417,0-8.311,3.581-8.697,7.998
					c-0.386,4.417,2.881,7.997,7.298,7.997s8.311-3.581,8.697-7.997H332.917z"/>
				<path style="fill:#407BFF;" d="M336.571,227.332c0.387-4.417-2.881-7.997-7.298-7.997l-0.237,2.706
					c2.923,0,5.085,2.369,4.829,5.292H336.571z"/>
			</g>
			<path style="fill:#407BFF;" d="M370.851,210.932l-0.52,5.945c6.422,0,11.172,5.206,10.61,11.628
				c-0.562,6.422-6.223,11.628-12.645,11.628c-6.422,0-11.172-5.206-10.61-11.628c0.281-3.211,1.837-6.118,4.125-8.222l-3.836-4.204
				c-3.458,3.18-5.809,7.573-6.234,12.425c-0.849,9.705,6.33,17.572,16.035,17.572c9.705,0,18.261-7.867,19.11-17.572
				C387.735,218.799,380.556,210.932,370.851,210.932z"/>
			<path style="opacity:0.7;fill:#FFFFFF;" d="M370.851,210.932l-0.52,5.945c6.422,0,11.172,5.206,10.61,11.628
				c-0.562,6.422-6.223,11.628-12.645,11.628c-6.422,0-11.172-5.206-10.61-11.628c0.281-3.211,1.837-6.118,4.125-8.222l-3.836-4.204
				c-3.458,3.18-5.809,7.573-6.234,12.425c-0.849,9.705,6.33,17.572,16.035,17.572c9.705,0,18.261-7.867,19.11-17.572
				C387.735,218.799,380.556,210.932,370.851,210.932z"/>
			<g>
				<path style="fill:#407BFF;" d="M356.831,212.822l3.836,4.204c2.288-2.104,5.309-3.406,8.52-3.406l0,0l0.52-5.945l0,0
					C364.854,207.676,360.289,209.642,356.831,212.822z"/>
				<path style="opacity:0.3;" d="M356.831,212.822l3.836,4.204c2.288-2.104,5.309-3.406,8.52-3.406l0,0l0.52-5.945l0,0
					C364.854,207.676,360.289,209.642,356.831,212.822z"/>
			</g>
			<g>
				<path style="fill:#407BFF;" d="M370.061,219.96l-0.248,2.841c3.068,0,5.338,2.488,5.07,5.556
					c-0.268,3.068-2.974,5.556-6.042,5.556c-3.069,0-5.338-2.488-5.07-5.556c0.134-1.534,0.878-2.923,1.971-3.929l-1.833-2.009
					c-1.652,1.52-2.776,3.619-2.979,5.937c-0.406,4.637,3.025,8.397,7.662,8.397c4.637,0,8.725-3.759,9.131-8.397
					S374.698,219.96,370.061,219.96z"/>
				<path style="fill:#407BFF;" d="M363.362,220.864l1.833,2.009c1.093-1.005,2.537-1.627,4.071-1.627l0,0l0.249-2.841l0,0
					C367.196,218.404,365.014,219.344,363.362,220.864z"/>
				<path style="opacity:0.3;" d="M363.362,220.864l1.833,2.009c1.093-1.005,2.537-1.627,4.071-1.627l0,0l0.249-2.841l0,0
					C367.196,218.404,365.014,219.344,363.362,220.864z"/>
			</g>
		</g>
		<g>
			<path style="fill:#FFFFFF;" d="M318.178,253.774L318.178,253.774c-1.035,0-1.801-0.839-1.71-1.874l0,0
				c0.091-1.035,1.003-1.874,2.038-1.874l0,0c1.035,0,1.801,0.839,1.71,1.874l0,0C320.126,252.935,319.213,253.774,318.178,253.774z
				"/>
			<path style="fill:#FFFFFF;" d="M337.357,252.853h-13.982c-0.526,0-0.916-0.427-0.87-0.953l0,0
				c0.046-0.527,0.51-0.953,1.037-0.953h13.982c0.526,0,0.916,0.427,0.87,0.953l0,0
				C338.347,252.426,337.883,252.853,337.357,252.853z"/>
			<path style="fill:#FFFFFF;" d="M333.514,256.602h-10.467c-0.526,0-0.916-0.427-0.87-0.953l0,0
				c0.046-0.526,0.51-0.953,1.037-0.953h10.467c0.526,0,0.916,0.427,0.87,0.953l0,0
				C334.505,256.175,334.041,256.602,333.514,256.602z"/>
		</g>
		<g>
			<path style="fill:#FFFFFF;" d="M358.717,253.774L358.717,253.774c-1.035,0-1.801-0.839-1.71-1.874l0,0
				c0.091-1.035,1.003-1.874,2.038-1.874l0,0c1.035,0,1.801,0.839,1.71,1.874l0,0C360.665,252.935,359.752,253.774,358.717,253.774z
				"/>
			<path style="fill:#FFFFFF;" d="M377.896,252.853h-13.982c-0.527,0-0.916-0.427-0.87-0.953l0,0
				c0.046-0.527,0.51-0.953,1.037-0.953h13.982c0.526,0,0.916,0.427,0.87,0.953l0,0
				C378.887,252.426,378.422,252.853,377.896,252.853z"/>
			<path style="fill:#FFFFFF;" d="M374.053,256.602h-10.467c-0.526,0-0.916-0.427-0.87-0.953l0,0
				c0.046-0.526,0.51-0.953,1.037-0.953h10.467c0.526,0,0.916,0.427,0.87,0.953l0,0C375.044,256.175,374.58,256.602,374.053,256.602
				z"/>
		</g>
	</g>
</g>
<g id="Graphic_2">
	<g>
		<g>
			<path style="fill:#407BFF;" d="M289.415,284.333H182.577c-3.52,0-6.124-2.854-5.816-6.374l5.938-67.874
				c0.308-3.52,3.411-6.374,6.931-6.374h106.838c3.52,0,6.124,2.854,5.816,6.374l-5.938,67.874
				C296.038,281.479,292.935,284.333,289.415,284.333z"/>
			<path style="opacity:0.7;fill:#FFFFFF;" d="M289.415,284.333H182.577c-3.52,0-6.124-2.854-5.816-6.374l5.938-67.874
				c0.308-3.52,3.411-6.374,6.931-6.374h106.838c3.52,0,6.124,2.854,5.816,6.374l-5.938,67.874
				C296.038,281.479,292.935,284.333,289.415,284.333z"/>
		</g>
		<g>
			<g>
				<polygon style="fill:#407BFF;" points="187.044,264.04 184.331,264.04 187.96,222.562 190.673,222.562 				"/>
				<polygon style="fill:#263238;" points="190.886,264.04 188.174,264.04 190.843,233.532 193.555,233.532 				"/>
				<polygon style="fill:#407BFF;" points="196.989,264.04 194.277,264.04 196.021,244.102 198.734,244.102 				"/>
				<polygon style="fill:#263238;" points="200.832,264.04 198.12,264.04 200.2,240.258 202.913,240.258 				"/>
				<polygon style="fill:#407BFF;" points="206.935,264.04 204.223,264.04 207.324,228.598 210.036,228.598 				"/>
				<polygon style="fill:#263238;" points="210.778,264.04 208.065,264.04 210.734,233.532 213.447,233.532 				"/>
				<polygon style="fill:#407BFF;" points="216.881,264.04 214.169,264.04 216.838,233.532 219.55,233.532 				"/>
				<polygon style="fill:#263238;" points="220.724,264.04 218.011,264.04 221.353,225.845 224.065,225.845 				"/>
				<polygon style="fill:#407BFF;" points="226.827,264.04 224.114,264.04 225.929,243.301 228.641,243.301 				"/>
				<polygon style="fill:#263238;" points="230.669,264.04 227.957,264.04 230.626,233.532 233.339,233.532 				"/>
				<polygon style="fill:#407BFF;" points="236.773,264.04 234.06,264.04 237.161,228.598 239.873,228.598 				"/>
				<polygon style="fill:#263238;" points="240.615,264.04 237.903,264.04 241.665,221.04 244.377,221.04 				"/>
				<polygon style="fill:#407BFF;" points="246.718,264.04 244.006,264.04 244.993,252.749 247.706,252.749 				"/>
				<polygon style="fill:#263238;" points="250.561,264.04 247.848,264.04 249.677,243.141 252.389,243.141 				"/>
				<polygon style="fill:#407BFF;" points="256.664,264.04 253.952,264.04 255.696,244.102 258.408,244.102 				"/>
				<polygon style="fill:#263238;" points="260.507,264.04 257.794,264.04 261.22,224.884 263.932,224.884 				"/>
				<polygon style="fill:#407BFF;" points="266.61,264.04 263.897,264.04 266.146,238.336 268.858,238.336 				"/>
				<polygon style="fill:#263238;" points="270.452,264.04 267.74,264.04 272.09,214.314 274.803,214.314 				"/>
				<polygon style="fill:#407BFF;" points="276.556,264.04 273.843,264.04 276.764,230.649 279.477,230.649 				"/>
				<polygon style="fill:#263238;" points="280.398,264.04 277.686,264.04 280.355,233.532 283.067,233.532 				"/>
				<polygon style="fill:#407BFF;" points="286.501,264.04 283.789,264.04 287.467,222.001 290.179,222.001 				"/>
				<polygon style="fill:#263238;" points="290.344,264.04 287.632,264.04 289.796,239.297 292.509,239.297 				"/>
			</g>
			<g>
				<path style="fill:#263238;" d="M186.007,275.363L186.007,275.363c-1.473,0-2.562-1.194-2.433-2.667l0,0
					c0.129-1.473,1.427-2.667,2.9-2.667l0,0c1.473,0,2.562,1.194,2.433,2.667l0,0C188.778,274.17,187.48,275.363,186.007,275.363z"
					/>
				<path style="fill:#263238;" d="M213.292,274.053h-19.892c-0.749,0-1.303-0.607-1.238-1.356l0,0
					c0.066-0.749,0.726-1.356,1.475-1.356h19.891c0.749,0,1.303,0.607,1.238,1.356l0,0
					C214.702,273.446,214.041,274.053,213.292,274.053z"/>
				<path style="fill:#263238;" d="M207.826,279.386h-14.892c-0.749,0-1.303-0.607-1.238-1.356l0,0
					c0.066-0.749,0.726-1.356,1.475-1.356h14.891c0.749,0,1.303,0.607,1.238,1.356l0,0
					C209.235,278.779,208.575,279.386,207.826,279.386z"/>
				<path style="opacity:0.3;fill:#FFFFFF;" d="M213.292,274.053h-19.892c-0.749,0-1.303-0.607-1.238-1.356l0,0
					c0.066-0.749,0.726-1.356,1.475-1.356h19.891c0.749,0,1.303,0.607,1.238,1.356l0,0
					C214.702,273.446,214.041,274.053,213.292,274.053z"/>
				<path style="opacity:0.3;fill:#FFFFFF;" d="M207.826,279.386h-14.892c-0.749,0-1.303-0.607-1.238-1.356l0,0
					c0.066-0.749,0.726-1.356,1.475-1.356h14.891c0.749,0,1.303,0.607,1.238,1.356l0,0
					C209.235,278.779,208.575,279.386,207.826,279.386z"/>
			</g>
			<g>
				<path style="fill:#407BFF;" d="M225.338,275.363L225.338,275.363c-1.473,0-2.562-1.194-2.433-2.667l0,0
					c0.129-1.473,1.427-2.667,2.9-2.667l0,0c1.473,0,2.562,1.194,2.433,2.667l0,0C228.109,274.17,226.811,275.363,225.338,275.363z"
					/>
				<path style="opacity:0.3;" d="M225.338,275.363L225.338,275.363c-1.473,0-2.562-1.194-2.433-2.667l0,0
					c0.129-1.473,1.427-2.667,2.9-2.667l0,0c1.473,0,2.562,1.194,2.433,2.667l0,0C228.109,274.17,226.811,275.363,225.338,275.363z"
					/>
				<path style="fill:#263238;" d="M252.623,274.053h-19.891c-0.749,0-1.303-0.607-1.238-1.356l0,0
					c0.066-0.749,0.726-1.356,1.475-1.356h19.892c0.749,0,1.303,0.607,1.238,1.356l0,0
					C254.033,273.446,253.372,274.053,252.623,274.053z"/>
				<path style="fill:#263238;" d="M247.157,279.386h-14.892c-0.749,0-1.303-0.607-1.238-1.356l0,0
					c0.066-0.749,0.726-1.356,1.475-1.356h14.892c0.749,0,1.303,0.607,1.238,1.356l0,0
					C248.566,278.779,247.906,279.386,247.157,279.386z"/>
				<path style="opacity:0.3;fill:#FFFFFF;" d="M252.623,274.053h-19.891c-0.749,0-1.303-0.607-1.238-1.356l0,0
					c0.066-0.749,0.726-1.356,1.475-1.356h19.892c0.749,0,1.303,0.607,1.238,1.356l0,0
					C254.033,273.446,253.372,274.053,252.623,274.053z"/>
				<path style="opacity:0.3;fill:#FFFFFF;" d="M247.157,279.386h-14.892c-0.749,0-1.303-0.607-1.238-1.356l0,0
					c0.066-0.749,0.726-1.356,1.475-1.356h14.892c0.749,0,1.303,0.607,1.238,1.356l0,0
					C248.566,278.779,247.906,279.386,247.157,279.386z"/>
			</g>
			<g>
				<path style="fill:#407BFF;" d="M264.669,275.363L264.669,275.363c-1.473,0-2.562-1.194-2.433-2.667l0,0
					c0.129-1.473,1.427-2.667,2.9-2.667l0,0c1.473,0,2.562,1.194,2.433,2.667h0C267.44,274.17,266.142,275.363,264.669,275.363z"/>
				<path style="fill:#263238;" d="M291.954,274.053h-19.892c-0.749,0-1.303-0.607-1.238-1.356l0,0
					c0.066-0.749,0.726-1.356,1.475-1.356h19.892c0.749,0,1.303,0.607,1.237,1.356l0,0
					C293.364,273.446,292.703,274.053,291.954,274.053z"/>
				<path style="fill:#263238;" d="M286.488,279.386h-14.892c-0.749,0-1.303-0.607-1.238-1.356l0,0
					c0.066-0.749,0.726-1.356,1.475-1.356h14.892c0.749,0,1.303,0.607,1.237,1.356l0,0
					C287.897,278.779,287.237,279.386,286.488,279.386z"/>
				<path style="opacity:0.3;fill:#FFFFFF;" d="M291.954,274.053h-19.892c-0.749,0-1.303-0.607-1.238-1.356l0,0
					c0.066-0.749,0.726-1.356,1.475-1.356h19.892c0.749,0,1.303,0.607,1.237,1.356l0,0
					C293.364,273.446,292.703,274.053,291.954,274.053z"/>
				<path style="opacity:0.3;fill:#FFFFFF;" d="M286.488,279.386h-14.892c-0.749,0-1.303-0.607-1.238-1.356l0,0
					c0.066-0.749,0.726-1.356,1.475-1.356h14.892c0.749,0,1.303,0.607,1.237,1.356l0,0
					C287.897,278.779,287.237,279.386,286.488,279.386z"/>
			</g>
		</g>
	</g>
</g>
<g id="Information">
	<g>
		<path style="fill:#407BFF;" d="M397.756,197.331h-62.117c-3.52,0-6.124-2.854-5.816-6.374l3.301-37.724
			c0.308-3.52,3.411-6.374,6.931-6.374h62.117c3.52,0,6.124,2.854,5.816,6.374l-3.301,37.724
			C404.379,194.477,401.276,197.331,397.756,197.331z"/>
		<path style="fill:#407BFF;" d="M362.489,169.665c-0.556,6.351-6.155,11.5-12.506,11.5c-6.351,0-11.049-5.149-10.494-11.5
			c0.556-6.351,6.155-11.5,12.506-11.5C358.347,158.165,363.045,163.314,362.489,169.665z"/>
		<path style="opacity:0.7;fill:#FFFFFF;" d="M362.489,169.665c-0.556,6.351-6.155,11.5-12.506,11.5
			c-6.351,0-11.049-5.149-10.494-11.5c0.556-6.351,6.155-11.5,12.506-11.5C358.347,158.165,363.045,163.314,362.489,169.665z"/>
		<path style="fill:#263238;" d="M354.47,167.631c-0.22,2.519-1.183,4.561-3.702,4.561c-2.519,0-3.124-2.042-2.904-4.561
			c0.22-2.519,1.183-4.561,3.702-4.561C354.086,163.069,354.691,165.111,354.47,167.631z"/>
		<path style="fill:#263238;" d="M350.645,173.605c-5.276,0-8.136,1.174-9.485,2.897c1.848,2.824,5.037,4.663,8.824,4.663
			c3.787,0,7.297-1.839,9.64-4.663C358.575,174.779,355.921,173.605,350.645,173.605z"/>
		<path style="fill:#FFFFFF;" d="M389.582,156.832h-18.667c-0.874,0-1.521-0.709-1.445-1.583l0,0
			c0.076-0.874,0.847-1.583,1.722-1.583h18.667c0.874,0,1.521,0.709,1.445,1.583l0,0
			C391.227,156.123,390.456,156.832,389.582,156.832z"/>
		<path style="fill:#FFFFFF;" d="M394.561,168.499h-24.667c-0.874,0-1.521-0.709-1.445-1.583l0,0
			c0.077-0.874,0.847-1.583,1.722-1.583h24.667c0.874,0,1.521,0.709,1.445,1.583l0,0
			C396.206,167.79,395.435,168.499,394.561,168.499z"/>
		<path style="fill:#FFFFFF;" d="M399.051,174.332h-29.667c-0.875,0-1.521-0.709-1.445-1.583l0,0
			c0.076-0.874,0.847-1.583,1.722-1.583h29.667c0.875,0,1.521,0.709,1.445,1.583l0,0
			C400.696,173.623,399.925,174.332,399.051,174.332z"/>
		<path style="fill:#FFFFFF;" d="M396.54,180.165h-27.667c-0.874,0-1.521-0.709-1.445-1.583l0,0
			c0.077-0.874,0.847-1.583,1.722-1.583h27.667c0.874,0,1.521,0.709,1.445,1.583l0,0
			C398.186,179.457,397.415,180.165,396.54,180.165z"/>
		<path style="fill:#FFFFFF;" d="M393.03,185.999h-24.667c-0.875,0-1.521-0.709-1.445-1.583l0,0
			c0.077-0.874,0.847-1.583,1.722-1.583h24.667c0.874,0,1.521,0.709,1.445,1.583l0,0C394.675,185.29,393.904,185.999,393.03,185.999
			z"/>
		<path style="fill:#FFFFFF;" d="M395.52,191.832h-27.667c-0.874,0-1.521-0.709-1.445-1.583l0,0
			c0.076-0.874,0.847-1.583,1.722-1.583h27.667c0.874,0,1.521,0.709,1.445,1.583l0,0
			C397.165,191.123,396.394,191.832,395.52,191.832z"/>
	</g>
</g>
<g id="Graphic_1">
	<g>
		<g>
			<path style="fill:#407BFF;" d="M316.985,197.331H210.146c-3.52,0-6.124-2.854-5.816-6.374l5.938-67.874
				c0.308-3.52,3.411-6.374,6.931-6.374h106.838c3.52,0,6.124,2.854,5.816,6.374l-5.938,67.874
				C323.608,194.477,320.505,197.331,316.985,197.331z"/>
			<path style="opacity:0.7;fill:#FFFFFF;" d="M316.985,197.331H210.146c-3.52,0-6.124-2.854-5.816-6.374l5.938-67.874
				c0.308-3.52,3.411-6.374,6.931-6.374h106.838c3.52,0,6.124,2.854,5.816,6.374l-5.938,67.874
				C323.608,194.477,320.505,197.331,316.985,197.331z"/>
		</g>
		<path style="fill:#407BFF;" d="M327.612,148.717c-2.075-7.467-5.34-14.947-10.101-14.947c-8.986,0-13.373,14.077-18.017,28.98
			c-4.08,13.096-8.3,26.637-14.884,26.637c-8.352,0-10.639-16.75-12.852-32.949c-2.479-18.15-4.822-35.293-15.575-35.293
			c-10.754,0-16.096,17.143-21.751,35.293c-5.047,16.199-10.266,32.949-18.617,32.949c-3.906,0-7.538-11.533-9.44-21.799
			l-0.877,10.02c2.077,7.411,5.329,14.779,10.054,14.779c10.753,0,16.095-17.143,21.75-35.293
			c5.047-16.199,10.266-32.949,18.618-32.949c8.351,0,10.64,16.75,12.852,32.949c2.479,18.15,4.822,35.293,15.575,35.293
			c8.987,0,13.373-14.077,18.017-28.981c4.08-13.096,8.299-26.637,14.884-26.637c3.935,0,7.592,11.706,9.482,22.028L327.612,148.717
			z"/>
		<g>
			<path style="fill:#263238;" d="M260.911,122.144c-0.209,2.387-2.313,4.323-4.701,4.323c-2.387,0-4.153-1.935-3.944-4.323
				c0.209-2.387,2.313-4.323,4.701-4.323S261.12,119.757,260.911,122.144z"/>
			
				<ellipse transform="matrix(0.7223 -0.6916 0.6916 0.7223 -13.2181 211.3707)" style="fill:#407BFF;" cx="256.588" cy="122.144" rx="2.244" ry="2.056"/>
			<path style="fill:#407BFF;" d="M265.68,103.85h-14.981c-1.593,0-2.997,1.291-3.137,2.884l-0.239,2.731
				c-0.139,1.593,1.039,2.884,2.632,2.884h4.953l1.491,2.25c0.376,0.567,1.226,0.567,1.7,0l1.885-2.25h4.952
				c1.593,0,2.997-1.291,3.137-2.884l0.239-2.731C268.451,105.141,267.272,103.85,265.68,103.85z"/>
			<g>
				<path style="fill:#263238;" d="M264.509,107.475h-13.625c-0.414,0-0.721-0.336-0.684-0.75l0,0
					c0.036-0.414,0.401-0.75,0.816-0.75h13.625c0.414,0,0.721,0.336,0.684,0.75l0,0
					C265.288,107.139,264.923,107.475,264.509,107.475z"/>
				<path style="fill:#263238;" d="M256.884,110.187h-6.238c-0.414,0-0.721-0.336-0.684-0.75l0,0c0.036-0.414,0.401-0.75,0.816-0.75
					h6.238c0.414,0,0.721,0.336,0.684,0.75l0,0C257.664,109.851,257.299,110.187,256.884,110.187z"/>
			</g>
		</g>
		<g>
			<path style="fill:#263238;" d="M288.287,188.981c-0.209,2.387-2.313,4.323-4.701,4.323s-4.153-1.935-3.944-4.323
				c0.209-2.387,2.313-4.323,4.701-4.323S288.496,186.594,288.287,188.981z"/>
			<path style="fill:#407BFF;" d="M286.113,188.981c-0.104,1.186-1.15,2.148-2.336,2.148c-1.186,0-2.064-0.962-1.96-2.148
				c0.104-1.187,1.15-2.148,2.336-2.148S286.217,187.794,286.113,188.981z"/>
			<path style="fill:#263238;" d="M293.056,170.686h-14.982c-1.593,0-2.997,1.291-3.137,2.884l-0.239,2.731
				c-0.139,1.593,1.039,2.884,2.632,2.884h4.953l1.491,2.25c0.376,0.567,1.226,0.567,1.7,0l1.885-2.25h4.952
				c1.593,0,2.997-1.291,3.137-2.884l0.239-2.731C295.828,171.978,294.649,170.686,293.056,170.686z"/>
			<g>
				<path style="fill:#FFFFFF;" d="M291.886,174.311h-13.625c-0.414,0-0.721-0.336-0.684-0.75l0,0
					c0.036-0.414,0.401-0.75,0.816-0.75h13.625c0.414,0,0.721,0.336,0.684,0.75l0,0C292.665,173.975,292.3,174.311,291.886,174.311z
					"/>
				<path style="fill:#FFFFFF;" d="M284.261,177.024h-6.238c-0.414,0-0.721-0.336-0.684-0.75l0,0c0.036-0.414,0.401-0.75,0.816-0.75
					h6.238c0.414,0,0.721,0.336,0.684,0.75l0,0C285.04,176.688,284.675,177.024,284.261,177.024z"/>
			</g>
		</g>
		<g>
			<path style="fill:#263238;" d="M321.759,135.004c-0.209,2.387-2.313,4.323-4.701,4.323s-4.153-1.935-3.944-4.323
				c0.209-2.387,2.313-4.323,4.701-4.323C320.202,130.682,321.968,132.617,321.759,135.004z"/>
			<path style="fill:#407BFF;" d="M319.585,135.004c-0.104,1.186-1.15,2.148-2.336,2.148c-1.187,0-2.064-0.962-1.96-2.148
				c0.104-1.186,1.15-2.148,2.336-2.148C318.811,132.856,319.688,133.818,319.585,135.004z"/>
			<path style="fill:#407BFF;" d="M326.528,116.71h-14.981c-1.593,0-2.997,1.291-3.137,2.884l-0.239,2.731
				c-0.139,1.593,1.039,2.884,2.632,2.884h4.953l1.491,2.25c0.375,0.567,1.226,0.567,1.7,0l1.885-2.25h4.952
				c1.593,0,2.997-1.291,3.137-2.884l0.239-2.731C329.299,118.001,328.121,116.71,326.528,116.71z"/>
			<g>
				<path style="fill:#263238;" d="M325.357,120.335h-13.625c-0.414,0-0.721-0.336-0.684-0.75l0,0
					c0.036-0.414,0.401-0.75,0.816-0.75h13.625c0.414,0,0.721,0.336,0.684,0.75l0,0
					C326.137,119.999,325.771,120.335,325.357,120.335z"/>
				<path style="fill:#263238;" d="M317.733,123.047h-6.238c-0.414,0-0.721-0.336-0.684-0.75l0,0c0.036-0.414,0.401-0.75,0.816-0.75
					h6.238c0.414,0,0.721,0.336,0.684,0.75l0,0C318.512,122.711,318.147,123.047,317.733,123.047z"/>
			</g>
		</g>
		<g>
			<path style="fill:#263238;" d="M221.244,189.475c-0.209,2.387-2.313,4.323-4.701,4.323s-4.153-1.935-3.945-4.323
				c0.209-2.387,2.314-4.323,4.701-4.323S221.453,187.088,221.244,189.475z"/>
			<path style="fill:#407BFF;" d="M219.07,189.475c-0.104,1.186-1.15,2.148-2.336,2.148c-1.187,0-2.064-0.962-1.96-2.148
				c0.104-1.186,1.15-2.148,2.336-2.148C218.296,187.327,219.174,188.289,219.07,189.475z"/>
			<path style="fill:#263238;" d="M226.013,171.18h-14.981c-1.593,0-2.997,1.291-3.137,2.884l-0.239,2.731
				c-0.139,1.593,1.039,2.884,2.632,2.884h4.953l1.491,2.25c0.376,0.567,1.226,0.567,1.7,0l1.885-2.25h4.952
				c1.593,0,2.997-1.291,3.137-2.884l0.239-2.731C228.784,172.472,227.606,171.18,226.013,171.18z"/>
			<g>
				<path style="fill:#FFFFFF;" d="M224.842,174.805h-13.625c-0.414,0-0.721-0.336-0.684-0.75l0,0
					c0.036-0.414,0.401-0.75,0.816-0.75h13.625c0.414,0,0.721,0.336,0.684,0.75l0,0C225.622,174.47,225.257,174.805,224.842,174.805
					z"/>
				<path style="fill:#FFFFFF;" d="M217.218,177.518h-6.238c-0.414,0-0.721-0.336-0.684-0.75l0,0c0.036-0.414,0.401-0.75,0.816-0.75
					h6.238c0.414,0,0.721,0.336,0.684,0.75l0,0C217.997,177.182,217.632,177.518,217.218,177.518z"/>
			</g>
		</g>
	</g>
</g>
<g id="Character">
	<g>
		<path style="fill:#FFC3BD;" d="M148.442,172.469l-2.884,5.026l-2.826,5.133c-1.861,3.429-3.639,6.886-5.262,10.36
			c-0.808,1.742-1.577,3.476-2.278,5.219l-0.13,0.315c-0.011,0.025-0.025,0.05-0.042,0.075c-0.045,0.051-0.061,0.095-0.085,0.138
			c-0.055,0.088-0.089,0.173-0.136,0.287c-0.075,0.225-0.046,0.61,0.12,1.121c0.318,1.038,1.257,2.391,2.409,3.651
			c1.129,1.268,2.59,2.564,3.904,3.701l-2.343,4.993c-1.191-0.34-2.182-0.683-3.232-1.142c-1.039-0.438-2.046-0.968-3.053-1.566
			c-1.987-1.227-3.983-2.744-5.636-5.227c-0.804-1.243-1.492-2.781-1.763-4.562c-0.123-0.887-0.167-1.814-0.053-2.718
			c0.05-0.454,0.117-0.906,0.229-1.333l0.163-0.65l0.124-0.395c0.643-2.044,1.309-4.068,2.089-6.019
			c1.52-3.925,3.232-7.718,5.101-11.41c0.933-1.847,1.9-3.672,2.92-5.469c1.025-1.812,2.023-3.561,3.196-5.387L148.442,172.469z"/>
		<path style="fill:#FFC3BD;" d="M138.722,206.931l5.255-1.366l0.301,8.483c0,0-4.11,0.611-6.627-1.904L138.722,206.931z"/>
		<polygon style="fill:#FFC3BD;" points="151.422,204.135 150.237,211.582 144.278,214.048 143.977,205.565 		"/>
		<path style="fill:#263238;" d="M173.156,132.492c0.118,0.581,0.521,0.989,0.901,0.912c0.38-0.077,0.592-0.61,0.474-1.191
			c-0.118-0.581-0.521-0.989-0.901-0.912C173.251,131.378,173.038,131.912,173.156,132.492z"/>
		<path style="fill:#ED847E;" d="M173.625,133.492c0,0,2.001,3.081,3.783,4.402c-0.832,1.168-2.668,1.085-2.668,1.085
			L173.625,133.492z"/>
		<path style="fill:#263238;" d="M170.375,129.7c-0.085,0-0.17-0.031-0.236-0.092c-0.141-0.13-0.15-0.351-0.019-0.492
			c1.307-1.414,2.892-1.163,2.96-1.151c0.19,0.032,0.317,0.212,0.285,0.401c-0.033,0.189-0.214,0.316-0.4,0.285l0,0
			c-0.052-0.008-1.292-0.19-2.335,0.938C170.562,129.662,170.469,129.7,170.375,129.7z"/>
		<path style="fill:#FFC3BD;" d="M156.615,140.66c1.054,5.374,2.105,15.222-1.655,18.808c0,0,1.469,5.452,11.456,5.452
			c10.981,0,5.248-5.451,5.248-5.451c-5.993-1.431-5.838-5.878-4.795-10.053L156.615,140.66z"/>
		<path style="fill:#263238;" d="M152.794,160.464c-0.803-1.493-1.687-3.202,0.142-3.737c2.012-0.589,14.936-1.681,18.733-0.576
			c-1.167,2.075,0.808,4.625,0.808,4.625L152.794,160.464z"/>
		<path style="fill:#407BFF;" d="M120.261,411.016c0.737,0.16,1.474,0.201,1.829-0.1c0.149-0.127,0.299-0.37,0.168-0.808
			c-0.068-0.23-0.219-0.403-0.448-0.512c-0.992-0.474-3.272,0.455-3.369,0.495c-0.063,0.026-0.105,0.087-0.107,0.156
			c-0.002,0.069,0.036,0.132,0.098,0.162C118.782,410.577,119.521,410.856,120.261,411.016z M121.457,409.842
			c0.075,0.016,0.144,0.039,0.204,0.068c0.138,0.066,0.225,0.163,0.265,0.297c0.093,0.313-0.023,0.412-0.061,0.444
			c-0.395,0.336-1.862,0.026-2.895-0.387C119.67,410.017,120.804,409.701,121.457,409.842z"/>
		<path style="fill:#407BFF;" d="M118.472,410.422c0.028,0.006,0.057,0.005,0.086-0.003c0.83-0.243,2.607-1.505,2.629-2.338
			c0.004-0.151-0.049-0.425-0.445-0.563c-0.257-0.09-0.516-0.068-0.771,0.062c-0.982,0.501-1.602,2.536-1.628,2.622
			c-0.018,0.061-0.002,0.128,0.043,0.173C118.41,410.399,118.44,410.415,118.472,410.422z M120.551,407.825
			c0.025,0.005,0.051,0.013,0.076,0.022c0.215,0.075,0.212,0.18,0.211,0.225c-0.012,0.492-1.185,1.483-2.045,1.884
			c0.215-0.587,0.706-1.745,1.335-2.066C120.272,407.816,120.411,407.794,120.551,407.825z"/>
		<path style="fill:#407BFF;" d="M174.5,412.249c0.943,0,1.854-0.13,2.159-0.553c0.107-0.148,0.191-0.401-0.015-0.76
			c-0.115-0.202-0.301-0.339-0.551-0.407c-1.223-0.332-3.79,1.131-3.899,1.193c-0.063,0.036-0.097,0.107-0.085,0.179
			c0.012,0.072,0.067,0.128,0.138,0.143C172.715,412.136,173.622,412.249,174.5,412.249z M175.665,410.824
			c0.123,0,0.236,0.012,0.336,0.04c0.161,0.044,0.272,0.123,0.341,0.243c0.123,0.216,0.078,0.323,0.034,0.385
			c-0.342,0.475-2.199,0.486-3.564,0.293C173.493,411.435,174.807,410.824,175.665,410.824z"/>
		<path style="fill:#407BFF;" d="M172.281,412.046c0.024,0,0.048-0.005,0.071-0.015c0.887-0.398,2.643-1.987,2.509-2.817
			c-0.032-0.195-0.17-0.438-0.648-0.486c-0.357-0.036-0.68,0.065-0.965,0.298c-0.934,0.768-1.132,2.746-1.141,2.83
			c-0.006,0.061,0.021,0.122,0.072,0.158C172.21,412.035,172.245,412.046,172.281,412.046z M174.073,409.068
			c0.034,0,0.069,0.002,0.104,0.005c0.313,0.032,0.333,0.155,0.339,0.196c0.081,0.499-1.113,1.747-2.018,2.291
			c0.094-0.578,0.356-1.762,0.97-2.265C173.654,409.142,173.853,409.068,174.073,409.068z"/>
		<polygon style="fill:#FFC3BD;" points="164.203,411.872 171.549,411.872 172.281,394.859 164.934,394.859 		"/>
		<polygon style="fill:#FFC3BD;" points="110.283,408.471 117.463,410.025 124.672,394.179 117.492,392.625 		"/>
		<path style="fill:#263238;" d="M118.153,409.304l-8.066-1.746c-0.294-0.064-0.592,0.085-0.717,0.358l-2.8,6.075
			c-0.29,0.63,0.094,1.369,0.775,1.504c2.827,0.561,4.23,0.692,7.778,1.46c2.182,0.473,7.109,1.673,10.123,2.325
			c2.948,0.638,4.053-2.242,2.877-2.779c-5.27-2.408-7.472-4.528-8.898-6.503C118.966,409.642,118.582,409.397,118.153,409.304z"/>
		<path style="fill:#263238;" d="M171.501,411.021h-8.023c-0.3,0-0.56,0.209-0.626,0.502l-1.451,6.53
			c-0.15,0.677,0.364,1.319,1.057,1.307c2.894-0.049,7.076-0.219,10.713-0.219c4.253,0,7.926,0.232,12.914,0.232
			c3.016,0,3.853-3.049,2.59-3.325c-5.747-1.257-10.439-1.392-15.406-4.454C172.731,411.261,172.135,411.021,171.501,411.021z"/>
		<path style="fill:#407BFF;" d="M141.807,161.128c-6.885,1.578-12.562,19.156-12.562,19.156l13.827,10.539
			c0,0,5.075-4.785,7.333-13.577C152.771,168.033,148.847,159.514,141.807,161.128z"/>
		<path style="opacity:0.2;" d="M147.708,174.055c-3.74,3.7-4.96,10.44-5.25,16.3l0.61,0.47c0,0,5.08-4.79,7.34-13.58
			c0.14-0.55,0.26-1.1,0.36-1.64L147.708,174.055z"/>
		<path style="fill:#263238;" d="M182.963,161.507c0,0,5.639,5.523,3.51,34.869c-0.563,7.763-3.53,17.193-5.075,28.628
			c-11.839,0-28.532,0-34.293,0c-0.271-6.032,0.519-35.456-5.298-63.876c0,0,6.735-1.352,13.154-1.661
			c5.021-0.242,12.29-0.402,16.703,0.001C177.483,159.999,182.963,161.507,182.963,161.507z"/>
		<path style="opacity:0.6;" d="M186.937,186.082c-0.646-4.264-1.333-7.986-2.031-11.198l-0.215-0.132l-10.765,4.512
			c0.519,6.682,7.597,13.441,12.518,17.381c0.007-0.088,0.022-0.182,0.028-0.269C186.751,192.551,186.894,189.139,186.937,186.082z"
			/>
		<g>
			<polygon style="opacity:0.2;" points="172.279,394.864 171.903,403.633 164.554,403.633 164.93,394.864 			"/>
			<polygon style="opacity:0.2;" points="117.488,392.629 124.671,394.184 120.952,402.351 113.769,400.796 			"/>
		</g>
		<path style="fill:#FFC3BD;" d="M153.539,135.198c1.887,7.042,2.634,11.26,6.98,14.188c6.537,4.405,14.676-0.65,14.931-8.115
			c0.229-6.719-2.896-17.107-10.453-18.526C157.551,121.348,151.651,128.156,153.539,135.198z"/>
		<path style="fill:#263238;" d="M169.46,225.004c0,0-8.337,56.142-12.914,77.175c-5.012,23.033-31.888,99.236-31.888,99.236
			l-13.151-2.847c0,0,18.793-62.101,23-94.301c1.874-14.346,2.14-38.715,4.552-56.654c1.747-12.99,8.046-22.609,8.046-22.609H169.46
			z"/>
		<path style="fill:#407BFF;" d="M127.807,397.026c0.056,0.012-2.451,4.756-2.451,4.756l-14.796-3.203l1.247-4.448L127.807,397.026z
			"/>
		<path style="opacity:0.6;" d="M164.191,245.008c-9.64,1.89-8.62,37.84-7.46,56.33c2.78-13.07,6.85-38.22,9.63-56.07
			C165.721,244.948,165.001,244.848,164.191,245.008z"/>
		<path style="fill:#263238;" d="M181.398,225.004c0,0,3.012,54.927,2.213,77.33c-0.831,23.302-8.97,99.601-8.97,99.601h-12.445
			c0,0-0.457-74.937-1.01-97.822c-0.604-24.949-3.616-79.108-3.616-79.108H181.398z"/>
		<path style="fill:#407BFF;" d="M177.036,396.978c0.057,0-0.702,5.167-0.702,5.167h-15.138l-0.409-4.611L177.036,396.978z"/>
		<path style="fill:#FFC3BD;" d="M186.587,168.208c1.128,1.759,2.416,3.734,3.702,5.56c1.311,1.842,2.62,3.682,4,5.451
			c2.733,3.542,5.631,6.945,8.752,9.769c0.773,0.715,1.564,1.377,2.363,1.988l0.6,0.452c-0.054-0.032-0.245-0.096-0.352-0.12
			c-0.261-0.05-0.388-0.005-0.318,0.031c0.152,0.078,0.882-0.048,1.646-0.379c0.775-0.329,1.656-0.775,2.529-1.313
			c3.516-2.18,7.149-5.225,10.563-8.185l4.291,3.466c-2.662,4.288-5.592,8.168-9.617,11.733c-1.023,0.879-2.118,1.752-3.438,2.529
			c-1.326,0.764-2.833,1.548-5.045,1.873c-1.105,0.144-2.442,0.116-3.824-0.324c-0.675-0.199-1.386-0.556-1.943-0.898l-0.867-0.549
			c-1.145-0.741-2.234-1.522-3.268-2.337c-4.135-3.276-7.587-6.97-10.771-10.812c-1.567-1.939-3.087-3.9-4.494-5.936
			c-1.425-2.058-2.764-4.026-4.089-6.318L186.587,168.208z"/>
		<path style="fill:#407BFF;" d="M172.156,172.619c-2.35,9.849,15.471,19.494,15.471,19.494l11.575-13.562
			c0,0-5.27-7.986-11.826-14.278C179.279,156.501,173.945,165.121,172.156,172.619z"/>
		<path style="fill:#FFC3BD;" d="M218.907,183.51l2.732-8.773l7.19,3.583c0,0-1.048,6.401-6.281,7.511L218.907,183.51z"/>
		<polygon style="fill:#FFC3BD;" points="224.522,172.305 231.007,174.09 228.828,178.32 221.639,174.738 		"/>
		<path style="fill:#263238;" d="M160.954,145.583c0,0,6.018-1,7.592-7.667c0,0-1.572-4.214,1.481-7.083
			c3.053-2.869,1.528-6.02-1.481-6.593c-3.009-0.573-7.592,3.035-7.592,3.035l-3.667,6.559l1.493,6.619L160.954,145.583z"/>
		<path style="opacity:0.3;fill:#FFFFFF;" d="M160.954,145.583c0,0,6.018-1,7.592-7.667c0,0-1.572-4.214,1.481-7.083
			c3.053-2.869,1.528-6.02-1.481-6.593c-3.009-0.573-7.592,3.035-7.592,3.035l-3.667,6.559l1.493,6.619L160.954,145.583z"/>
		<path style="fill:#FFC3BD;" d="M165.521,135.493c0.479,1.849,1.694,3.438,2.965,4.384c1.912,1.422,3.34,0.022,3.204-2.141
			c-0.122-1.947-1.264-5.034-3.373-5.611C166.238,131.556,164.973,133.379,165.521,135.493z"/>
		<path style="fill:#263238;" d="M161.984,143.619c-1.791-4.269-5.091-15.323,6.562-19.379c0,0-0.843-10.657,4.824-6.323
			c0,0-5.416-6.917-6.166,0.167c0,0-1.333-2.417,0.667-4c0,0-10.667-3.583-10.417,4.5c0,0-1.083-2.791,0.75-5.02
			c0,0-2.32-0.146-3.243,3.52c-0.923,3.667-9.924,2.912-9.132,11.248c0,0-7.958,10.055,11.209,18.654c0,0-2.523,1.556-1.083,4.043
			c0,0,0.667-2.725,3.417-4.043c0,0-1.25,2.849,1.417,3.682c0,0-0.963-2.469,0.795-4.386
			C162.234,145.569,162.357,144.51,161.984,143.619z"/>
		<path style="opacity:0.1;" d="M168.87,148c-2.543,0.116-2.39,2.602-2.353,2.976c2.193-0.196,4.255-1.178,5.844-2.722
			C171.441,148.434,170.458,147.928,168.87,148z"/>
		<path style="fill:#263238;" d="M167.579,123.167c0,0,1.309-4.823,3.78-3.87c2.47,0.953,0.719,4.87,2.011,6.703
			c0,0-1.855-0.647-2.219-2.928c-0.364-2.28-2.605,1.168-2.605,1.168L167.579,123.167z"/>
		<g>
			<polygon style="fill:#407BFF;" points="168.546,142.511 170.928,139.781 170.018,138.98 167.074,138.98 166.164,139.781 			"/>
			<polygon style="opacity:0.2;fill:#FFFFFF;" points="168.219,138.98 167.073,138.98 166.163,139.781 168.546,142.511 
				167.309,139.781 			"/>
		</g>
	</g>
</g>
</svg>
