<?xml version="1.0" encoding="UTF-8"?>
<!DOCTYPE svg PUBLIC "-//W3C//DTD SVG 1.1//EN" "http://www.w3.org/Graphics/SVG/1.1/DTD/svg11.dtd">
<!-- Creator: CorelDRAW -->
<svg xmlns="http://www.w3.org/2000/svg" xml:space="preserve" width="6.82666in" height="6.82666in" style="shape-rendering:geometricPrecision; text-rendering:geometricPrecision; image-rendering:optimizeQuality; fill-rule:evenodd; clip-rule:evenodd"
viewBox="0 0 6.82666 6.82666"
 xmlns:xlink="http://www.w3.org/1999/xlink">
 <defs>
  <style type="text/css">
   <![CDATA[
    .fil2 {fill:none}
    .fil1 {fill:#212121}
    .fil0 {fill:#212121;fill-rule:nonzero}
   ]]>
  </style>
 </defs>
 <g id="Layer_x0020_1">
  <metadata id="CorelCorpID_0Corel-Layer"/>
  <path class="fil0" d="M1.39 5.74667l0 -4.66667c0,-0.0627402 0.0227913,-0.120622 0.0595,-0.163327 0.0406535,-0.0473071 0.0978701,-0.0766732 0.161768,-0.0766732l2.54414 0c0.0638937,0 0.121102,0.029374 0.161764,0.0766772 0.0367047,0.0427087 0.0595039,0.100594 0.0595039,0.163323l0 1.37333 -0.213339 0 0 -1.37333c0,-0.0105827 -0.00300394,-0.0193701 -0.00783465,-0.0249921 -0.00088189,-0.00102756 0.000799213,-0.00166929 -9.44882e-005,-0.00166929l-2.54414 0c-0.000885827,0 0.000783465,0.000641732 -9.84252e-005,0.00166535 -0.00482677,0.00561811 -0.00783071,0.0144094 -0.00783071,0.0249961l0 4.66667c0,0.0105945 0.003,0.0193819 0.00782677,0.025 0.000877953,0.00102362 -0.000779528,0.00166142 0.000102362,0.00166142l2.54414 0c0.000889764,0 -0.000787402,-0.000641732 9.44882e-005,-0.00166535 0.00483465,-0.00562205 0.00783465,-0.0144134 0.00783465,-0.0249961l0 -1.37333 0.213339 0 0 1.37333c0,0.0627244 -0.0227913,0.120618 -0.0595039,0.163327 -0.0406457,0.0472953 -0.0978504,0.0766732 -0.161764,0.0766732l-2.54414 0c-0.0639094,0 -0.121114,-0.0293661 -0.161772,-0.0766693 -0.0367126,-0.0427087 -0.0594961,-0.100598 -0.0594961,-0.163331z"/>
  <path class="fil0" d="M3.19667 2.55999l2.03334 0c0.0565591,0 0.108193,0.0232953 0.145831,0.0608346l0.000208661 -0.000208661c0.0374094,0.0374094 0.060626,0.0890945 0.060626,0.146039l0 1.29334c0,0.0569449 -0.0232165,0.10863 -0.060626,0.146039 -0.0374094,0.0374094 -0.0890945,0.060626 -0.146039,0.060626l-2.03334 0c-0.0569449,0 -0.10863,-0.0232165 -0.146039,-0.060626l0.000208661 -0.000208661c-0.0375394,-0.0376378 -0.0608346,-0.0892717 -0.0608346,-0.145831l0 -1.29334c0,-0.0564528 0.0232126,-0.107996 0.0606299,-0.145618l-3.93701e-006 -3.93701e-006 0.000208661 -0.000208661 0.000208661 -0.000208661 3.93701e-006 3.93701e-006c0.037626,-0.0374213 0.0891654,-0.0606299 0.145618,-0.0606299zm2.02667 0.213339l-2.01999 0 0 1.28 2.01999 0 0 -1.28z"/>
  <polygon class="fil0" points="2.56333,1.17332 3.20333,1.17332 3.20333,1.38666 2.56333,1.38666 "/>
  <circle class="fil1" cx="2.88333" cy="5.54463" r="0.159998"/>
  <polygon class="fil0" points="1.55,5.11999 4.21667,5.11999 4.21667,5.33333 1.55,5.33333 "/>
  <polygon class="fil0" points="5.39457,2.75874 4.26625,3.41018 4.21333,3.44073 4.16042,3.41018 3.0321,2.75874 3.13793,2.57458 4.21333,3.19546 5.28874,2.57458 "/>
 </g>
 <rect class="fil2" width="6.82666" height="6.82666"/>
</svg>
