<?xml version="1.0" encoding="utf-8"?>
<!-- Generator: Adobe Illustrator 27.5.0, SVG Export Plug-In . SVG Version: 6.00 Build 0)  -->
<svg version="1.1" id="Слой_1" xmlns="http://www.w3.org/2000/svg" xmlns:xlink="http://www.w3.org/1999/xlink" x="0px" y="0px"
	 viewBox="0 0 3008.932 2000" style="enable-background:new 0 0 3008.932 2000;" xml:space="preserve">
<g>
	<rect style="fill:#FAFAFA;" width="3008.932" height="2000"/>
	<g>
		<g>
			<rect x="1448.146" y="1030.256" style="fill:#E0E0E0;" width="5.534" height="580.664"/>
		</g>
		<g>
			<rect x="1841.669" y="1030.256" style="fill:#E0E0E0;" width="5.533" height="580.664"/>
		</g>
		<g>
			<rect x="2235.19" y="1030.256" style="fill:#E0E0E0;" width="5.535" height="580.664"/>
		</g>
		<rect x="1057.392" y="958.704" style="fill:#D9D9D9;" width="94.256" height="15.135"/>
		<rect x="1057.392" y="986.682" style="fill:#D9D9D9;" width="133.701" height="15.136"/>
		<rect x="1446.672" y="958.704" style="fill:#D9D9D9;" width="110.661" height="15.135"/>
		<rect x="1446.672" y="986.682" style="fill:#D9D9D9;" width="70.758" height="15.136"/>
		<rect x="1847.202" y="958.704" style="fill:#D9D9D9;" width="68.574" height="15.135"/>
		<rect x="1847.202" y="986.682" style="fill:#D9D9D9;" width="79.926" height="15.136"/>
		<rect x="2240.726" y="958.704" style="fill:#D9D9D9;" width="99.886" height="15.135"/>
		<rect x="2240.726" y="986.682" style="fill:#D9D9D9;" width="79.926" height="15.136"/>
		<rect x="1450.914" y="1645.318" style="fill:#B8B8B8;" width="62.608" height="20.182"/>
		<rect x="1847.202" y="1645.318" style="fill:#B8B8B8;" width="62.609" height="20.182"/>
		<rect x="2240.726" y="1645.318" style="fill:#B8B8B8;" width="62.608" height="20.182"/>
		<g style="opacity:0.43;">
			<linearGradient id="SVGID_1_" gradientUnits="userSpaceOnUse" x1="1057.3916" y1="1309.5963" x2="2631.4805" y2="1309.5963">
				<stop  offset="0" style="stop-color:#FFC05C"/>
				<stop  offset="1" style="stop-color:#FF3857"/>
			</linearGradient>
			<path style="fill:url(#SVGID_1_);" d="M2495.107,1438.393c-122.743,0.009-229.44-53.063-340.673-108.375
				c-137.325-68.287-279.322-138.896-468.514-119.563c-120.81,12.346-196.641,61.546-263.544,104.953
				c-60.576,39.303-117.848,73.867-195.414,76.818c-125.356,4.77-168.845-48.695-169.571-51.957v-34.311l0,0l0,0
				c0.157,0.594,27.525,60.602,169.438,59.891c69.888-0.353,121.467-33.818,181.192-72.568
				c69.406-45.031,148.073-96.072,275.218-109.066c196.777-20.111,342.255,52.229,482.939,122.186
				c147.209,73.201,287.68,141.849,465.302,82.291v28.209C2580.851,1433.877,2540.355,1438.391,2495.107,1438.393z"/>
		</g>
		<g style="opacity:0.22;">
			
				<linearGradient id="SVGID_00000072252798326999758600000018383746161442424706_" gradientUnits="userSpaceOnUse" x1="1057.3916" y1="1267.002" x2="2632.3115" y2="1267.002">
				<stop  offset="0" style="stop-color:#40D5E6"/>
				<stop  offset="1" style="stop-color:#5577FF"/>
			</linearGradient>
			<path style="fill:url(#SVGID_00000072252798326999758600000018383746161442424706_);" d="M1758.351,1431.818
				c-90.601,0.008-162.457-60.93-232.807-120.574c-53.341-45.223-108.683-91.463-172.563-114.271
				c-194.958-69.605-294.698,57.496-295.59,58.615v-38.664c1.053-1.322,18.846-24.426,70.317-46.482
				c46.861-20.082,125.487-36.102,233.938,1.619c68.708,23.898,125.771,72.278,180.955,119.064
				c111.942,94.909,208.62,176.874,376.516,48.486c127.165-97.24,247.038-189.904,364.985-223.758
				c115.362-33.111,235.631-8.873,348.209,103.706l-0.831,35.112c-239.14-240.193-442.76-88.016-696.341,105.893
				C1867.971,1411.928,1810.097,1431.813,1758.351,1431.818z"/>
		</g>
	</g>
	<g>
		
			<linearGradient id="SVGID_00000087395775903673881480000008236541171016171447_" gradientUnits="userSpaceOnUse" x1="1820.9482" y1="767.9717" x2="2382.3516" y2="767.9717">
			<stop  offset="0" style="stop-color:#8FD6FF"/>
			<stop  offset="1" style="stop-color:#BFEBFE"/>
		</linearGradient>
		<polygon style="fill:url(#SVGID_00000087395775903673881480000008236541171016171447_);" points="1824.943,891.541 
			1820.948,886.851 1887.238,830.377 1927.498,830.377 2018.843,752.558 2075.974,801.229 2118.104,801.229 2139.397,819.37 
			2205.556,763.008 2239.136,763.008 2378.356,644.403 2382.352,649.092 2241.403,769.169 2207.823,769.169 2139.397,827.462 
			2115.835,807.389 2073.706,807.389 2018.843,760.65 1929.766,836.537 1889.507,836.537 		"/>
	</g>
	<g>
		
			<linearGradient id="SVGID_00000104685882593363905960000008938939781680812718_" gradientUnits="userSpaceOnUse" x1="1811.6104" y1="695.8894" x2="2371.1963" y2="695.8894">
			<stop  offset="0" style="stop-color:#8FD6FF"/>
			<stop  offset="1" style="stop-color:#BFEBFE"/>
		</linearGradient>
		<polygon style="fill:url(#SVGID_00000104685882593363905960000008938939781680812718_);" points="1834.521,813.535 
			1811.61,813.535 1811.61,807.374 1831.968,807.374 1866.37,772.972 1891.384,797.986 1951.137,738.233 1969.517,756.612 
			2030.1,696.029 2066.403,732.333 2107.795,732.333 2171.681,668.447 2226.778,668.447 2267.511,627.715 2317.369,627.715 
			2366.841,578.244 2371.196,582.6 2319.921,633.875 2270.062,633.875 2229.331,674.607 2174.232,674.607 2110.347,738.494 
			2063.852,738.494 2030.1,704.742 1969.517,765.325 1951.137,746.945 1891.384,806.698 1866.37,781.685 		"/>
	</g>
	
		<linearGradient id="SVGID_00000011727665100836843900000013243486698616488377_" gradientUnits="userSpaceOnUse" x1="1915.656" y1="518.1865" x2="1599.2411" y2="1419.6724">
		<stop  offset="0" style="stop-color:#C6CBCF"/>
		<stop  offset="1" style="stop-color:#F8F1FE"/>
	</linearGradient>
	<path style="fill:url(#SVGID_00000011727665100836843900000013243486698616488377_);" d="M2446.342,827.536
		c-0.037-0.13-0.074-0.261-0.112-0.392c-58.918-205.484-205.97-381.117-409.137-471.494h-0.019
		c-34.806-15.627-71.33-28.581-109.238-38.787c-94.863-25.534-190.437-31.31-282.31-19.945c-0.074,0.018-0.168,0.018-0.243,0.037
		l-0.131-0.037c-61.815,7.737-121.985,23.178-179.203,45.796c-0.112,0.038-0.224,0.093-0.336,0.131
		c-210.12,82.638-379.604,260.495-442.765,495.233c-106.023,393.958,127.332,799.152,521.16,905.138
		c202.24,54.416,407.433,19.379,573.604-80.883l31.023,43.082l146.191-105.275l-35.291-49.008
		c88.056-88.31,154.914-200.145,189.646-329.227C2485.315,1087.658,2482.044,952.064,2446.342,827.536z M1905.593,1502.291
		c-261.113,93.574-548.657-42.227-642.23-303.339c-91.835-256.252,37.254-537.983,288.908-636.809
		c4.767-1.869,9.57-3.682,14.431-5.421c35.628-12.768,71.741-21.272,107.779-25.758c92.415-11.515,184.362,3.29,266.459,39.964
		c120.603,53.871,219.915,154.959,267.991,289.134c3.776,10.56,7.197,21.159,10.244,31.795
		C2291.308,1144.109,2156.144,1412.493,1905.593,1502.291z"/>
	<g>
		<path style="fill:#007FE6;" d="M2591.806,785.666l-145.576,41.478l-227.055,64.712c-3.047-10.636-6.468-21.234-10.244-31.795
			c-48.076-134.174-147.389-235.262-267.991-289.133l96.135-215.279h0.019l10.112-22.655l51.665-115.705
			C2343.739,326.21,2520.925,537.974,2591.806,785.666z"/>
	</g>
	<g>
		<path style="fill:#0064B5;" d="M2047.205,332.994l-10.112,22.655l-96.153,215.279c-82.097-36.674-174.044-51.479-266.459-39.964
			l-28.954-234.046l-3.028-24.544c94.976-11.794,193.783-5.813,291.861,20.581C1973.501,303.479,2011.26,316.863,2047.205,332.994z"
			/>
	</g>
	<g>
		<path style="fill:#004E8C;" d="M1674.48,530.964c-36.038,4.486-72.151,12.991-107.779,25.758
			c-4.86,1.739-9.664,3.551-14.431,5.421l-86.321-219.429l-26.132-66.414c62.825-24.88,128.902-41.853,196.793-50.339l0.149,0.038
			l5.738,46.375l3.028,24.544L1674.48,530.964z"/>
	</g>
	
		<linearGradient id="SVGID_00000093893405459595994790000018116898907586036402_" gradientUnits="userSpaceOnUse" x1="2162.5176" y1="1558.6364" x2="2639.675" y2="2248.5803">
		<stop  offset="0" style="stop-color:#57C1FF"/>
		<stop  offset="1" style="stop-color:#BFEBFE"/>
	</linearGradient>
	<polygon style="fill:url(#SVGID_00000093893405459595994790000018116898907586036402_);" points="2617.321,2000 2326.217,2000 
		2123.896,1719.049 2315.601,1581.015 	"/>
	<g>
		<g>
			<g>
				<path style="fill:#6A75BA;" d="M1578.601,175.074c0,0-10.49-19.256-16.457-26.185c-5.967-6.93-25.792-12.126-23.098-20.981
					c2.695-8.854,29.258-5.005,36.572,3.657c7.313,8.661,29.642,11.741,30.411,15.398c0.771,3.657-7.753,23.675-12.538,26.947
					C1588.706,177.184,1578.601,175.074,1578.601,175.074z"/>
				<path style="fill:#545D94;" d="M1534.013,191.379c0,0-17.086-13.548-25.313-17.538s-28.487-0.887-29.53-10.083
					c-1.043-9.196,24.864-16.211,35.018-11.166c10.152,5.045,31.867-0.995,34.025,2.056c2.159,3.05,2.285,24.807-0.807,29.71
					C1544.313,189.262,1534.013,191.379,1534.013,191.379z"/>
				<path style="fill:#EEA886;" d="M1571.96,226.651c0,0,7.459-51.012,7.122-59.862c-0.096-2.526,15.351-1.588,14.629,3.272
					c-1.571,10.582,5.558,51.585,4.318,59.091C1596.79,236.66,1571.325,231.378,1571.96,226.651z"/>
				<path style="fill:#EEA886;" d="M1548.588,241.312c0,0-13.979-49.532-17.235-57.768c-1.449-3.666,12.795-9.344,14.726-2.806
					c3.03,10.26,25.585,45.137,27.429,52.518C1575.351,240.638,1549.882,245.903,1548.588,241.312z"/>
				<path style="fill:#D9D3C8;" d="M1558.294,275.734c0,0-15.013-50.623-17.323-56.012l23.675-14.629
					c0,0,10.973,32.337,12.512,40.421C1578.697,253.598,1558.294,275.734,1558.294,275.734z"/>
				<path style="fill:#222538;" d="M1977.372,141.985c0,0-22.862,5.779-33.739,23.069c-10.878,17.289-20.278,37.202-40.718,46.236
					c-20.439,9.034-20.571,32.311-18.98,35.902c1.592,3.59,64.383,74.172,78.083,76.9c13.701,2.727,39.353,0.831,36.608-17.305
					c-2.744-18.137-29.627-57.15-14.537-76.833c15.089-19.682,18.893-37.813,18.893-37.813L1977.372,141.985z"/>
				<path style="fill:#EEA886;" d="M1973.387,226.396c0,0-0.672-0.223-1.789-0.324c-1.297-0.122-3.194-0.085-5.347,0.641
					c-0.537,0.18-1.252,0.544-2.092,1.04c-5.434,3.201-18.289,11.892-20.026,12.099c-2.007,0.239-0.313-29.751-0.313-29.751
					s6.846-12.11,7.706-20.081C1952.388,182.049,1973.387,226.396,1973.387,226.396z"/>
				<path style="fill:#D9D3C8;" d="M1812.562,257.737c0,0-25.119-17.612-54.568-12.126c-29.449,5.485-32.625,19.253-42.73,19.876
					c-10.105,0.623-43.886-2.265-71.604,5.82c-27.717,8.084-51.104,8.95-54.279,6.64c-3.176-2.309,17.323-48.505,17.323-54.856
					l-34.358-8.95c0,0-9.816,40.997-13.665,50.237c-4.116,9.883-12.03,28.487-0.771,44.655c11.26,16.169,42.73,8.883,61.787,12.141
					c19.055,3.258,104.347,1.169,119.241,0.371c16.169-0.866,64.962-3.176,64.962-3.176L1812.562,257.737z"/>
				<path style="fill:#EEA886;" d="M2018.865,166.452c0,0,1.603,24.815-3.907,32.257c-2.203,2.976-3.7,4.597-4.703,5.471
					c-1.413,1.23-2.51,2.782-3.139,4.546c-1.702,4.774-2.75,11.491-4.105,12.925c-1.479,1.564-5.764-2.414-7.315-2.422
					c-1.552-0.009-16.667,13.036-20.28,10.366c-3.614-2.671-25.667-25.047-23.813-40.388c1.853-15.341,8.62-38.247,33.448-38.106
					C2009.879,151.241,2016.967,160.282,2018.865,166.452z"/>
				<path style="fill:#FFC955;" d="M1943.834,284.877c-0.477,1.019-9.605,15.597-19.606,24.057
					c-4.152,3.514-8.451,5.971-12.346,5.971c-1.189,0-2.348,0.017-3.477,0.046c-11.477,0.309-20.295,2.067-35.79,2.841
					c-16.096,0.802-55.146-1.444-56.301-1.444c-1.154,0-12.415,2.021-12.415,2.021c-4.042-4.908,6.641-60.342,8.662-60.631
					c2.021-0.289,15.014,4.62,27.429,2.599c12.415-2.021,17.323-3.176,35.801-24.83c18.479-21.654,36.957-27.14,44.752-25.407
					c7.796,1.732,23.291,0,23.291,0S1944.507,283.433,1943.834,284.877z"/>
				<path style="fill:#222538;" d="M2008.434,184.222c0,0,4.626,11.989,7.077,13.64c0,0,8.931-9.443,3.195-32.747
					c-5.735-23.305-27.367-25.496-41.334-23.13c-17.385,2.945-34.887,61.765-33.984,67.495c0.902,5.729,20.381-30.399,37.447-27.491
					C1997.9,184.896,1998.038,185.847,2008.434,184.222z"/>
				<path style="fill:#A77860;" d="M1971.598,226.072c-1.297-0.122-3.179,0.014-5.332,0.738c-0.536,0.181-1.267,0.446-2.106,0.942
					c-3.993-6.225-7.69-20.989-7.813-21.489C1959.011,211.946,1971.598,226.072,1971.598,226.072z"/>
				<path style="fill:#C29941;" d="M1924.228,308.933c-4.152,3.514-8.451,5.971-12.346,5.971c-1.189,0-2.348,0.017-3.477,0.046
					l5.665-45.953L1924.228,308.933z"/>
				<path style="fill:#EEA886;" d="M2014.063,388.066l-11.082,10.081c-9.562-5.122-33.522-22.366-38.132-26.293
					c-4.835-4.118-37.07-31.08-41.496-37.227c-4.467-6.146-10.121-69.659-9.547-72.568c0.573-2.869,28.027-4.344,31.142,2.376
					c0,0,1.434,36.223,2.172,42.287c0.696,6.064,3.019,11.542,7.178,16.644c5.755,7.06,18.012,23.454,29.878,36.707
					C1987.005,363.233,2010.405,384.915,2014.063,388.066z"/>
				<path style="fill:#FFC955;" d="M1947.202,265.244c0,0,1.732-48.236-13.955-47.639c-19.834,0.754-22.81,25.022-20.114,51.392
					C1913.133,268.997,1942.774,269.286,1947.202,265.244z"/>
				<path style="fill:#EEA886;" d="M2008.725,383.344c0,0,1.478,2.323,3.615,3.046c3.691,1.247,9.151-1.154,11.847,3.683
					c2.694,4.836-10.311,16.919-13.803,17.652c-3.492,0.733-9.091-4.704-13.467-15.43
					C1992.542,381.57,2008.725,383.344,2008.725,383.344z"/>
				<path style="fill:#EEA886;" d="M2023.042,388.565c0,0,6.635,5.048,13.342,11.532c5.885,5.688,11.869,13.155,10.359,14.564
					c-2.063,1.926-6.076-4.485-12.285-9.753c-5.718-4.85-5.394-2.978-5.394-2.978s-0.063-0.537,5.152,5.906
					c5.606,6.928,11.398,15.152,9.671,16.34c-1.085,0.746-1.135,0.944-3.582-1.257c1.138,1.553,0.872,2.065,0.268,2.572
					c-3.129,2.622-12.953-6.346-16.854-9.909c2.979,2.754,4.873,5.08,1.849,5.436c-3.461,0.408-16.784-12.871-22.01-17.19
					C1997.857,399.118,2023.042,388.565,2023.042,388.565z"/>
			</g>
			<path style="fill:#E0E0E0;" d="M1823.849,259.945c0,0-5.296,37.96-2.686,56.633c0,0,2.76,2.052,8.254,0.393
				c0,0,1.372-41.438,4.449-56.147C1833.866,260.824,1832.176,259.545,1823.849,259.945z"/>
		</g>
		<g>
			<rect x="1825.104" style="fill:#E0E0E0;" width="4.098" height="288.653"/>
		</g>
	</g>
	<g>
		
			<rect x="2465.935" y="1495.108" transform="matrix(-1 -1.224647e-16 1.224647e-16 -1 5011.335 2995.7881)" style="fill:#FFFFFF;" width="79.466" height="5.571"/>
		
			<rect x="2465.935" y="1505.607" transform="matrix(-1 -1.224647e-16 1.224647e-16 -1 5011.335 3034.6338)" style="fill:#FFFFFF;" width="79.466" height="23.419"/>
		
			<rect x="2428.606" y="1536.9" transform="matrix(-1 -1.224647e-16 1.224647e-16 -1 4904.0918 3077.3008)" style="fill:#FFFFFF;" width="46.879" height="3.5"/>
		
			<rect x="2428.606" y="1541.932" transform="matrix(-1 -1.224647e-16 1.224647e-16 -1 4904.0918 3093.3408)" style="fill:#FFFFFF;" width="46.879" height="9.478"/>
		
			<rect x="2558.45" y="1465.086" transform="matrix(-1 -1.224647e-16 1.224647e-16 -1 5120.3994 2995.7891)" style="fill:#FFFFFF;" width="3.499" height="65.617"/>
	</g>
	<defs>
		<filter id="Adobe_OpacityMaskFilter" filterUnits="userSpaceOnUse" x="378.483" y="1021.373" width="99.787" height="48.502">
			<feFlood  style="flood-color:white;flood-opacity:1" result="back"/>
			<feBlend  in="SourceGraphic" in2="back" mode="normal"/>
		</filter>
	</defs>
	
		<mask maskUnits="userSpaceOnUse" x="378.483" y="1021.373" width="99.787" height="48.502" id="SVGID_00000036239992247160890210000012890060489858239135_">
		<g style="filter:url(#Adobe_OpacityMaskFilter);">
			<defs>
				
					<filter id="Adobe_OpacityMaskFilter_00000142894173237242091830000011340651803965180064_" filterUnits="userSpaceOnUse" x="378.483" y="1021.373" width="99.787" height="48.502">
					<feFlood  style="flood-color:white;flood-opacity:1" result="back"/>
					<feBlend  in="SourceGraphic" in2="back" mode="normal"/>
				</filter>
			</defs>
			
				<mask maskUnits="userSpaceOnUse" x="378.483" y="1021.373" width="99.787" height="48.502" id="SVGID_00000036239992247160890210000012890060489858239135_">
				<g style="filter:url(#Adobe_OpacityMaskFilter_00000142894173237242091830000011340651803965180064_);">
				</g>
			</mask>
			
				<linearGradient id="SVGID_00000183933404057561370900000008169396802838830246_" gradientUnits="userSpaceOnUse" x1="423.467" y1="808.3193" x2="431.8714" y2="1214.5176">
				<stop  offset="0" style="stop-color:#FFFFFF"/>
				<stop  offset="1" style="stop-color:#000000"/>
			</linearGradient>
			
				<polygon style="mask:url(#SVGID_00000036239992247160890210000012890060489858239135_);fill:url(#SVGID_00000183933404057561370900000008169396802838830246_);" points="
				401.869,1069.875 478.271,1069.875 454.886,1021.373 378.483,1021.373 			"/>
		</g>
	</mask>
	
		<linearGradient id="SVGID_00000163765676751343239770000014805115881462398649_" gradientUnits="userSpaceOnUse" x1="423.467" y1="808.3193" x2="431.8714" y2="1214.5176">
		<stop  offset="0" style="stop-color:#40D5E6"/>
		<stop  offset="1" style="stop-color:#5577FF"/>
	</linearGradient>
	<polygon style="fill:url(#SVGID_00000163765676751343239770000014805115881462398649_);" points="401.869,1069.875 
		478.271,1069.875 454.886,1021.373 378.483,1021.373 	"/>
	<defs>
		
			<filter id="Adobe_OpacityMaskFilter_00000064317375040094974680000004053001409763213440_" filterUnits="userSpaceOnUse" x="342.734" y="1021.373" width="41.59" height="48.502">
			<feFlood  style="flood-color:white;flood-opacity:1" result="back"/>
			<feBlend  in="SourceGraphic" in2="back" mode="normal"/>
		</filter>
	</defs>
	
		<mask maskUnits="userSpaceOnUse" x="342.734" y="1021.373" width="41.59" height="48.502" id="SVGID_00000046302035786717339240000011200362579836041902_">
		<g style="filter:url(#Adobe_OpacityMaskFilter_00000064317375040094974680000004053001409763213440_);">
			<defs>
				
					<filter id="Adobe_OpacityMaskFilter_00000155120496511817558040000016018265697982698150_" filterUnits="userSpaceOnUse" x="342.734" y="1021.373" width="41.59" height="48.502">
					<feFlood  style="flood-color:white;flood-opacity:1" result="back"/>
					<feBlend  in="SourceGraphic" in2="back" mode="normal"/>
				</filter>
			</defs>
			
				<mask maskUnits="userSpaceOnUse" x="342.734" y="1021.373" width="41.59" height="48.502" id="SVGID_00000046302035786717339240000011200362579836041902_">
				<g style="filter:url(#Adobe_OpacityMaskFilter_00000155120496511817558040000016018265697982698150_);">
				</g>
			</mask>
			
				<linearGradient id="SVGID_00000090260970898666000150000002112372574561839519_" gradientUnits="userSpaceOnUse" x1="358.6471" y1="809.6606" x2="367.0515" y2="1215.8582">
				<stop  offset="0" style="stop-color:#FFFFFF"/>
				<stop  offset="1" style="stop-color:#000000"/>
			</linearGradient>
			
				<polygon style="mask:url(#SVGID_00000046302035786717339240000011200362579836041902_);fill:url(#SVGID_00000090260970898666000150000002112372574561839519_);" points="
				366.119,1069.875 384.324,1069.875 360.94,1021.373 342.734,1021.373 			"/>
		</g>
	</mask>
	
		<linearGradient id="SVGID_00000145769022405018521380000003864024977624311191_" gradientUnits="userSpaceOnUse" x1="358.6471" y1="809.6606" x2="367.0515" y2="1215.8582">
		<stop  offset="0" style="stop-color:#40D5E6"/>
		<stop  offset="1" style="stop-color:#5577FF"/>
	</linearGradient>
	<polygon style="fill:url(#SVGID_00000145769022405018521380000003864024977624311191_);" points="366.119,1069.875 
		384.324,1069.875 360.94,1021.373 342.734,1021.373 	"/>
	<defs>
		
			<filter id="Adobe_OpacityMaskFilter_00000066494612661339482850000013467779326237804195_" filterUnits="userSpaceOnUse" x="2419.55" y="164.948" width="84.725" height="32.676">
			<feFlood  style="flood-color:white;flood-opacity:1" result="back"/>
			<feBlend  in="SourceGraphic" in2="back" mode="normal"/>
		</filter>
	</defs>
	
		<mask maskUnits="userSpaceOnUse" x="2419.55" y="164.948" width="84.725" height="32.676" id="SVGID_00000125584135217347483970000013721607961592765343_">
		<g style="filter:url(#Adobe_OpacityMaskFilter_00000066494612661339482850000013467779326237804195_);">
			<defs>
				
					<filter id="Adobe_OpacityMaskFilter_00000072983749342301051820000017558957915064501951_" filterUnits="userSpaceOnUse" x="2419.55" y="164.948" width="84.725" height="32.676">
					<feFlood  style="flood-color:white;flood-opacity:1" result="back"/>
					<feBlend  in="SourceGraphic" in2="back" mode="normal"/>
				</filter>
			</defs>
			
				<mask maskUnits="userSpaceOnUse" x="2419.55" y="164.948" width="84.725" height="32.676" id="SVGID_00000125584135217347483970000013721607961592765343_">
				<g style="filter:url(#Adobe_OpacityMaskFilter_00000072983749342301051820000017558957915064501951_);">
				</g>
			</mask>
			
				<linearGradient id="SVGID_00000054264731571083785440000005415283923691500419_" gradientUnits="userSpaceOnUse" x1="2508.5547" y1="6.8083" x2="2411.0928" y2="371.3884">
				<stop  offset="0" style="stop-color:#FFFFFF"/>
				<stop  offset="1" style="stop-color:#000000"/>
			</linearGradient>
			
				<polygon style="mask:url(#SVGID_00000125584135217347483970000013721607961592765343_);fill:url(#SVGID_00000054264731571083785440000005415283923691500419_);" points="
				2419.55,197.624 2504.274,197.624 2504.274,164.948 2419.55,164.948 			"/>
		</g>
	</mask>
	
		<linearGradient id="SVGID_00000041993229625151034030000014076398556924427928_" gradientUnits="userSpaceOnUse" x1="2508.5547" y1="6.8083" x2="2411.0928" y2="371.3884">
		<stop  offset="0" style="stop-color:#40D5E6"/>
		<stop  offset="1" style="stop-color:#5577FF"/>
	</linearGradient>
	<polygon style="fill:url(#SVGID_00000041993229625151034030000014076398556924427928_);" points="2419.55,197.624 
		2504.274,197.624 2504.274,164.948 2419.55,164.948 	"/>
	<defs>
		
			<filter id="Adobe_OpacityMaskFilter_00000082355225079166359540000008024526660880306361_" filterUnits="userSpaceOnUse" x="2419.55" y="149.699" width="84.725" height="6.149">
			<feFlood  style="flood-color:white;flood-opacity:1" result="back"/>
			<feBlend  in="SourceGraphic" in2="back" mode="normal"/>
		</filter>
	</defs>
	
		<mask maskUnits="userSpaceOnUse" x="2419.55" y="149.699" width="84.725" height="6.149" id="SVGID_00000053508302388447126560000012904213963851929743_">
		<g style="filter:url(#Adobe_OpacityMaskFilter_00000082355225079166359540000008024526660880306361_);">
			<defs>
				
					<filter id="Adobe_OpacityMaskFilter_00000126291607694862029630000007901724130292078003_" filterUnits="userSpaceOnUse" x="2419.55" y="149.699" width="84.725" height="6.149">
					<feFlood  style="flood-color:white;flood-opacity:1" result="back"/>
					<feBlend  in="SourceGraphic" in2="back" mode="normal"/>
				</filter>
			</defs>
			
				<mask maskUnits="userSpaceOnUse" x="2419.55" y="149.699" width="84.725" height="6.149" id="SVGID_00000053508302388447126560000012904213963851929743_">
				<g style="filter:url(#Adobe_OpacityMaskFilter_00000126291607694862029630000007901724130292078003_);">
				</g>
			</mask>
			
				<linearGradient id="SVGID_00000063604498985421295620000002717651536216850050_" gradientUnits="userSpaceOnUse" x1="2494.2688" y1="31.7354" x2="2418.7839" y2="314.1049">
				<stop  offset="0" style="stop-color:#FFFFFF"/>
				<stop  offset="1" style="stop-color:#000000"/>
			</linearGradient>
			
				<polygon style="mask:url(#SVGID_00000053508302388447126560000012904213963851929743_);fill:url(#SVGID_00000063604498985421295620000002717651536216850050_);" points="
				2419.55,155.848 2504.274,155.848 2504.274,149.699 2419.55,149.699 			"/>
		</g>
	</mask>
	
		<linearGradient id="SVGID_00000077284175076249990010000007729001340743843239_" gradientUnits="userSpaceOnUse" x1="2494.2688" y1="31.7354" x2="2418.7839" y2="314.1049">
		<stop  offset="0" style="stop-color:#40D5E6"/>
		<stop  offset="1" style="stop-color:#5577FF"/>
	</linearGradient>
	<polygon style="fill:url(#SVGID_00000077284175076249990010000007729001340743843239_);" points="2419.55,155.848 
		2504.274,155.848 2504.274,149.699 2419.55,149.699 	"/>
	
		<linearGradient id="SVGID_00000000943351531630129370000002584697564481858454_" gradientUnits="userSpaceOnUse" x1="877.6426" y1="973.8207" x2="877.6426" y2="1506.1707">
		<stop  offset="0" style="stop-color:#626E7A"/>
		<stop  offset="1" style="stop-color:#F5F5F5"/>
	</linearGradient>
	<path style="fill:url(#SVGID_00000000943351531630129370000002584697564481858454_);" d="M1153.704,906.706H601.58
		c-12.863,0-23.291-10.427-23.291-23.291v-5.892c0-12.863,10.428-23.291,23.291-23.291h552.124
		c12.863,0,23.292,10.428,23.292,23.291v5.892C1176.996,896.279,1166.567,906.706,1153.704,906.706z"/>
	<g>
		<g>
			<polygon style="fill:#616587;" points="1494.617,1626.932 1798.632,1626.932 1702.815,1921.183 1711.776,1924.1 
				1811.61,1617.508 1487.775,1617.508 1388.891,1921.183 1397.853,1924.1 			"/>
		</g>
		<g>
			<polygon style="fill:#616587;" points="1598.087,1921.183 1502.271,1626.932 1806.284,1626.932 1903.05,1924.1 
				1912.011,1921.183 1813.126,1617.508 1489.292,1617.508 1589.126,1924.1 			"/>
		</g>
		<g>
			<rect x="1466.333" y="1710.165" style="fill:#616587;" width="372.103" height="9.423"/>
		</g>
		<g>
			<rect x="1428" y="1812.477" style="fill:#616587;" width="445.192" height="9.424"/>
		</g>
	</g>
	<g>
		<g>
			<g>
				<path style="fill:#EEA886;" d="M1646.958,955.361c0,0,7.578-13.263-4.44-48.807c-11.625-34.376-51.862-31.259-64.65-9.235
					c-12.788,22.023-8.468,35.702,10.358,60.568C1607.052,982.752,1639.144,966.728,1646.958,955.361z"/>
			</g>
		</g>
		<g>
			<g>
				<path style="fill:#EEA886;" d="M1553.497,1566.896c0,0-1.991,14.598-2.24,16.79c-0.248,2.192-22.149-1.292-22.149-1.292
					l-1.773-17.378C1527.334,1565.017,1550.759,1564.838,1553.497,1566.896z"/>
			</g>
		</g>
		<g>
			<g>
				<path style="fill:#152B3D;" d="M1551.49,1581.83c0,0,6.938,8.797,13.65,12.631c6.711,3.834,17.258,5.352,21.227,9.32
					c2.864,2.865,10.434,15.197-17.44,14.949c-27.873-0.25-41.313,1.742-44.299-2.986s4.321-34.902,4.321-34.902
					S1535.772,1582.766,1551.49,1581.83z"/>
			</g>
		</g>
		<g>
			<g>
				<path style="fill:#EEA886;" d="M1705.139,1566.896c0,0-1.991,14.598-2.239,16.79c-0.25,2.192-22.15-1.292-22.15-1.292
					l-1.773-17.378C1678.976,1565.017,1702.401,1564.838,1705.139,1566.896z"/>
			</g>
		</g>
		<g>
			<g>
				<path style="fill:#152B3D;" d="M1703.132,1581.83c0,0,6.939,8.797,13.65,12.631s31.408,6.982,35.377,10.951
					c2.865,2.864,7.629,14.396-31.591,13.318c-27.864-0.766-41.313,1.742-44.299-2.986s4.321-34.902,4.321-34.902
					S1689.249,1582.383,1703.132,1581.83z"/>
			</g>
		</g>
		<g>
			<g>
				<path style="fill:#FFC05C;" d="M1560.87,1203.424c0,0-11.229,34.896-9.75,64.967c1.479,30.072-5.807,62.979-8.784,94.393
					c-3.319,35.021-16.907,117.928-17.399,136.662c-0.493,18.732,2.109,78.551,2.109,78.551l27.196,0.658
					c0,0,22.843-144.944,28.759-159.733c5.916-14.79,35.254-120.226,36.239-132.058
					C1620.227,1275.033,1560.87,1203.424,1560.87,1203.424z"/>
			</g>
		</g>
		<g>
			<g>
				<path style="fill:#FFC05C;" d="M1673.637,1199.79c0,0,16.511,92.265,18.482,110.671c1.972,18.404,3.286,89.068,4.272,100.572
					c0.986,11.503,6.573,150.529,11.832,167.621h-30.325c0,0-31.136-101.068-31.136-148.887c0-47.82-20.621-103.959-33.931-135.509
					c-13.311-31.551-43.779-32.298-51.962-90.835C1560.87,1203.424,1662.559,1181.225,1673.637,1199.79z"/>
			</g>
		</g>
		<g>
			<g>
				<path style="fill:#EEA886;" d="M1635.958,964.746c0,0-3.422,9.956,0,17.061c3.422,7.104-43.707,2.842-43.707,2.842
					s2.132-14.683-4.025-26.761C1582.068,945.809,1635.958,964.746,1635.958,964.746z"/>
			</g>
		</g>
		<g>
			<g>
				<path style="fill:#FFC05C;" d="M1558.685,1211.025c0,0,16.948,17.41,116.469-2.711l-1.517-8.524l-113.136,4.259
					L1558.685,1211.025z"/>
			</g>
		</g>
		<g>
			<g>
				<path style="fill:#EEA886;" d="M1643.09,984.113c0,0,17.406,1.776,22.38,2.724c4.973,0.947,38.449-5.986,45.316-6.697
					c6.868-0.71,36.151-20.775,37.099-23.143c0.947-2.368,17.816-45.079,18.764-54.315c0.946-9.236,16.431-4.468,15.103,1.897
					c-2.483,11.904-5.673,40.805-7.42,49.181c-1.889,9.044-6.947,29.529-9.789,32.05s-29.209,22.578-55.023,31.103
					c-25.813,8.526-45.244,21.077-45.244,21.077h-127.218c0,0-49.482-70.732-50.548-81.388
					c-1.066-10.657,34.563-81.487,41.667-90.368c7.104-8.88,17.381,2.9,17.381,2.9s-21.288,62.461-24.13,71.341
					c-2.842,8.88,24.762,47.9,32.34,48.018c7.578,0.119,27.038-2.368,35.682-2.723c8.645-0.355,17.762-4.145,17.762-4.145
					L1643.09,984.113z"/>
			</g>
		</g>
		<g>
			<g>
				<path style="fill:#254380;" d="M1697.915,1031.359c0,0-15.573,10.354-16.994,28.115s-7.104,45.823-9.946,55.414
					c-2.842,9.592,2.486,79.215,3.197,84.188c0.71,4.973-98.442,16.789-113.671,4.973c0,0-4.263-65.005-6.039-83.477
					c-1.775-18.471-10.301-63.229-13.143-69.268s-37.299-54.372-38.72-60.743c0,0,17.826-28.419,30.614-28.774
					c0,0,20.311,23.801,26.932,24.866c6.621,1.066,47.213-6.373,47.219-6.435c0,0,4.43,6.033,27.982-1.072
					c0,0,28.049,3.166,32.609,3.747c5.526,0.705,43.932-4.821,43.932-4.821s15.407,26.018,12.709,39.155L1697.915,1031.359z"/>
			</g>
		</g>
		<g>
			<g>
				<path style="fill:#EEA886;" d="M1765.757,908.232c0,0,3.479-16.463-0.71-21.19c-2.382-2.69-8.112-9.814-8.636-10.861
					c-0.523-1.047-6.674-4.58-6.674-6.281s6.02-3.795,11.253,1.047c5.234,4.842,8.506,5.889,10.6,5.365
					c2.094-0.523,5.104-17.927,5.365-22.246s1.928-15.703,4.628-14.917c2.699,0.785,2.568,5.758,2.568,5.758
					s3.141-8.637,5.234-6.935c2.094,1.701,1.832,5.889,1.832,5.889s3.926-4.842,4.973-1.309c1.047,3.533,0,6.674,0,6.674
					s4.057-2.225,4.318,3.271c0.262,5.496-1.178,21.591-4.057,27.349c-2.879,5.757-13.654,20.816-14.939,26.7
					C1780.226,912.428,1765.757,908.232,1765.757,908.232z"/>
			</g>
		</g>
		<g>
			<g>
				<path style="fill:#EEA886;" d="M1542.089,879.319c0,0,11.836-19.894,15.861-21.671c4.026-1.776,9.71-2.783,14.684-6.335
					c4.974-3.553,11.545-6.513,11.19-7.697c-0.355-1.184-6.217-0.71-12.493,2.014c-6.275,2.724-9.029,1.407-9.621-0.014
					c-0.592-1.42,3.346-11.453,5.24-13.821c1.895-2.368,15.394-15.946,13.144-17.959c-2.25-2.014-11.013,5.446-12.434,6.986
					c0,0,6.987-14.684,4.263-15.394c-2.723-0.711-7.814,4.499-7.814,4.499s0.592-12.552-12.907,7.815c0,0,2.842-6.749-1.303-4.499
					c-4.145,2.25-8.171,14.92-9.473,21.314c-1.303,6.394-7.212,26.764-12.25,31.677S1542.089,879.319,1542.089,879.319z"/>
			</g>
		</g>
		<g>
			<g>
				<path style="fill:#353A3D;" d="M1588.226,957.887c0,0,6.236,0.551,19.498-4.028c13.263-4.579,14.252-27.769,17.12-25.023
					c5.853,5.604,11.378,1.736,13.589-1.579c0,0-6.473-8.525-3.474-12.631c3-4.105,7.884-7.101,7.884-7.101
					s-9.328-44.959-51.775-24.476C1541.334,907.048,1588.226,957.887,1588.226,957.887z"/>
			</g>
		</g>
		<g>
			<g>
				<path style="fill:#254380;" d="M1635.958,981.806l-1.496-6.499c0,0-27.093-0.55-41.875,1.593l-1.556,7.768
					C1591.031,984.667,1609.959,993.253,1635.958,981.806z"/>
			</g>
		</g>
		<g>
			<g>
				<path style="fill:#EEA886;" d="M1629.275,923.153c-2.462-4.09-11.562-6.848-12.631,4.736
					c-0.829,8.979,16.262,18.788,16.42,10.42C1633.223,929.941,1630.913,925.873,1629.275,923.153z"/>
			</g>
		</g>
		<g>
			<g>
				<path style="fill:#E55353;" d="M1766.403,904.494c0,0,9.775,0.24,14.516,4.524c0,0,0.311,2.719-0.791,4.863
					c0,0-8.474-3.953-14.971-4.693C1765.157,909.188,1765.265,905.633,1766.403,904.494z"/>
			</g>
		</g>
		<g>
			<g>
				<path style="fill:#353A3D;" d="M1777.927,906.93c0.902,2.139-0.099,4.605-2.237,5.508c-2.139,0.903-4.604-0.099-5.508-2.237
					c-0.903-2.139,0.099-4.604,2.237-5.508C1774.558,903.79,1777.023,904.792,1777.927,906.93z"/>
			</g>
		</g>
	</g>
	<g>
		<g>
			<path style="fill:#EEA987;" d="M2550.173,1134.928c0,0-8.674,1.158-8.607-2.514c0.066-3.67,0.661-8.463,0.661-8.463
				L2550.173,1134.928z"/>
			<path style="fill:#EEA987;" d="M2598.94,1095.111l-28.483,22.039c3.63-0.689,9.71-1.557,9.847,0.34
				c0.195,2.707-10.827,5.98-14.321,8.443c-3.2,2.258-6.56,6.285-7.455,6.473l-6.229,5.338l-10.072-13.793
				c0,0,16.628-18.813,20.634-22.826c6.514-6.525,32.863-10.354,34.307-9.406C2599.771,1093.428,2598.94,1095.111,2598.94,1095.111z
				"/>
		</g>
		<g>
			<path style="fill:#2F4563;" d="M2563.785,1138.67l-22.976-19.459l-78.789,79.611c-12.335,8.48,24.054,37.707,34.333,44.08
				c26.413,16.375,57.563,54.273,89.878,31.164c35.036-25.057-15.971-42.883-32.973-42.446
				c-14.732,0.378-46.832-28.603-46.832-28.603L2563.785,1138.67z"/>
		</g>
		<g>
			<path style="fill:#202338;" d="M2522.202,1853.096c0,0-13.09,13.745-26.379,16.625s-22.584,6.553-22.685,14.44
				c-0.1,7.888,38.243,13.085,53.45,5.134c22.696-11.867,25.003-8.29,27.52-14.223c2.517-5.932-3.022-21.795-2.859-23.682
				C2551.452,1849.06,2522.202,1853.096,2522.202,1853.096z"/>
		</g>
		<g>
			<path style="fill:#2F6B8C;" d="M2523.673,1846.52c0,0-1.729,6.439-1.471,6.576c0.256,0.137,29.945,3.463,29.047-1.705
				c-0.728-4.19-1.767-8.745-1.767-8.745L2523.673,1846.52z"/>
		</g>
		<g>
			<path style="fill:#202338;" d="M2670.067,1856.68c0,0-9.63,13.389-22.51,16.478c-12.7,3.045-20.93,8.841-21.552,16.506
				c-0.622,7.666,29.942,17.704,51.417,4.239c14.111-8.848,19.373-8.345,22.216-13.967c2.843-5.621-1.489-21.377-1.204-23.203
				C2698.786,1854.477,2670.067,1856.68,2670.067,1856.68z"/>
		</g>
		<g>
			<path style="fill:#2F6B8C;" d="M2670.46,1850.061c0,0-0.634,6.472-0.393,6.619c0.24,0.148,28.535,5.154,28.367,0.053
				c-0.134-4.051-1.794-9.092-1.794-9.092L2670.46,1850.061z"/>
		</g>
		<g>
			<path style="fill:#877D78;" d="M2553.618,1459.791c0,0-13.748,99.869-19.364,133.631c-6.565,39.475-8.791,72.09-10.622,92.521
				c-2.303,25.697-5.358,157.209-6.971,164.723s40.048,3.608,40.048,3.608s21.822-171.446,28.682-198.813
				c6.387-25.484,24.983-135.556,30.811-128.598c5.827,6.959,23.671,131.65,27.986,151.748s15.885,178.313,15.885,178.313
				s39.295,6.299,47.207,0c0,0-6.199-141.08-8.949-178.76c-1.048-14.361,9.083-171.914-15.199-235.449
				C2670.298,1409.137,2553.618,1459.791,2553.618,1459.791z"/>
		</g>
		<path style="fill:#FFC05C;" d="M2593.957,1220.273c0,0-36.382,7.523-40.698,11.347c-4.687,4.069-12.951,43.916-13.444,55.016
			s4.386,57.466,9.072,74.731c4.687,17.267,4.748,91.965,1.788,115.891c0,0,70.074,14.338,142.099,4.965
			c0,0-9.819-72.66-6.937-96.318c3.693-30.311,12.58-100.143,12.58-100.143s0.059-39.314-5.514-45.602
			c-11.947-13.48-57.878-19.887-57.878-19.887H2593.957z"/>
		<path style="fill:#2F4563;" d="M2648.589,1293.168c1.702,35.985,13.156,44.727,24.437,41.926c3.54-0.869,7.013-2.879,10.065-5.537
			c4.799-4.176,8.561-9.943,9.904-15.42c4.935-20.045,4.975-75.309-20.313-82.42
			C2672.683,1231.717,2645.264,1222.844,2648.589,1293.168z"/>
		<path style="fill:#F5E1D9;" d="M2539.78,1309.512c0,0,20.305-3.367,21.538,26.07s13.982,84.123,34.745,105.916l-81.68,3.1
			c-20.764-21.793-30.965-73.982-32.514-103.404c-1.424-27.057-21.539-26.07-21.539-26.07L2539.78,1309.512z"/>
		<path style="fill:#2F4563;" d="M2587.432,1242.094c0.463,0.309,0.956,0.604,1.499,0.869c1.851,0.938,4.193,1.616,7.136,1.943
			c1.079,0.117,2.158,0.16,3.244,0.136c0.66-0.019,1.326-0.056,1.992-0.124c19.255-1.881,38.375-23.911,38.375-23.911
			c-38.671-5.858-55.243,1.345-55.243,1.345S2578.249,1235.901,2587.432,1242.094z"/>
		<path style="fill:#EEA886;" d="M2595.701,1108.83c0,0-45.75-9.182-33.993,47.84c11.758,57.021,22.809,61.264,49.981,48.758
			s23.841-49.139,24.795-67.164S2610.233,1109.109,2595.701,1108.83z"/>
		<path style="fill:#EEA886;" d="M2588.233,1228.148c0,0,9.005,5.952,43.154-9.09c0,0-3.41-20.279,1.863-42.532
			c5.069-21.42-41.952,26.409-41.952,26.409c0.549,0.389,0.653,2.578,0.339,5.625c-0.086,0.826-0.197,1.709-0.345,2.633
			c-0.241,1.568-0.573,3.264-0.987,4.996c-0.111,0.469-0.229,0.938-0.352,1.406
			C2588.036,1224.904,2588.233,1221.766,2588.233,1228.148z"/>
		<path style="fill:#353A3D;" d="M2634.967,1167.703c0,0-2.297-15.365-8.9-15.771c-6.604-0.407-8.493,8.982-8.493,8.982
			l-5.182,0.533c0,0,2.141-16.275-4.506-18.881c-6.646-2.607-42.548,6.263-47.941,1.747c-5.393-4.517-2.729-34.536,6.719-39.153
			c9.449-4.618,34.659-17.203,54.303-4.579c0,0,15.027-2.077,17.551,10.03C2641.041,1122.719,2638.847,1158.564,2634.967,1167.703z"
			/>
		<path style="fill:#EEA886;" d="M2617.815,1146.555c1.111-5.363,11.994-6.426,12.154,1.773c0.161,8.201-6.801,21.965-10.745,20.211
			C2615.281,1166.785,2616.282,1153.95,2617.815,1146.555z"/>
		<path style="fill:#4B6F9E;" d="M2631.376,1212.588c0,0-17.852,10.768-35.515,13.193l9.397,14.99l29.767-20.498L2631.376,1212.588z
			"/>
		<path style="fill:#4B6F9E;" d="M2589.953,1217.598c0,0,1.882,6.17,5.908,8.184l-8.825,12.305l0.324-16.319L2589.953,1217.598z"/>
		<path style="fill:#FFFFFF;" d="M2595.861,1225.781l-6.987,9.743c0,0,4.42,5.593,13.945,1.354L2595.861,1225.781z"/>
		<path style="fill:#FFFFFF;" d="M2588.931,1242.963c1.851,0.938,4.193,1.616,7.136,1.943c1.079,0.117,2.158,0.16,3.244,0.136
			l-1.055-9.079h-6.457C2591.799,1235.963,2590.14,1238.627,2588.931,1242.963z"/>
		<path style="fill:#A77860;" d="M2590.104,1217.016c20.242,1.072,33.204-19.926,33.593-20.543
			c-12.712,13.889-32.404,14.721-32.404,14.721C2591.052,1212.762,2590.518,1215.281,2590.104,1217.016z"/>
		<path style="fill:#EDDAD3;" d="M2539.78,1309.512c0,0-24.308,2.262-19.168,36.184l-72.16,3.905c0,0-9.957-23.11,11.879-34.478
			L2539.78,1309.512z"/>
		
			<rect x="2455.305" y="1332.967" transform="matrix(-0.9986 0.0537 -0.0537 -0.9986 5035.1558 2533.5022)" style="fill:#C9BAB3;" width="56.433" height="2.938"/>
		
			<rect x="2460.144" y="1319.932" transform="matrix(-0.9986 0.0537 -0.0537 -0.9986 5044.1064 2507.2351)" style="fill:#C9BAB3;" width="56.433" height="2.938"/>
		<g>
			
				<rect x="2490.375" y="1348.883" transform="matrix(0.9986 -0.0537 0.0537 0.9986 -68.898 137.2355)" style="fill:#C9BAB3;" width="56.433" height="2.938"/>
			
				<rect x="2497.438" y="1368.611" transform="matrix(0.9986 -0.0537 0.0537 0.9986 -69.9672 137.6847)" style="fill:#C9BAB3;" width="56.433" height="2.938"/>
			
				<rect x="2504.502" y="1388.342" transform="matrix(0.9986 -0.0537 0.0537 0.9986 -70.9973 138.0516)" style="fill:#C9BAB3;" width="56.433" height="2.938"/>
			
				<rect x="2511.566" y="1408.07" transform="matrix(0.9986 -0.0537 0.0537 0.9986 -72.0669 138.5008)" style="fill:#C9BAB3;" width="56.433" height="2.939"/>
			
				<rect x="2518.629" y="1427.801" transform="matrix(0.9986 -0.0537 0.0537 0.9986 -73.0963 138.8671)" style="fill:#C9BAB3;" width="56.433" height="2.938"/>
		</g>
		<path style="fill:#EEA886;" d="M2602.327,1372.92c0,0-3.134,1.477-5.848,0.738c-4.688-1.275-8.69-7.789-14.82-4.443
			c-6.13,3.345-0.984,25.787,2.13,29.078s12.668,1.364,24.603-7.195C2620.325,1382.537,2602.327,1372.92,2602.327,1372.92z"/>
		<path style="fill:#EEA886;" d="M2583.886,1368.389c0,0-10.359,0.764-21.785,3.039c-10.023,1.997-22.188,5.873-21.717,8.402
			c0.715,3.84,10.324-0.48,20.395-1.785c9.271-1.203,7.645,0.605,7.645,0.605s0.435-0.541-9.415,2.756
			c-10.591,3.545-21.817,7.795-21.472,9.873c0.43,2.576,0.701,2.861,4.755,2.209c-2.25,0.881-2.329,1.629-2.052,2.613
			c1.435,5.088,17.805,2.332,24.305,1.234c-4.988,0.873-8.556,2.055-5.666,4.602c3.307,2.914,26.276-2.041,34.673-3.016
			C2602.71,1397.857,2583.886,1368.389,2583.886,1368.389z"/>
		<path style="fill:#2F4563;" d="M2664.614,1232.428c-7.431,2.441-11.399,12.941-6.879,34.74
			c4.998,24.107,10.6,35.832,13.822,41.509c3.224,5.677,20.642,34.758,17.455,39.361c-3.186,4.603-45.266,15.551-48.133,16.364
			c-5.703,1.619-43.887,9.24-43.887,9.24l9.349,32.699c0,0,116.251-19.834,121.912-25.492s8.61-13.326,2.353-33.094
			c-6.362-20.09-17.794-67.124-19.824-70.801C2708.751,1273.277,2698.106,1221.422,2664.614,1232.428z"/>
		<path style="fill:#1E2C40;" d="M2658.766,1271.926c0,0,2.615,36.938,14.26,63.168c3.54-0.869,7.013-2.879,10.065-5.537
			c0,0-13.451-24.275-14.654-27.033C2667.233,1299.76,2660.129,1278.354,2658.766,1271.926z"/>
	</g>
	<g>
		<g>
			
				<linearGradient id="SVGID_00000095313311967474253740000006109189972779991476_" gradientUnits="userSpaceOnUse" x1="876.0601" y1="1166.8549" x2="876.0601" y2="2306.5742">
				<stop  offset="0" style="stop-color:#44607D"/>
				<stop  offset="1" style="stop-color:#F5F5F5"/>
			</linearGradient>
			<path style="fill:url(#SVGID_00000095313311967474253740000006109189972779991476_);" d="M1138.261,1362.807H613.859
				c-18.696,0-33.853-15.156-33.853-33.852V974.526c0-18.696,15.156-33.852,33.853-33.852h524.401
				c18.696,0,33.853,15.156,33.853,33.852v354.429C1172.113,1347.65,1156.957,1362.807,1138.261,1362.807z"/>
		</g>
		<g>
			<g>
				
					<linearGradient id="SVGID_00000032631902096429040400000016646649577177660074_" gradientUnits="userSpaceOnUse" x1="1000.3936" y1="1071.2471" x2="1018.9053" y2="1071.2471">
					<stop  offset="0" style="stop-color:#D5E4FF"/>
					<stop  offset="1" style="stop-color:#EDFFFE"/>
				</linearGradient>
				
					<rect x="1000.394" y="1019.797" style="fill:url(#SVGID_00000032631902096429040400000016646649577177660074_);" width="18.512" height="102.9"/>
			</g>
			<g>
				
					<linearGradient id="SVGID_00000176023362852539899610000001909246109093372856_" gradientUnits="userSpaceOnUse" x1="1032.8945" y1="1057.5305" x2="1051.4053" y2="1057.5305">
					<stop  offset="0" style="stop-color:#D5E4FF"/>
					<stop  offset="1" style="stop-color:#EDFFFE"/>
				</linearGradient>
				
					<rect x="1032.895" y="992.364" style="fill:url(#SVGID_00000176023362852539899610000001909246109093372856_);" width="18.511" height="130.333"/>
			</g>
			<g>
				
					<linearGradient id="SVGID_00000173874958684343832050000012589447178214640021_" gradientUnits="userSpaceOnUse" x1="1067" y1="1064.7061" x2="1085.5117" y2="1064.7061">
					<stop  offset="0" style="stop-color:#D5E4FF"/>
					<stop  offset="1" style="stop-color:#EDFFFE"/>
				</linearGradient>
				
					<rect x="1067" y="1006.715" style="fill:url(#SVGID_00000173874958684343832050000012589447178214640021_);" width="18.512" height="115.982"/>
			</g>
			<g>
				
					<linearGradient id="SVGID_00000183947207199783219620000008841643829788714159_" gradientUnits="userSpaceOnUse" x1="1102.042" y1="1081.3667" x2="1120.5537" y2="1081.3667">
					<stop  offset="0" style="stop-color:#D5E4FF"/>
					<stop  offset="1" style="stop-color:#EDFFFE"/>
				</linearGradient>
				
					<rect x="1102.042" y="1040.036" style="fill:url(#SVGID_00000183947207199783219620000008841643829788714159_);" width="18.512" height="82.661"/>
			</g>
			<g>
				<rect x="1000.394" y="1057.436" style="fill:#007BDE;" width="18.512" height="65.262"/>
			</g>
			<g>
				<rect x="1032.895" y="1040.036" style="fill:#007BDE;" width="18.511" height="82.661"/>
			</g>
			<g>
				<rect x="1067" y="1049.139" style="fill:#007BDE;" width="18.512" height="73.559"/>
			</g>
			<g>
				<rect x="1102.042" y="1071.248" style="fill:#007BDE;" width="18.512" height="51.449"/>
			</g>
		</g>
		<g>
			<g>
				<path style="fill:#FFFFFF;" d="M1108.173,1187.259h-95.398c-4.032,0-7.301-3.269-7.301-7.301v-14.731
					c0-4.033,3.269-7.301,7.301-7.301h95.398c4.032,0,7.301,3.268,7.301,7.301v14.731
					C1115.474,1183.99,1112.205,1187.259,1108.173,1187.259z"/>
			</g>
		</g>
		<g>
			<g>
				<path style="fill:#FFFFFF;" d="M1108.173,1242.18h-95.398c-4.032,0-7.301-3.27-7.301-7.301v-14.732
					c0-4.031,3.269-7.301,7.301-7.301h95.398c4.032,0,7.301,3.27,7.301,7.301v14.732
					C1115.474,1238.91,1112.205,1242.18,1108.173,1242.18z"/>
			</g>
		</g>
		<g>
			<g>
				<path style="fill:#FFFFFF;" d="M1108.173,1297.1h-95.398c-4.032,0-7.301-3.268-7.301-7.301v-14.731c0-4.032,3.269-7.3,7.301-7.3
					h95.398c4.032,0,7.301,3.268,7.301,7.3v14.731C1115.474,1293.832,1112.205,1297.1,1108.173,1297.1z"/>
			</g>
		</g>
		<g>
			<g>
				<g>
					<path style="fill:#FFFFFF;" d="M952.289,1092.498c-24.468-68.418-89.855-110.439-158.771-108.368
						c-16.684,0.502-33.574,3.588-50.148,9.515c-50.196,17.955-86.193,57.939-100.981,105.175
						c-10.249,32.736-10.314,68.957,2.13,103.748c1.235,3.461,2.581,6.865,4.024,10.189c6.546,15.068,15.134,28.7,25.335,40.682
						c42.766,50.28,113.731,71.527,179.565,47.986C938.432,1271.027,982.685,1177.49,952.289,1092.498z M839.667,1262.908
						c-49.358,17.654-102.561,1.721-134.627-35.969c-7.642-8.984-14.088-19.205-18.988-30.508c-1.083-2.494-2.093-5.043-3.022-7.639
						c-9.329-26.084-9.276-53.24-1.594-77.779c11.086-35.421,38.069-65.4,75.706-78.855c12.423-4.445,25.088-6.756,37.597-7.138
						c51.662-1.56,100.693,29.95,119.041,81.247C936.569,1169.99,903.388,1240.117,839.667,1262.908z"/>
				</g>
			</g>
			<g>
				<g>
					<path style="fill:#1A598C;" d="M681.437,1111.014l-39.047-12.193c14.787-47.236,50.784-87.221,100.981-105.175
						c16.574-5.927,33.465-9.013,50.148-9.515l1.221,40.89c-12.509,0.382-25.174,2.692-37.597,7.138
						C719.506,1045.613,692.523,1075.593,681.437,1111.014z"/>
				</g>
			</g>
			<g>
				<g>
					<path style="fill:#2273B5;" d="M686.052,1196.432l-37.509,16.326c-1.442-3.324-2.788-6.729-4.024-10.189
						c-12.444-34.791-12.379-71.012-2.13-103.748l39.047,12.193c-7.683,24.539-7.735,51.695,1.594,77.779
						C683.959,1191.389,684.969,1193.938,686.052,1196.432z"/>
				</g>
			</g>
			<g>
				<g>
					<path style="fill:#3788CC;" d="M673.878,1253.439c-10.201-11.981-18.789-25.613-25.335-40.682l37.509-16.326
						c4.9,11.303,11.347,21.523,18.988,30.508L673.878,1253.439z"/>
				</g>
			</g>
		</g>
	</g>
	<g>
		<path style="fill:#202338;" d="M1119.032,1840.898c0,0-5.99,11.175-9.903,15.609c-3.913,4.436-18.898,12.363-18.979,25.535
			c-0.088,14.283,25.261,10.319,35.175,9.797c9.913-0.521,10.663-8.152,14.838-16.24c4.174-8.087,8.381-6.717,9.163-13.24
			c0.783-6.521-4.042-21.461-4.042-21.461H1119.032z"/>
		<g>
			<path style="fill:#81807E;" d="M1144.94,1836.586c0,0,1.16,6.096,0.935,6.242c-0.225,0.146-28.096,5.125-27.938,0.063
				c0.125-4.02,2.57-8.705,2.57-8.705L1144.94,1836.586z"/>
		</g>
		<g>
			<path style="fill:#EEA886;" d="M1400.185,1311.412c0,0,29.236-6.154,31.423-4.885c2.186,1.271,2.323,2.923-0.395,3.615
				c-2.717,0.693-28.129,6.789-28.129,6.789s35.451-1.292,37.483-0.672c1.19,0.362,1.639,3.534,0.21,4.043
				c-1.43,0.51-36.61,3.881-36.61,3.881s33.099-1.145,34.621-0.088c1.332,0.923,1.035,3.982-1.423,4.244
				c-2.458,0.26-33.221,3.129-33.221,3.129s24.056,0.744,24.793,2.457c0.452,1.049,0.964,3.764-5.227,3.369
				c-6.191-0.395-20.976,0.279-20.976,0.279L1400.185,1311.412z"/>
		</g>
		<g>
			<path style="fill:#202338;" d="M1270.048,1838.785c0,0,12.217,13.639,24.618,16.496s21.077,6.502,21.171,14.328
				c0.093,7.826-35.69,12.984-49.884,5.094c-21.181-11.775-23.335-8.225-25.683-14.111c-2.349-5.887,2.82-21.626,2.668-23.498
				C1242.75,1834.78,1270.048,1838.785,1270.048,1838.785z"/>
		</g>
		<g>
			<path style="fill:#81807E;" d="M1268.674,1832.26c0,0,1.613,6.391,1.374,6.525c-0.24,0.135-27.947,3.436-27.109-1.691
				c0.68-4.158,1.649-8.678,1.649-8.678L1268.674,1832.26z"/>
		</g>
		<g>
			<path style="fill:#292C47;" d="M1243.481,1449.765c0,0,10.078,97.857,15.318,131.357c6.127,39.169,8.204,71.532,9.913,91.805
				c2.149,25.499,2.564,150.931,4.068,158.386c1.505,7.456-33.377,2.061-33.377,2.061s-17.16-163.893-23.562-191.048
				c-5.961-25.286-28.083-134.15-33.521-127.245c-5.438,6.904-12.183,127.042-16.211,146.984
				c-4.027,19.943-16.278,176.07-16.278,176.07s-27.761,5.529-35.146-0.721c0,0-3.361-134.552-0.795-171.941
				c0.978-14.248-16.695-170.848,5.967-233.891C1131.835,1398.264,1243.481,1449.765,1243.481,1449.765z"/>
		</g>
		<g>
			<path style="fill:#CAC7D1;" d="M1070.775,1463.656c0,0,16.99,5.16,24.104,3.855c7.124-1.307,3.519-88.613,3.799-106.781
				c0.217-14.734,8.28-53.639,8.28-53.639s0,0.021,0.011,0.064c0.011,0.012,0.011,0.033,0.011,0.044
				c0,0.022,0.011,0.044,0.011,0.065c0.799,2.914,11.68,43.285,12.058,62.684c0.399,20.133-2.623,97.141-2.623,97.141l29.991,2.92
				l86.194,2.111l17.98-2.119c0,0-2.148-32.932-2.947-48.572c-0.496-9.943-2.429-27.743-1.933-45.079c0,0-0.313-18.275,1.501-26.145
				c0.194-34.737,2.299-69.14,2.299-69.14c1.166-15.749,1.976-30.473,2.44-44.215c-3.8-2.008-8.366-4.361-12.025-6.099
				c-11.313-5.386-27.073-12.64-37.188-17.282c-5.927-2.721-11.723-4.707-11.723-4.707s-40.426-3.875-43.708-3.67
				c-1.036,0.064-6.088,1.824-12.716,4.352c-14.335,5.439-41.969,16.515-46.373,19.678c-6.455,4.62-20.1,114.422-20.715,122.108
				C1066.393,1365.08,1070.775,1463.656,1070.775,1463.656z"/>
		</g>
		<path style="fill:#1D2033;" d="M1247.997,1456.242c0,0-59.161,5.037-110.976,0v17.002c0,0,77.814,11.236,113.57-3.242
			L1247.997,1456.242z"/>
		<g>
			<path style="fill:#323657;" d="M1197.539,1211.234c0,0,9.622,22.609,16.844,73.139c2.774,19.408,7.916,52.08,11.651,85.426v0.01
				c2.946,26.285,9.672,53.262,11.809,73.382c2.213,20.845,8.884,82.255,8.884,82.255l16.182-10.201
				c2.31-2.137,5.548-4.912,4.609-7.912c-4.447-14.367-12.965-61.863-17.995-103.262c0-0.031-0.011-0.053-0.011-0.086
				c-0.237-1.996-0.475-3.973-0.701-5.938c-0.011-0.096-0.021-0.205-0.032-0.313c-0.95-8.279-1.738-16.213-2.3-23.479
				c-0.432-5.57-0.043-11.01,0.724-16.332c2.255-37.16,3.375-76.334,3.375-76.334c1.188-16.041,1.865-31.023,2.318-44.992
				c-2.618-2.01-8.406-5.096-12.465-7.027C1240.431,1229.57,1204.301,1213.193,1197.539,1211.234z"/>
		</g>
		<path style="fill:#CAC7D1;" d="M1194.503,1223.023c0,0,1.079,15.473-12.009,15.832c-13.089,0.361-23.479-12.207-23.479-12.207
			l21.724,5.604l13.224-11.207L1194.503,1223.023z"/>
		<g>
			<g>
				<path style="fill:#EEA886;" d="M1367.357,1323.902c0,0,9.532-2.656,10.806-8.355c1.083-4.846,5.807-10.492,7.258-12.234
					c1.94-2.328,5.463-11.639,8.174-9.283s-5.11,15.598-6.236,18.686c-1.124,3.087,12.079-2.334,15.135-1.39
					c3.057,0.945,9.214,23.741-0.202,26.394s-20.807-0.895-22.392-0.09c-1.586,0.803-6.794,2.207-6.794,2.207L1367.357,1323.902z"/>
			</g>
		</g>
		<g>
			<path style="fill:#EEA987;" d="M1176.834,1104.508c0,0,30.017,5.064,24.925,52.059c-5.091,46.994-31.586,42.85-33.359,42.783
				c-1.773-0.068-26.65,0.566-27.963-56.893C1140.437,1142.457,1140.054,1099.975,1176.834,1104.508z"/>
		</g>
		<g>
			<path style="fill:#EEA987;" d="M1189.985,1185.727c0,0-0.003,19.359,0.792,23.549c0.855,4.509-24.103,17.529-40.215,2.358
				c0,0,3.258-21.142,2.246-28.606S1189.985,1185.727,1189.985,1185.727z"/>
		</g>
		<g>
			<path style="fill:#EEA987;" d="M1201.876,1145.622c0,0,3.33-3.481,4.5,0.093c1.168,3.573-4.222,18.678-4.916,20.131
				c0,0-0.616,1.375-1.398,0.605C1199.28,1165.683,1201.876,1145.622,1201.876,1145.622z"/>
		</g>
		<g>
			<path style="fill:#EEA987;" d="M1140.78,1142.018c0,0-3.185-3.615-4.499-0.094c-1.314,3.523,3.485,19.34,4.084,20.316
				c0,0,1.033,1.623,1.846,0.888C1143.024,1162.393,1140.78,1142.018,1140.78,1142.018z"/>
		</g>
		<g>
			<path style="fill:#353A3D;" d="M1204.288,1139.29c-1.034,6.431-2.011,11.208-2.011,11.208l-4.369,5.707
				c0,0,0.259-12.615-0.408-14.598c-0.253-0.751-0.55-2.08-0.856-3.521c-0.502-2.377-1.015-5.061-1.367-5.953
				c-0.562-1.43-25.727-8.778-48.14,1.539c0,0,0.19,1.941,0.177,4.107c-0.008,2.518-0.284,5.339-1.439,5.764
				c-2.149,0.785-1.252,14.764-1.252,14.764l-3.493-4.033c0,0-1.011-7.301-2.005-15.693c0,0-0.005-0.021-0.01-0.061
				c-0.225-1.957-0.454-3.97-0.674-5.967c-0.5-8.441,0.335-23.77,11.327-32.775c7.416-3.174,19.26-5.873,39.002,0.172
				c0,0,4.922,1.402,6.19,2.624C1207.254,1116.104,1204.288,1139.29,1204.288,1139.29z"/>
		</g>
		<path style="fill:#C78D71;" d="M1154.868,1193.066c0,0,4.791,6.654,15.922,6.402s15.962-6.055,15.962-6.055
			s-5.269,11.021-16.015,10.904S1154.868,1193.066,1154.868,1193.066z"/>
		<path style="fill:#A09EA6;" d="M1191.939,1223.969l-11.2,8.283c0,0,9.408-19.945,9.603-27.934L1191.939,1223.969z"/>
		<polygon style="fill:#EAE6F2;" points="1190.342,1204.318 1197.959,1211.404 1205.972,1235.303 1191.939,1223.969 		"/>
		<g>
			<path style="fill:#323657;" d="M1379.965,1346.014c0,0-66.097,17.402-82.255,13.427c-7.47-1.837-17.309-12.148-26.657-24.271
				c-3.082-3.992-6.104-8.182-8.98-12.329c-0.008-0.009-0.008-0.017-0.008-0.017c-11.471-16.562-20.46-32.436-20.46-32.436
				s-33.903-39.733-6.697-57.445c0,0,11.467-1.156,17.988,3.654c6.021,4.441,20.672,32.412,23.051,37.598
				c2.378,5.178,28.143,53.332,29.868,54.414c1.727,1.081,23.815-2.867,35.484-3.837c19.024-1.588,34.843-6.427,34.843-6.427
				L1379.965,1346.014z"/>
		</g>
		<path style="fill:#EEA987;" d="M1188.9,1211.445c0,0-3.096,10.875-8.161,20.807c0,0-11.753-10.297-15.451-13.967
			C1161.59,1214.617,1188.9,1211.445,1188.9,1211.445z"/>
		<path style="fill:#A09EA6;" d="M1168.443,1220.742l12.296,11.51c0,0-14.537-0.965-17.253-3.387L1168.443,1220.742z"/>
		<path style="fill:#EAE6F2;" d="M1152.13,1199.533c0,0,9.837,15.99,16.313,21.209l-10.912,18.113l-17.493-31.777L1152.13,1199.533z
			"/>
		<g>
			<path style="fill:#323657;" d="M1099.914,1361.557c-1.254,16.86,5.879,110.148-1.238,111.461
				c-7.116,1.306-33.273-4.441-33.273-4.441s-3.279-100.602-2.229-111.148c0.765-7.676,12.985-122.811,19.437-127.436
				c3.727-2.674,31.34-12.461,44.889-17.801c2.478-0.98,10.32-4.273,12.539-5.113c2.874,3.197,27.911,61.951,30.291,107.775
				c0.725,13.951-2.543,43.402-5.03,67.465c-2.653,25.672-5.591,45.709-7.745,67.176c-4.243,42.297-7.211,75.951-7.211,75.951
				l-42.095-18.74c-6.812-3.408-16.244-17.391-13.683-24.564c9.731-27.256,21.985-73.824,21.999-97.741
				c0,0-4.695-58.565-8.417-71.439C1108.147,1312.96,1101.509,1340.121,1099.914,1361.557z"/>
		</g>
		<rect x="1178.005" y="1457.285" style="fill:#3A4066;" width="27.885" height="20.732"/>
		<g>
			<polygon style="fill:#EDDAD3;" points="1115.496,1566.76 1023.757,1566.76 1045.283,1505.667 1137.021,1505.667 			"/>
			<polygon style="fill:#F2DFD8;" points="1115.496,1566.76 1023.757,1566.76 1045.283,1505.667 1137.021,1505.667 			"/>
			<polygon style="fill:#D6C5BE;" points="1045.283,1627.854 1137.021,1627.854 1115.496,1566.76 1023.757,1566.76 			"/>
			<polygon style="fill:#F2DFD8;" points="1115.496,1688.945 1023.757,1688.945 1045.283,1627.854 1137.021,1627.854 			"/>
			<polygon style="fill:#D6C5BE;" points="1045.283,1750.039 1137.021,1750.039 1115.496,1688.945 1023.757,1688.945 			"/>
			<rect x="1050.66" y="1515.871" style="fill:#C9BAB3;" width="52.32" height="2.262"/>
			<rect x="1047.55" y="1524.072" style="fill:#C9BAB3;" width="52.319" height="2.263"/>
			<rect x="1044.155" y="1532.273" style="fill:#C9BAB3;" width="42.328" height="2.264"/>
			<rect x="1050.66" y="1637.625" style="fill:#C9BAB3;" width="52.32" height="2.263"/>
			<rect x="1047.55" y="1645.826" style="fill:#C9BAB3;" width="26.16" height="2.264"/>
		</g>
		<path style="fill:#EEA886;" d="M1093.44,1474.184c0,0,0.494,1.561,1.355,4.176c1.488,4.516,6.283,9.672,3.329,15.836
			c-2.955,6.162-25.155,2.287-28.531-0.588c-3.377-2.875-1.985-12.311,5.769-24.416S1093.44,1474.184,1093.44,1474.184z"/>
		<path style="fill:#EEA886;" d="M1098.817,1491.977c0,0-0.214,10.164-1.852,21.449c-1.436,9.9-4.6,21.988-7.096,21.658
			c-3.79-0.502-0.062-10.115,0.697-20.025c0.699-9.124-0.984-7.441-0.984-7.441s0.506-0.453-2.21,9.345
			c-2.92,10.534-6.497,21.726-8.547,21.493c-2.54-0.287-2.833-0.537-2.404-4.533c-0.745,2.244-1.472,2.359-2.447,2.14
			c-5.048-1.14-3.194-17.282-2.457-23.692c-0.597,4.92-1.568,8.469-4.206,5.774c-3.018-3.081,0.645-25.788,1.166-34.044
			C1069.047,1475.092,1098.817,1491.977,1098.817,1491.977z"/>
		<g>
			<path style="fill:#323657;" d="M1101.023,1408.719l-0.432,74.139c0,0-14.797-0.658-35.189-8.188l-1.414-104.55L1101.023,1408.719
				z"/>
		</g>
	</g>
	<g>
		<g>
			<g>
				
					<linearGradient id="SVGID_00000041996783693086845370000014164346660835052470_" gradientUnits="userSpaceOnUse" x1="936.522" y1="1459.5234" x2="936.522" y2="1369.8542">
					<stop  offset="0" style="stop-color:#FF9F55"/>
					<stop  offset="1" style="stop-color:#FFD255"/>
				</linearGradient>
				<path style="fill:url(#SVGID_00000041996783693086845370000014164346660835052470_);" d="M982.479,1374.658l-51.482,115.971
					l-1.383,3.113c-2.697,0.295-4.916-0.32-5.726-0.594l1.137-2.559l50.988-114.849l-74.298-79.896l-11.151-2.423l1.163-5.351
					l12.829,2.793L982.479,1374.658z"/>
			</g>
			
				<linearGradient id="SVGID_00000044859098320309113100000007013936812596244612_" gradientUnits="userSpaceOnUse" x1="-8729.8018" y1="1502.7822" x2="-8682.0918" y2="1502.7822" gradientTransform="matrix(-1 0 0 1 -7778.9536 0)">
				<stop  offset="0" style="stop-color:#FF9F55"/>
				<stop  offset="1" style="stop-color:#FFD255"/>
			</linearGradient>
			<path style="fill:url(#SVGID_00000044859098320309113100000007013936812596244612_);" d="M903.199,1513.049h47.649
				c0,0-0.081-1.148-0.523-2.896c-1.432-5.658-6.654-17.637-25.197-17.637c-18.546,0-21.554,11.98-21.939,17.637
				C903.069,1511.904,903.199,1513.049,903.199,1513.049z"/>
			
				<linearGradient id="SVGID_00000100378597693953034760000005846571911133980078_" gradientUnits="userSpaceOnUse" x1="-8679.1465" y1="1301.3983" x2="-8633.627" y2="1301.3983" gradientTransform="matrix(-1 0 0 1 -7778.9536 0)">
				<stop  offset="0" style="stop-color:#FF9F55"/>
				<stop  offset="1" style="stop-color:#FFD255"/>
			</linearGradient>
			<path style="fill:url(#SVGID_00000100378597693953034760000005846571911133980078_);" d="M854.674,1270.176l3.219,9.121
				l19.508,55.279c7.934-2.801,14.187-8.234,18.12-14.975c4.882-8.365,6.193-18.738,2.716-28.588
				C891.96,1273.229,872.458,1263.9,854.674,1270.176z"/>
			<path style="fill:#FFA855;" d="M932.198,1490.639v2.541c-0.891,0.295-1.759,0.473-2.584,0.563
				c-2.697,0.295-4.916-0.32-5.726-0.594c-0.215-0.07-0.333-0.119-0.333-0.119v-2.449l1.47,0.01l5.972,0.039L932.198,1490.639z"/>
			<path style="fill:#FFA555;" d="M903.199,1513.049h47.649c0,0-0.081-1.148-0.523-2.896h-47.137
				C903.069,1511.904,903.199,1513.049,903.199,1513.049z"/>
			<path style="fill:#FFA855;" d="M854.674,1270.176l3.219,9.121c11.386,8.977,29.053,24.498,37.628,40.305
				c4.882-8.365,6.193-18.738,2.716-28.588C891.96,1273.229,872.458,1263.9,854.674,1270.176z"/>
		</g>
		<g>
			<g>
				<g>
					<g>
						<path style="fill:#EEA886;" d="M693.9,1368.033c0,0,8.305-10.5,9.616-12.063c1.313-1.563,6.468-3.041,12.499-4.175
							s14.518,0.286,15.2,1.126c0.684,0.84,1.744,1.322,2.017,4.253c0.272,2.931-0.968,5.647-0.968,5.647s1.887,3.362,0.133,6.594
							c0,0,1.64,3.26-0.883,6.6c0,0,1.521,3.232-0.491,5.497c0,0-5.166,1.489-6.958,2.644c-1.793,1.152-12.697,3.449-23.391,3.893
							C700.675,1388.049,690.601,1384.704,693.9,1368.033z"/>
					</g>
				</g>
			</g>
		</g>
		<g>
			<g>
				<polygon style="fill:#858585;" points="454.369,1692.006 407.067,1889.229 396.648,1889.229 436.761,1691.58 				"/>
			</g>
		</g>
		<g>
			<g>
				<polygon style="fill:#858585;" points="505.973,1692.006 458.671,1889.229 448.252,1889.229 488.364,1691.58 				"/>
			</g>
		</g>
		<g>
			<g>
				<polygon style="fill:#858585;" points="589.435,1692.006 636.736,1889.229 647.155,1889.229 607.043,1691.58 				"/>
			</g>
		</g>
		<g>
			<g>
				<path style="fill:#E2D2CA;" d="M634.2,1693.926H430.383c0,0-14.195-0.326-23.702-42.381
					c-10.695-47.308-32.298-205.324-32.298-205.324s5.729-14.703,95.331-12.822l160.447,208.172
					C630.161,1641.57,635.635,1674.391,634.2,1693.926z"/>
			</g>
		</g>
		<g>
			<g>
				<path style="fill:#EEA886;" d="M640.476,1496.723c0,0,10.384-4.514,18.17-2.693c7.787,1.818,26.029,8.625,35.039,9.756
					c9.01,1.131,17.592,6.367,17.424,9.361c-0.168,2.992-69.565,5.439-69.898-1.379
					C640.878,1504.951,640.476,1496.723,640.476,1496.723z"/>
			</g>
		</g>
		<g>
			<g>
				<g>
					<g>
						<path style="fill:#EEA886;" d="M693.9,1368.033c0,0-13.557,8.912-13.852,11.646c-0.49,4.52,2.304,18.563,2.641,18.363
							c0.336-0.199,20.441-10.127,20.441-10.127L693.9,1368.033z"/>
					</g>
				</g>
			</g>
		</g>
		<g>
			<g>
				<g>
					<path style="fill:#292C47;" d="M693.619,1855.646c0,0,17.464,10.386,25.373,14.249c7.909,3.863,38.677,5.043,41.71,7.939
						c3.033,2.896,1.896,12.092-3.207,13.018c-5.102,0.926-42.509,4.213-54.981,1.264c-12.472-2.949-35.82,1.901-40.985,0.133
						c-5.164-1.77-1.759-29.623,0.255-35.871C663.797,1850.129,693.619,1855.646,693.619,1855.646z"/>
				</g>
			</g>
		</g>
		<g>
			<g>
				<g>
					<path style="fill:#1C1E30;" d="M693.349,1843.86l0.271,11.785c0,0-23.394,4.313-31.836,0.731l0.589-12.943L693.349,1843.86z"/>
				</g>
			</g>
		</g>
		<g>
			<g>
				<g>
					<path style="fill:#323657;" d="M734.513,1855.646c0,0,17.464,10.386,25.373,14.249c7.908,3.863,38.677,5.043,41.71,7.939
						c3.032,2.896,1.896,12.092-3.207,13.018c-5.103,0.926-42.509,4.213-54.981,1.264c-12.472-2.949-35.821,1.901-40.985,0.133
						c-5.164-1.77-1.759-29.623,0.255-35.871C704.69,1850.129,734.513,1855.646,734.513,1855.646z"/>
				</g>
			</g>
		</g>
		<g>
			<g>
				<g>
					<path style="fill:#1C1E30;" d="M734.241,1843.86l0.271,11.785c0,0-23.394,4.313-31.836,0.731l0.589-12.943L734.241,1843.86z"/>
				</g>
			</g>
		</g>
		<g>
			<g>
				<polygon style="fill:#24263D;" points="596.821,1569.439 570.254,1564.799 587.966,1520.193 				"/>
			</g>
		</g>
		<g>
			<g>
				<path style="fill:#282B45;" d="M517.216,1578.582c0,0,133.522,28.348,154.359,37.203c20.838,8.855,33.34,12.502,34.902,16.93
					c1.564,4.428,34.121,216.188,34.121,216.188h-44.279c0,0-34.381-159.926-38.549-169.824
					c-4.168-9.896-169.304-10.418-181.285-22.4c-11.982-11.98-22.4-44.799-9.377-74.232S517.216,1578.582,517.216,1578.582z"/>
			</g>
		</g>
		<g>
			<g>
				<path style="fill:#282B45;" d="M584.84,1563.691c0,0,153.124,43.078,165.657,62.773
					c12.763,20.055-51.052,222.438-51.052,222.438h-43.759c0,0,42.196-189.619,36.986-197.955
					c-5.209-8.334-235.983-0.26-193.006-68.502C542.644,1514.203,584.84,1563.691,584.84,1563.691z"/>
			</g>
		</g>
		<g>
			<g>
				<path style="fill:#323657;" d="M568.921,1350.891c5.761-2.996,24.982,3.568,30.659,12.408
					c13.193,20.547,38.135,45.936,38.135,45.936l55.609-46.746l11.141,27.864l-66.004,55.63c-5.624,4.74-13.923,4.452-19.2-0.672
					c-17.343-16.836-53.027-52.234-55.779-61.08C559.835,1372.509,557.91,1356.615,568.921,1350.891z"/>
			</g>
		</g>
		<g>
			<g>
				<path style="fill:#EEA987;" d="M550.104,1231.857c0,0,26.567,4.428,26.828,49.488c0.26,45.061-16.834,49.314-42.717,42.717
					c-15.583-3.973-30.215-26.047-24.484-64.857C515.462,1220.396,550.104,1231.857,550.104,1231.857z"/>
			</g>
		</g>
		<g>
			<g>
				<path style="fill:#EDDAD3;" d="M553.584,1339.43c0,0,36.615,13.299,42.085,21.634c5.47,8.335,1.934,83.335-1.191,110.163
					c-3.126,26.828-11.722,84.65-9.638,92.465l-85.173,18.754c0,0-27.349-99.498-28.131-115.387
					c-0.781-15.889-20.837-89.861-11.199-95.852c9.637-5.992,51.572-29.434,51.572-29.434L553.584,1339.43z"/>
			</g>
		</g>
		<g>
			<g>
				<polygon style="fill:#1F2136;" points="499.667,1582.445 495.497,1567.078 585.033,1549.643 584.84,1563.691 				"/>
			</g>
		</g>
		<g>
			<g>
				<polygon style="fill:#4F558A;" points="544.207,1556.789 565.435,1552.361 565.435,1569.162 544.207,1574.109 				"/>
			</g>
		</g>
		<g>
			<g>
				<path style="fill:#323657;" d="M534.688,1513.059c-0.228,4.396-0.515,8.846-0.743,13.355l-0.058,0.058
					c-3.025,49.433-7.535,101.147-7.535,101.147c-6.221,5.195-85.106-13.127-85.106-13.127s9.703-13.187,19.065-49.719
					c9.418-36.475,2.054-71.523-7.707-130.887c-9.703-59.363-1.655-59.021-1.655-59.021l60.964-33.107
					c3.995,15.184,20.148,70.266,23.974,101.832C537.257,1455.121,536.4,1482.691,534.688,1513.059z"/>
			</g>
		</g>
		<g>
			<g>
				<path style="fill:#323657;" d="M554.174,1339.539c0,0,17.751,45.85,25.283,92.617c7.68,47.684,7.301,134.02,15.628,136.125
					c8.326,2.105,5.759,0.697,5.759,0.697s-1.563-52.156-2.324-69.449c-1.698-38.592,5.505-125.582,2.17-134.371
					C597.354,1356.37,573.448,1343.012,554.174,1339.539z"/>
			</g>
		</g>
		<g>
			<g>
				<path style="fill:#EEA987;" d="M552.726,1332.34c0,2.797,0.229,5.365,0.856,7.078c0,0-4.68,18.266-41.668,2.34
					c0,0,7.305-27.227,0-50.061l41.668,25.859c0,0-0.513,4.109-0.741,8.902C552.726,1328.4,552.668,1330.455,552.726,1332.34z"/>
			</g>
		</g>
		<g>
			<g>
				<path style="fill:#D6C5BF;" d="M513.42,1334.516c0,0,14.54,7.037,29.21,8.395l-7.148,15.208l-23.572-16.345L513.42,1334.516z"/>
			</g>
		</g>
		<g>
			<g>
				<path style="fill:#D6C5BF;" d="M542.63,1342.91c0,0,10.232-3.391,10.156-8.395l1.388,5.023l-4.171,16.039L542.63,1342.91z"/>
			</g>
		</g>
		<g>
			<g>
				<path style="fill:#16202E;" d="M573.752,1257.928c0,0,7.435-15.947,2.052-27.65c-5.383-11.705-19.448-6.842-25.873-5.453
					s-18.58-12.85-40.112,4.515c-21.532,17.364-15.106,35.597-5.557,57.303c9.551,21.706,10.71,23.374,10.71,23.374
					s0.069-22.028,2.668-25.936c3.054-4.594,14.232-6.988,14.232-6.988s-8.509-11.635-0.173-15.977
					C540.032,1256.775,557.288,1264.811,573.752,1257.928z"/>
			</g>
		</g>
		<g>
			<g>
				<path style="fill:#EEA987;" d="M520.932,1272.576c-1.133-3.324-6.74-7.102-9.55-0.868c-2.811,6.233,4.515,17.19,8.508,17.19
					C523.884,1288.898,523.536,1280.217,520.932,1272.576z"/>
			</g>
		</g>
		<g>
			<g>
				<path style="fill:#007FE6;" d="M542.63,1342.91l5.345,9.185c0,0-2.472,2.837-10.413,1.598L542.63,1342.91z"/>
			</g>
		</g>
		<g>
			<g>
				<path style="fill:#007FE6;" d="M546.832,1352.896c0,0,21.858,64.326,22.032,109.994c0.174,45.669-3.43,72.932-3.43,72.932
					l-4.812,8.994l-7.039-8.213c0,0,4.968-132.609-14.48-182.715C539.104,1353.889,546.021,1350.594,546.832,1352.896z"/>
			</g>
		</g>
		<g>
			<g>
				<path style="fill:#323657;" d="M457.723,1371.207c15.99-6.525,32.567,15.627,41.424,37.768
					c8.855,22.139,25.786,62.425,25.786,62.425l118.279,19.163l1.668,22.486H506.873c0,0-52.577-94.177-56.223-105.898
					C447.003,1395.43,446.231,1375.895,457.723,1371.207z"/>
			</g>
		</g>
		<g>
			<g>
				<rect x="602.962" y="1513.049" style="fill:#E2D2CA;" width="390.001" height="13.434"/>
			</g>
		</g>
		<rect x="831.493" y="1277.924" style="fill:#6E6760;" width="9.394" height="208.193"/>
		<g>
			<path style="fill:#918880;" d="M854.523,1513.049h70.279v-4.26h-70.279c-3.662,0-6.299-0.871-7.835-2.59
				c-1.852-2.071-1.565-4.857-1.562-4.887l0.018-0.135l-0.002-0.119v-90.814h-4.26v90.711c-0.075,0.869-0.24,4.822,2.577,8.023
				C845.835,1511.68,849.557,1513.049,854.523,1513.049z"/>
		</g>
		<path style="fill:#6E6760;" d="M760.677,1505.59h72.26v7.459h-79.105v-0.613C753.832,1508.654,756.896,1505.59,760.677,1505.59z"
			/>
		<g>
			<g>
				
					<rect x="952.409" y="1526.484" transform="matrix(-1 -1.224647e-16 1.224647e-16 -1 1915.9023 3417.958)" style="fill:#706865;" width="11.084" height="364.989"/>
			</g>
			<g>
				
					<rect x="632.432" y="1526.484" transform="matrix(-1 -1.224647e-16 1.224647e-16 -1 1275.9471 3417.958)" style="fill:#706865;" width="11.084" height="364.989"/>
			</g>
		</g>
		<path style="fill:#1F2136;" d="M534.688,1513.059c-0.228,4.396-0.515,8.846-0.743,13.355l-0.058,0.058
			c0,0-15.372,2.034-28.254-3.817c-12.938-5.875-21.919-50.41-22.547-52.75c1.313,2.568,21.975,43.154,27.056,43.154
			C515.394,1513.059,534.688,1513.059,534.688,1513.059z"/>
		<path style="fill:#A77860;" d="M552.84,1326.459c-0.114,1.941-0.172,3.996-0.114,5.881c-29.396,0.457-29.854-16.324-29.854-16.324
			C527.438,1328.172,552.84,1326.459,552.84,1326.459z"/>
		<g>
			
				<rect x="706.325" y="1349.274" transform="matrix(0.7195 -0.6945 0.6945 0.7195 -733.9745 885.0192)" style="fill:#EB4747;" width="44.667" height="3.779"/>
			<polygon style="fill:#EEA886;" points="743.415,1334.293 749.456,1331.088 746.039,1337.012 			"/>
		</g>
		<g>
			<g>
				<g>
					<g>
						<path style="fill:#D69779;" d="M729.627,1353.154c0,0-15.239,3.283-15.174,6.031c0.064,2.748,1.605,3.639,1.605,3.639
							l-5.846,4.461c0,0-2.455,5.287,3.373,6.428c0,0-2.747,4.697,3.03,5.055c0,0-0.592,3.928,2.036,4.615
							c2.628,0.687,12.371-1.87,12.371-1.87s2.327-1.536,0.939-5.485c0,0,2.534-3.031,0.834-6.58c0,0,1.755-2.828-0.113-6.641
							c0,0,3.023-6.498-1.467-9.885C731.216,1352.922,730.269,1353.01,729.627,1353.154z"/>
					</g>
				</g>
			</g>
		</g>
		<g>
			<g>
				<g>
					<g>
						<path style="fill:#EEA886;" d="M703.987,1355.811c0,0,10.023,3.205,14.687,7.643c1.056,1.002,1.902,2.195,1.409,3.697
							c-0.494,1.5-3.064,2.717-7.481,1.576c-4.416-1.141-10.691-0.363-10.691-0.363S697.745,1365.708,703.987,1355.811z"/>
					</g>
				</g>
			</g>
		</g>
		<path style="fill:#12131F;" d="M716.827,1695.861c0,0-9.359-58.414-9.854-60.779c-0.495-2.367-10.022-10.883-55.545-25.795
			c0,0,50.603,9.838,63.872,18.479C725.526,1634.424,716.827,1695.861,716.827,1695.861z"/>
		<g>
			<path style="fill:#9E633A;" d="M907.357,1513.049c4.997-2.082,13.067-25.678,16.952-37.895c1.378-4.336,2.23-7.238,2.23-7.238
				h-45.696c3.948,28.207,13.539,45.133,13.539,45.133H907.357z"/>
			<path style="fill:#97A43C;" d="M911.024,1453.863c0-1.642,7.334-8.514,11.002-13.002c3.666-4.487-1.411-13-1.411-13
				c-16.36,6.77-13.54,26.002-13.54,26.002S911.024,1455.504,911.024,1453.863z"/>
			<path style="fill:#97A43C;" d="M901.716,1454.592h1.975c0,0,1.41-33.219-10.719-37.732s-12.129-13.539-12.129-13.539
				s-3.668,12.41,2.256,18.898c5.924,6.488,12.693,14.104,11.566,20.311C893.536,1448.734,901.716,1454.592,901.716,1454.592z"/>
			<path style="fill:#82522F;" d="M924.31,1475.154c1.378-4.336,2.23-7.238,2.23-7.238h-45.696
				c3.948,28.207,13.539,45.133,13.539,45.133h2.983C896.81,1486.637,914.201,1477.963,924.31,1475.154z"/>
			<polygon style="fill:#C67B47;" points="926.529,1453.863 880.495,1453.863 877.876,1467.916 928.401,1467.916 			"/>
		</g>
	</g>
</g>
</svg>
