<?xml version="1.0" encoding="utf-8"?>
<!-- Generator: Adobe Illustrator 27.5.0, SVG Export Plug-In . SVG Version: 6.00 Build 0)  -->
<svg version="1.1" xmlns="http://www.w3.org/2000/svg" xmlns:xlink="http://www.w3.org/1999/xlink" x="0px" y="0px"
	 viewBox="0 0 750 500" style="enable-background:new 0 0 750 500;" xml:space="preserve">
<g id="BACKGROUND">
	<rect y="-1" style="fill:#FFFFFF;" width="750" height="502"/>
</g>
<g id="OBJECTS">
	<g>
		<g>
			<rect x="119.158" y="400.959" style="fill:#2B179C;" width="500.625" height="2.935"/>
			<path style="fill:#EDECFE;" d="M202.635,378.016c-35.269,2.61-73.893-16.842-84.008-50.731
				c-5.838-19.56-1.734-40.761,5.153-59.977c7.716-21.53,19.767-42.752,39.386-54.507c22.419-13.434,51.224-12.522,73.667-25.914
				c31.97-19.078,41.594-60.331,64.245-89.878c16.483-21.502,40.656-36.98,67.082-42.953c33.656-7.607,72.952,2.299,92.527,30.714
				c12.443,18.063,15.573,40.689,20.001,62.171c7.528,36.518,23.124,75.962,57.205,91.085c14.513,6.44,30.852,7.638,45.644,13.409
				c31.943,12.463,53.385,49.242,45.487,82.609c-7.898,33.366-46.532,56.912-79.013,45.927
				c-17.504-5.92-30.984-19.697-46.206-30.173c-35.288-24.286-82.35-30.51-122.737-16.232c-17.725,6.266-33.93,16.108-50.898,24.203
				c-22.017,10.504-45.424,18.091-69.42,22.501c-10.021,1.841-15.422-2.638-24.439-4.473
				C225.493,373.596,213.472,377.214,202.635,378.016z"/>
			<g>
				
					<path style="fill:none;stroke:#9989F8;stroke-width:3;stroke-linecap:round;stroke-linejoin:round;stroke-dasharray:0,8.9982;" d="
					M545.419,124.721c9.219,3.49,17.814,8.059,25.234,13.948c40.798,32.378,14.497,97.729-31.215,110.122
					c-18.016,4.884-37.637-1.331-55.662,3.52c-25.676,6.91-40.294,33.398-61.595,49.312c-15.501,11.581-35.119,17.53-54.442,16.509
					c-24.609-1.301-49.697-15.733-57.639-39.062c-5.048-14.829-2.81-30.988-1.686-46.613c1.911-26.561-1.157-56.698-21.648-73.704
					c-8.726-7.242-19.724-11.235-28.772-18.072c-19.538-14.764-27.14-44.203-15.238-65.605
					c11.902-21.402,43.025-30.09,63.219-16.238c10.882,7.465,17.475,19.55,25.905,29.703c19.543,23.539,50.683,36.947,81.213,34.969
					c22.16-1.436,43.573-8.245,65.844-8.691C499.965,114.398,524.325,116.735,545.419,124.721z"/>
			</g>
		</g>
		<g>
			<g>
				<path style="fill:#DDDDFF;" d="M257.014,174.288h-67.76c-7.886,0-14.279-6.393-14.279-14.279v-67.76
					c0-7.886,6.393-14.279,14.279-14.279h67.76c7.886,0,14.279,6.393,14.279,14.279v67.76
					C271.293,167.895,264.9,174.288,257.014,174.288z"/>
				<path style="fill:#9383FB;" d="M196.45,142.54v-38.132c0-5.663,5.96-9.346,11.025-6.814l38.132,19.066
					c5.615,2.807,5.615,10.82,0,13.627l-38.132,19.066C202.409,151.886,196.45,148.202,196.45,142.54z"/>
			</g>
			<g>
				<path style="fill:#DDDDFF;" d="M557.961,174.288h-67.76c-7.886,0-14.279-6.393-14.279-14.279v-67.76
					c0-7.886,6.393-14.279,14.279-14.279h67.76c7.886,0,14.279,6.393,14.279,14.279v67.76
					C572.241,167.895,565.848,174.288,557.961,174.288z"/>
				<path style="fill:#CC6EFF;" d="M491.725,152.08L491.725,152.08c-3.444,0-6.236-2.792-6.236-6.236v-26.631
					c0-3.444,2.792-6.236,6.236-6.236l0,0c3.444,0,6.236,2.792,6.236,6.236v26.631C497.962,149.288,495.17,152.08,491.725,152.08z"
					/>
				<path style="fill:#9989F8;" d="M513.296,152.08L513.296,152.08c-3.444,0-6.236-2.792-6.236-6.236v-40.848
					c0-3.444,2.792-6.236,6.236-6.236l0,0c3.444,0,6.236,2.792,6.236,6.236v40.848C519.532,149.288,516.74,152.08,513.296,152.08z"
					/>
				<path style="fill:#FBF5FF;" d="M534.867,152.08L534.867,152.08c-3.444,0-6.236-2.792-6.236-6.236v-18.491
					c0-3.444,2.792-6.236,6.236-6.236l0,0c3.444,0,6.236,2.792,6.236,6.236v18.491C541.103,149.288,538.311,152.08,534.867,152.08z"
					/>
				<path style="fill:#3441FF;" d="M556.438,152.08L556.438,152.08c-3.444,0-6.236-2.792-6.236-6.236v-44.74
					c0-3.444,2.792-6.236,6.236-6.236l0,0c3.444,0,6.236,2.792,6.236,6.236v44.74C562.674,149.288,559.882,152.08,556.438,152.08z"
					/>
			</g>
			<g>
				<path style="fill:#DDDDFF;" d="M455.294,273.093H292.626c-3.179,0-5.756-2.577-5.756-5.756v-5.372
					c0-3.179,2.577-5.756,5.756-5.756h162.667c3.179,0,5.756,2.577,5.756,5.756v5.372
					C461.05,270.516,458.473,273.093,455.294,273.093z"/>
				<g>
					<path style="fill:#9989F8;" d="M313.423,267.381h-16.325c-1.508,0-2.73-1.222-2.73-2.73l0,0c0-1.508,1.223-2.73,2.73-2.73
						h16.325c1.508,0,2.73,1.222,2.73,2.73l0,0C316.154,266.159,314.931,267.381,313.423,267.381z"/>
					<path style="fill:#CC6EFF;" d="M347.773,267.381h-16.325c-1.508,0-2.73-1.222-2.73-2.73l0,0c0-1.508,1.222-2.73,2.73-2.73
						h16.325c1.508,0,2.73,1.222,2.73,2.73l0,0C350.503,266.159,349.281,267.381,347.773,267.381z"/>
					<path style="fill:#FBF5FF;" d="M382.122,267.381h-16.325c-1.508,0-2.73-1.222-2.73-2.73l0,0c0-1.508,1.222-2.73,2.73-2.73
						h16.325c1.508,0,2.73,1.222,2.73,2.73l0,0C384.853,266.159,383.63,267.381,382.122,267.381z"/>
					<path style="fill:#3441FF;" d="M416.472,267.381h-16.325c-1.508,0-2.73-1.222-2.73-2.73l0,0c0-1.508,1.222-2.73,2.73-2.73
						h16.325c1.508,0,2.73,1.222,2.73,2.73l0,0C419.202,266.159,417.98,267.381,416.472,267.381z"/>
					<path style="fill:#9989F8;" d="M450.822,267.381h-16.325c-1.508,0-2.73-1.222-2.73-2.73l0,0c0-1.508,1.222-2.73,2.73-2.73
						h16.325c1.508,0,2.73,1.222,2.73,2.73l0,0C453.552,266.159,452.329,267.381,450.822,267.381z"/>
				</g>
			</g>
			<g>
				<path style="fill:#DDDDFF;" d="M445.996,243.595H300.375c-7.886,0-14.279-6.393-14.279-14.279v-26.176
					c0-7.886,6.393-14.279,14.279-14.279h145.621c7.886,0,14.279,6.393,14.279,14.279v26.176
					C460.275,237.202,453.882,243.595,445.996,243.595z"/>
				<g>
					<path style="fill:#CC6EFF;" d="M326.784,232.739h-20.288c-3.516,0-6.367-2.851-6.367-6.367v-20.288
						c0-3.517,2.851-6.367,6.367-6.367h20.288c3.516,0,6.367,2.851,6.367,6.367v20.288
						C333.151,229.888,330.301,232.739,326.784,232.739z"/>
					<path style="fill:#3441FF;" d="M383.329,232.739h-20.288c-3.516,0-6.367-2.851-6.367-6.367v-20.288
						c0-3.517,2.851-6.367,6.367-6.367h20.288c3.516,0,6.367,2.851,6.367,6.367v20.288
						C389.697,229.888,386.846,232.739,383.329,232.739z"/>
					<path style="fill:#9989F8;" d="M439.874,232.739h-20.288c-3.517,0-6.367-2.851-6.367-6.367v-20.288
						c0-3.517,2.851-6.367,6.367-6.367h20.288c3.517,0,6.367,2.851,6.367,6.367v20.288
						C446.242,229.888,443.391,232.739,439.874,232.739z"/>
				</g>
				<path style="fill:#FBF5FF;" d="M347.568,216.228c0-1.646-1.334-2.98-2.98-2.98s-2.98,1.334-2.98,2.98s1.334,2.98,2.98,2.98
					S347.568,217.873,347.568,216.228z"/>
				<path style="fill:#FBF5FF;" d="M403.808,216.228c0-1.646-1.334-2.98-2.98-2.98s-2.98,1.334-2.98,2.98s1.334,2.98,2.98,2.98
					S403.808,217.873,403.808,216.228z"/>
			</g>
		</g>
		<g>
			<g>
				<path style="fill:#2B179C;" d="M118.35,277.587c7.193,4.757,8.852,14.509,13.964,21.455c2.985,4.056,7.114,7.089,10.89,10.422
					c7.422,6.55,13.588,14.375,19.71,22.154c7.862,9.989,15.724,19.978,23.586,29.968c21.755-28.145,48.096-52.688,67.956-82.201
					c-1.892,16.837-17.199,28.687-24.413,44.017c-2.734,5.811-4.344,12.226-8.128,17.415c-7.513,10.304-21.191,13.249-29.288,22.891
					c-4.414,5.257-6.581,12.222-14.52,6.486c-3.755-2.713-5.867-8.486-8.903-12.022C147.794,333.23,129.386,309.09,118.35,277.587z"
					/>
				<path style="fill:#2B179C;" d="M164.617,304.497c3.976,6.47,9.117,12.277,12.108,19.257c3.987,9.303,3.856,20.004,8.097,29.194
					c6.677-4.295,5.922-14.073,8.596-21.549c3.305-9.237,12.157-15.091,18.628-22.465c4.517-5.148,7.937-11.155,11.098-17.23
					c10.823-20.799,19.133-43.876,17.146-67.237c-6.257,27.148-19.054,52.764-37.005,74.07c-2.638,3.132-5.413,6.211-7.305,9.842
					c-1.831,3.514-2.766,7.413-3.684,11.267c-2.257,9.472-4.514,18.944-6.772,28.416c-1.048-9.488-2.095-18.975-3.143-28.463
					c-0.406-3.674-0.908-7.582-3.284-10.413c-1.424-1.697-3.395-2.838-4.968-4.398c-4.331-4.294-5.006-10.916-6.077-16.921
					c-4.021-22.545-16.867-43.002-19.298-65.773C151.648,249.185,149.648,280.137,164.617,304.497z"/>
				<path style="fill:#2B179C;" d="M179.799,275.686c2.835,9.512,6.15,18.873,9.464,28.23c6.882-14.277,13.764-28.554,20.646-42.831
					c2.604-5.402,5.232-10.873,6.425-16.749c0.868-4.271,0.956-8.655,1.241-13.003c0.934-14.243,3.997-28.25,7.051-42.194
					c-15.517,17.256-10.22,45.305-22.206,65.178c-2.069,3.431-4.637,6.576-6.324,10.21c-4.693,10.108-1.899,22.271-5.568,32.794
					c-7.115-11.846-5.38-26.782-3.377-40.454c0.369-2.521,0.708-5.244-0.493-7.491c-1.169-2.186-3.532-3.422-5.234-5.224
					c-3.198-3.387-3.787-8.399-4.215-13.038c-1.694-18.373-2.579-37.071-5.205-55.317
					C159.733,205.111,171.226,246.923,179.799,275.686z"/>
				<path style="fill:#2B179C;" d="M192.499,271.663c0.563-5.841,1.143-11.681,1.723-17.521c0.596-6,1.192-12,1.788-18
					c1.13-11.379,2.264-22.782,4.564-33.983c3.959-19.271,11.396-38.306,9.911-57.924c-7.568,14.98-15.113,30.615-15.778,47.385
					c-0.211,5.329,0.283,10.658,0.397,15.989c0.129,6.044-0.23,12.087-0.67,18.117c-2.949,40.495-9.48,80.666-11.511,121.237
					c-0.289,5.782-0.489,11.568-0.571,17.356c-0.058,4.04-1.398,11.75,0.792,14.996c2.196-2.492,1.439-8.27,1.641-11.434
					c0.303-4.727,0.616-9.453,0.941-14.179c0.627-9.125,1.297-18.248,2.008-27.367C189.156,308.098,190.745,289.873,192.499,271.663
					z"/>
			</g>
			<polygon style="fill:#9B6BFF;" points="201.22,430.423 165.783,430.423 153.594,374.431 213.41,374.431 			"/>
		</g>
		<g>
			<g>
				<path style="fill:#3824D3;" d="M634.162,270.418c-7.632,5.047-9.392,15.395-14.815,22.764
					c-3.168,4.303-7.548,7.522-11.555,11.058c-7.874,6.95-14.417,15.253-20.913,23.505c-8.342,10.599-16.684,21.197-25.026,31.796
					c-23.083-29.862-51.03-55.903-72.102-87.216c2.007,17.864,18.249,30.437,25.902,46.703c2.901,6.165,4.609,12.972,8.624,18.478
					c7.971,10.932,22.484,14.057,31.075,24.288c4.683,5.578,6.982,12.967,15.406,6.881c3.984-2.878,6.225-9.004,9.446-12.755
					C602.922,329.457,622.453,303.844,634.162,270.418z"/>
				<path style="fill:#3824D3;" d="M585.072,298.97c-4.219,6.865-9.673,13.026-12.847,20.432c-4.23,9.871-4.091,21.225-8.591,30.975
					c-7.085-4.557-6.283-14.932-9.121-22.863c-3.507-9.801-12.899-16.012-19.764-23.835c-4.793-5.462-8.421-11.835-11.775-18.281
					c-11.483-22.068-20.301-46.553-18.192-71.34c6.638,28.804,20.217,55.984,39.262,78.589c2.799,3.323,5.743,6.59,7.751,10.443
					c1.942,3.728,2.935,7.866,3.909,11.955c2.395,10.05,4.79,20.1,7.185,30.15c1.112-10.066,2.223-20.133,3.335-30.199
					c0.43-3.898,0.963-8.045,3.484-11.049c1.511-1.8,3.603-3.012,5.271-4.666c4.596-4.556,5.311-11.582,6.448-17.953
					c4.266-23.92,17.896-45.625,20.476-69.786C598.833,240.284,600.955,273.125,585.072,298.97z"/>
				<path style="fill:#3824D3;" d="M568.964,268.402c-3.008,10.092-6.526,20.025-10.042,29.952
					c-7.302-15.148-14.604-30.296-21.906-45.445c-2.763-5.731-5.551-11.536-6.817-17.771c-0.921-4.531-1.014-9.182-1.317-13.796
					c-0.991-15.112-4.241-29.974-7.481-44.768c16.464,18.309,10.844,48.07,23.561,69.154c2.196,3.641,4.919,6.977,6.71,10.833
					c4.979,10.725,2.014,23.63,5.908,34.795c7.549-12.569,5.708-28.416,3.583-42.923c-0.392-2.675-0.751-5.564,0.524-7.948
					c1.24-2.319,3.747-3.631,5.553-5.543c3.393-3.594,4.018-8.911,4.472-13.833c1.797-19.494,2.736-39.333,5.523-58.692
					C590.254,193.521,578.06,237.884,568.964,268.402z"/>
				<path style="fill:#3824D3;" d="M555.489,264.134c-0.597-6.198-1.212-12.394-1.828-18.59c-0.632-6.366-1.264-12.732-1.897-19.098
					c-1.199-12.073-2.402-24.172-4.843-36.056c-4.2-20.447-12.091-40.643-10.516-61.458c8.03,15.893,16.035,32.483,16.741,50.276
					c0.224,5.654-0.3,11.308-0.422,16.965c-0.137,6.412,0.245,12.824,0.71,19.223c3.129,42.966,10.058,85.587,12.213,128.634
					c0.307,6.134,0.519,12.274,0.606,18.415c0.061,4.286,1.483,12.466-0.84,15.911c-2.33-2.645-1.526-8.774-1.741-12.132
					c-0.321-5.016-0.654-10.03-0.999-15.044c-0.666-9.682-1.376-19.361-2.13-29.036
					C559.036,302.791,557.351,283.454,555.489,264.134z"/>
			</g>
			<polygon style="fill:#3441FF;" points="547.057,430.423 582.493,430.423 594.683,374.431 534.867,374.431 			"/>
		</g>
		<g>
			<path style="fill:#FBF5FF;" d="M447.743,342.233L447.743,342.233c-1.69-0.212-2.888-1.754-2.676-3.444l12.329-98.272
				c0.212-1.69,1.754-2.888,3.444-2.676l0,0c1.69,0.212,2.888,1.754,2.676,3.444l-12.329,98.272
				C450.975,341.247,449.433,342.445,447.743,342.233z"/>
			<path style="fill:#CC6EFF;" d="M427.714,342.517L427.714,342.517c-1.699-0.117-2.982-1.59-2.864-3.29l6.832-98.806
				c0.117-1.699,1.59-2.982,3.29-2.864l0,0c1.699,0.118,2.982,1.59,2.864,3.29l-6.831,98.806
				C430.886,341.352,429.413,342.634,427.714,342.517z"/>
			<path style="fill:#3824D3;" d="M441.137,343.679L441.137,343.679c-2.653-0.042-4.769-2.226-4.727-4.879l1.906-120.729
				c0.042-2.653,2.226-4.769,4.879-4.727l0,0c2.653,0.042,4.769,2.226,4.727,4.879l-1.906,120.729
				C445.974,341.605,443.789,343.721,441.137,343.679z"/>
			<path style="fill:#9989F8;" d="M457.379,428.033h-33.568c-4.589,0-8.308-3.72-8.308-8.308v-93.904h50.184v93.904
				C465.687,424.314,461.967,428.033,457.379,428.033z"/>
			<rect x="415.503" y="325.821" style="fill:#7369E2;" width="50.184" height="7.176"/>
		</g>
		<g>
			<path style="fill:#1B157A;" d="M213.453,439.683c0.199,1.392,0.657,2.934,1.908,3.575c0.763,0.392,1.665,0.358,2.521,0.315
				c1.694-0.085,3.415-0.174,5.021-0.722c1.606-0.548,3.11-1.626,3.777-3.186c0.678-1.584,0.43-3.47,1.221-5
				c1.16-2.243,4.086-2.942,5.685-4.896c0.98-1.196,1.376-2.761,1.619-4.288c0.209-1.315,0.321-2.68-0.042-3.961
				c-0.363-1.281-1.283-2.47-2.563-2.836c-1.456-0.415-3.01,0.302-4.17,1.274c-1.16,0.972-2.088,2.206-3.296,3.119
				c-1.612,1.22-3.608,1.788-5.467,2.583C213.713,428.208,212.586,433.638,213.453,439.683z"/>
			<path style="fill:#5A50EF;" d="M249.111,296.857c-0.72,16.59-7.52,32.94-12.28,49.16c-0.13,0.46-0.27,0.92-0.39,1.38
				c-5.47,19.13-8.2,39.04-8.07,58.93c0.02,3.24,0.12,6.49,0.5,9.71c0.53,4.55,1.63,9.18,0.6,13.64s-5.12,8.68-9.62,7.86
				c-2.22-0.4-4.17-2.04-4.94-4.15c-0.39-1.06-0.5-2.19-0.6-3.31c-0.65-7.05-1.3-14.09-1.96-21.14
				c-0.93-10.14-1.87-20.34-1.01-30.49c0.83-9.85,3.34-19.48,4.66-29.28c1.35-9.92,1.47-19.97,1.59-29.98
				c0-5.38,0.12-10.77,0.19-16.16c0.04-3.69-1.42-10.88,0.59-14.06c3.43-5.39,20.86-4.99,26.76-5.92c0.81-0.13,1.71-0.24,2.39,0.22
				c0.73,0.49,0.94,1.46,1.06,2.34C249.131,289.367,249.271,293.117,249.111,296.857z"/>
			<path style="fill:#3936CE;" d="M249.111,296.857c-0.72,16.59-7.52,32.94-12.28,49.16c-0.13,0.46-0.27,0.92-0.39,1.38
				c-1.41-9.16-2.4-18.62,0.76-27.26c1.77-4.81,4.8-9.27,5.31-14.37c0.23-2.35-0.08-4.76,0.49-7.06
				C244.371,293.157,247.061,294.207,249.111,296.857z"/>
			<path style="fill:#32259B;" d="M287.814,433.307c1.746,0.114,3.456-0.445,5.188-0.693c1.732-0.248,3.691-0.108,4.933,1.123
				c1.985,1.969,0.885,5.574-1.33,7.279c-1.726,1.329-3.897,1.909-6.004,2.459c-6.995,1.825-13.99,3.65-20.985,5.475
				c-2.46,0.642-5.154,1.268-7.469,0.216c-3.137-1.425-4.281-5.631-3.118-8.874c1.164-3.244,4.068-5.577,7.163-7.092
				c3.234-1.583,7.151-2.467,10.753-2.647C280.908,430.355,283.986,433.058,287.814,433.307z"/>
			<path style="fill:#7365FF;" d="M244.44,309.758c1.879,4.132,4.436,7.97,5.834,12.288c1.353,4.178,1.563,8.627,1.763,13.014
				c0.238,5.218,0.475,10.435,0.713,15.653c1.447,31.763,1.537,57.098,9.3,88.912c0.298,1.223,1.536,1.981,2.762,1.693l0,0
				l9.17-2.16c2.103-0.495,3.567-2.403,3.501-4.562l-1.082-35.66c-0.689-22.716-1.36-45.665,3.078-67.954
				c0.991-4.977,2.236-9.918,2.725-14.969c0.53-5.473,0.164-10.988-0.202-16.474l-1.468-22.002
				c-0.001-0.013-0.011-0.024-0.023-0.026c-3.719-0.612-7.524,0.093-11.19,0.969c-7.601,1.816-20.197,4.253-26.158,9.619
				C237.763,292.958,241.816,303.991,244.44,309.758z"/>
			<path style="fill:#FFBFBE;" d="M268.283,156.74c0.324,1.049,0.703,2.198,0.245,3.191c-0.178,0.391-0.435,0.681-0.759,0.915
				c-0.993,0.714-2.533,0.815-3.805,1.138c-2.098,0.513-3.828,1.908-5.457,3.348c-0.167,0.145-0.346,0.29-0.513,0.446
				c-1.25-1.83-3.727-2.232-5.925-2.444c-4.798-0.446-9.608-0.67-14.428-0.658c-0.279-1.574-0.558-3.136-0.837-4.709
				c-0.089-0.525-0.178-1.082,0.022-1.573c0.212-0.524,0.714-0.859,1.227-1.094c1.741-0.781,4.14-0.77,4.999-2.488
				c0.279-0.558,0.324-1.194,0.357-1.819c0.156-2.857,0.346-5.959,2.243-8.113c0.435-0.491,0.949-0.915,1.361-1.428
				c0.714-0.882,1.105-1.986,1.774-2.901c0.67-0.915,1.83-1.663,2.912-1.306c0.29,0.1,0.558,0.268,0.848,0.324
				c0.781,0.134,1.451-0.513,1.908-1.149c1.205-1.696,1.919-3.705,2.109-5.769c0.134-1.529,0.156-3.705,1.797-4.53
				c1.741-0.859,2.232,1.428,3.136,2.522c1.105,1.339,2.823,2.444,3.046,4.307c0.167,1.384-0.614,2.734-0.524,4.118
				c0.178,2.756,3.482,4.173,4.653,6.673c0.357,0.748,0.435,1.774-0.212,2.299c-0.346,0.29-0.837,0.357-1.16,0.658
				c-0.424,0.391-0.458,1.049-0.435,1.629C266.955,151.172,267.435,154.017,268.283,156.74z"/>
			<path style="fill:#190B56;" d="M260.387,118.796c-0.995-1.039-2.672-1.243-3.573-2.365c-0.355-0.442-0.553-0.987-0.841-1.476
				c-1.17-1.987-3.981-2.796-6.028-1.734c-0.769,0.399-1.422,1.016-2.231,1.328c-1.681,0.648-3.531-0.159-5.323-0.346
				c-4.488-0.47-8.35,2.932-11.57,6.094c-1.492,1.465-3.065,3.084-3.368,5.153c-0.234,1.598,0.322,3.334-0.377,4.789
				c-0.636,1.324-2.186,2.097-2.613,3.502c-0.325,1.068,0.09,2.207,0.103,3.323c0.02,1.723-0.916,3.301-1.273,4.987
				c-0.45,2.118,0.068,4.422,1.382,6.144c1.002,1.313,2.441,2.31,3.148,3.803c0.76,1.603,0.592,3.622,1.718,4.993
				c0.481,0.586,1.152,0.984,1.84,1.302c2.48,1.146,5.366,1.324,7.995,0.597c0.494-0.029,0.987-0.08,1.472-0.167
				c1.499-0.268,3.074-0.844,3.894-2.127c0.438-0.685,0.631-1.53,1.195-2.116c0.501-0.52,1.238-0.771,1.711-1.316
				c0.99-1.141,0.397-2.887,0.529-4.392c0.115-1.307,0.818-2.515,0.88-3.826c0.103-2.144-1.462-4.51-0.229-6.267
				c0.556-0.792,1.628-1.174,2.565-0.931c0.937,0.243,1.684,1.083,1.836,2.039c0.112,0.705-0.073,1.422-0.065,2.136
				c0.008,0.714,0.301,1.522,0.977,1.753c0.912,0.311,1.81-0.684,1.894-1.645c0.085-0.96-0.324-1.888-0.48-2.84
				c-0.465-2.845,1.338-5.582,1.467-8.462c0.05-1.115-0.107-2.38,0.641-3.209c0.286-0.317,0.675-0.525,0.971-0.832
				c0.309-0.319,0.486-0.745,0.537-1.186C260.934,123.507,262.098,120.934,260.387,118.796z"/>
			<path style="fill:#F79F9F;" d="M267.77,160.847c-0.993,0.714-2.533,0.815-3.805,1.138c-2.098,0.513-3.828,1.908-5.457,3.348
				c-0.201-0.391-0.234-0.882-0.167-1.328c0.112-0.67,0.402-1.283,0.58-1.942c0.603-2.332-0.491-4.642-1.094-6.863
				c-0.112-0.402-0.926-2.879,0.011-2.745c0.525,0.078,1.54,3.158,1.774,3.682c0.457,0.993,0.948,2.031,1.83,2.678
				c1.35,1.004,3.214,0.803,4.865,1.172C266.866,160.11,267.468,160.4,267.77,160.847z"/>
			<path style="fill:#F79F9F;" d="M186.827,232.611c-0.343,0.859-0.687,1.808-0.398,2.686c0.204,0.62,0.692,1.096,1.141,1.57
				c3.377,3.567,5.267,8.243,7.712,12.504c4.784,8.336,11.761,15.158,18.646,21.864c1.858,1.81,3.761,3.652,6.102,4.77
				c0.263-4.097,0.46-8.199,0.589-12.302c0.057-1.809,0.062-3.757-0.971-5.243c-0.674-0.97-1.708-1.615-2.612-2.375
				c-6.176-5.191-5.865-15.173-11.358-21.083c-0.894-0.962-2.016-2.042-1.79-3.336c0.106-0.607,0.504-1.117,0.889-1.599
				c2.684-3.359,5.369-6.719,8.053-10.078c0.14-0.176-14.109-10.592-16.749-8.872c-2.042,1.33-3.755,8.305-4.738,10.594
				C189.79,225.324,188.285,228.958,186.827,232.611z"/>
			<path style="fill:#122CD8;" d="M208.811,183.402c-4.122,4.019-7.192,9.005-9.646,14.213c-2.303,4.888-4.092,9.998-5.877,15.098
				c-0.039,0.11-0.077,0.232-0.036,0.341c0.045,0.119,0.169,0.185,0.283,0.24c3.485,1.686,6.97,3.372,10.455,5.058
				c2.606,1.261,5.351,2.644,6.87,5.108c0.265,0.43,0.633,0.959,1.127,0.854c0.398-0.084,0.581-0.536,0.694-0.927
				c1.338-4.62,1.994-9.436,1.941-14.245c-0.032-2.892-0.318-5.801,0.084-8.664c0.575-4.092,2.527-7.883,3.206-11.959
				c0.248-1.488,1.624-10.98,0.47-11.556C216.526,176.035,210.057,182.187,208.811,183.402z"/>
			<g>
				<path style="fill:#FFBFBE;" d="M317.226,213.583c-3.883,1.261-8.101,0.502-12.107-0.268c-3.091-0.591-6.171-1.183-9.262-1.774
					c-0.803-0.156-1.763-0.469-1.886-1.272c-0.056-0.324,0.056-0.636,0.156-0.937c1.216-3.37,3.035-6.918,2.009-10.344
					c-0.368-1.227-1.082-2.31-1.808-3.37c-4.397-6.427-9.563-12.342-15.355-17.553c-5.401-4.876-9.853-10.813-16.448-14.216
					c-0.078-1.796,2.41-2.712,4.073-2.009c1.663,0.703,2.745,2.299,4.073,3.526c0.513,0.48,1.283,0.926,1.864,0.547
					c0.424-0.268,0.524-0.848,0.48-1.35c-0.011-0.078-0.011-0.156-0.034-0.234c-0.301-1.953-2.064-3.348-3.493-4.765
					c-1.495-1.473-2.767-3.783-1.629-5.535c0.156-0.234,0.346-0.458,0.603-0.558c0.022-0.011,0.034-0.011,0.056-0.011
					c1.105-0.402,1.797,1.216,2.701,2.02c1.462,1.283,3.705,0.268,5.646,0.234c2.265-0.022,4.33,1.417,5.747,3.191
					c1.417,1.774,2.343,3.872,3.526,5.814c3.214,5.312,8.179,9.295,13.145,13.022c5.78,4.33,11.806,8.548,16.214,14.272
					c0.859,1.116,1.651,2.276,2.444,3.448c1.183,1.73,2.355,3.448,3.526,5.178c0.792,1.161,1.596,2.355,1.942,3.716
					C324.423,208.316,321.109,212.322,317.226,213.583z"/>
				<path style="fill:#F79F9F;" d="M273.07,163.904c-0.011,0.145-0.022,0.301-0.089,0.424c-0.301-1.953-2.064-3.348-3.493-4.765
					c-1.495-1.473-2.767-3.783-1.629-5.535c0.156-0.234,0.346-0.458,0.603-0.558c0.022-0.011,0.034-0.011,0.056-0.011
					c0.491,0,0.949,0.19,1.272,0.58c1.015,1.205,0.112,3.124,0.736,4.575c0.301,0.692,0.926,1.183,1.406,1.763
					C272.735,161.36,273.148,162.643,273.07,163.904z"/>
				<path style="fill:#F79F9F;" d="M278.039,175.036c1.05,0.042,2.097-0.136,3.147-0.151c3.153-0.047,6.171,1.375,8.704,3.254
					c2.533,1.879,4.684,4.215,7.008,6.347c4.421,4.055,9.504,7.386,14.987,9.82c1.473,0.654,2.975,1.244,4.494,1.785
					c-2.796-0.69-5.616-1.383-8.494-1.487c-0.914-0.033-1.832-0.007-2.741-0.111c-1.773-0.204-3.451-0.899-5.061-1.669
					c-4.174-1.995-8.082-4.548-11.587-7.567c-1.528-1.317-2.986-2.726-4.644-3.875c-2.37-1.642-5.073-2.715-7.493-4.274
					c-0.601-0.387-3.02-1.676-2.419-2.618C274.36,173.829,277.229,175.003,278.039,175.036z"/>
			</g>
			<path style="fill:#3543FC;" d="M285.442,283.41c-1.942,3.069-6.874,2.009-9.775,4.185c-1.082,0.803-1.808,2.02-2.89,2.801
				c-1.518,1.105-3.493,1.239-5.256,1.852c-3.538,1.216-6.149,4.285-9.608,5.713c-2.767,1.138-5.869,1.127-8.871,1.105
				c-5.78-0.045-11.561-0.1-17.341-0.145c-4.821-0.045-10.322-0.402-13.29-4.207c-3.571-4.586-1.317-11.07-0.558-16.872
				c0.022-0.156,0.033-0.301,0.056-0.446c0.692-5.959-0.636-11.951-1.205-17.921c-0.391-3.995-0.424-8.023-0.904-12.018
				c-0.748-6.148-2.522-12.096-4.419-18.01c-0.636-1.986-1.295-3.973-1.919-5.959c-2.5-7.889-4.687-16.046-4.285-24.315
				c0.391-8.269,3.738-16.761,10.445-21.626c2.968-2.154,6.561-3.615,9.898-5.278c3.66-1.83,7.019-3.917,8.949-7.454
				c0.424-0.792,0.781-1.64,1.384-2.299c1.596-1.73,3.85-1.64,5.992-1.439c0.435,0.033,0.882,0.078,1.305,0.112
				c3.47,0.268,6.896,0.781,10.266,1.685c1.417,0.39,2.89,0.859,3.928,1.897c0.859,0.848,1.361,1.986,2.109,2.935
				c3.459,4.408,10.289,3.024,15.678,4.709c0.413,0.123,0.826,0.268,1.216,0.435c0.167,0.078,0.335,0.145,0.502,0.234
				c0.491,0.257,0.948,0.591,1.25,1.049c0.446,0.703,0.469,1.596,0.446,2.433c-0.056,1.719-0.223,3.47-0.446,5.222c0,0,0,0,0,0.011
				c-0.022,0.223-0.056,0.435-0.078,0.658c-0.882,6.874-2.243,13.803,0.915,19.774c1.116,2.087,2.745,3.939,3.348,6.227
				c0.391,1.484,0.324,3.035,0.246,4.564c-0.357,7.755-0.714,15.511-1.094,23.255c-0.045,1.149-0.1,2.288-0.156,3.437
				c-0.201,4.363-0.402,8.737-0.045,13.089c0.067,0.837,0.156,1.663,0.268,2.5c0.368,2.935,0.96,5.847,1.529,8.749
				c0.904,4.586,1.819,9.173,2.734,13.77C286.134,279.694,286.468,281.792,285.442,283.41z"/>
			<path style="fill:#122CD8;" d="M208.416,186.833c-0.188,0-0.372-0.095-0.477-0.267c-0.161-0.263-0.077-0.607,0.185-0.767
				c0.344-0.21,0.695-0.411,1.045-0.604c6.328-3.492,12.696-5.311,19.467-5.56l0.074-0.003l0.071,0.016
				c2.466,0.56,5.087-0.087,7.622-0.713l0.73-0.18c5.547-1.351,10.43-1.876,14.93-1.605c3.988,0.239,7.938,1.128,11.758,1.987
				c3.693,0.831,7.512,1.69,11.322,1.946c0.307,0.021,0.54,0.287,0.519,0.595c-0.021,0.308-0.274,0.535-0.595,0.519
				c-3.896-0.262-7.757-1.131-11.491-1.971c-3.777-0.85-7.682-1.728-11.58-1.962c-4.387-0.261-9.162,0.251-14.6,1.576l-0.725,0.179
				c-2.637,0.653-5.362,1.327-8.065,0.733c-6.566,0.253-12.748,2.026-18.898,5.42c-0.337,0.185-0.672,0.377-1.002,0.579
				C208.616,186.807,208.515,186.833,208.416,186.833z"/>
			<path style="fill:#122CD8;" d="M251.065,167.374c-4.006,0.145-8.012,0.29-12.018,0.435c-0.926,0.034-1.852,0.067-2.712,0.38
				c-1.507,0.536-2.589,1.819-3.571,3.08c-0.491,0.636-1.06,1.328-1.852,1.462c-0.603,0.1-1.205-0.156-1.797-0.313
				c-0.948-0.268-1.953-0.312-2.924-0.134c-0.201,0.045-0.424,0.089-0.625,0.011c-0.011-0.011-0.033-0.011-0.045-0.033
				c3.66-1.83,7.019-3.917,8.949-7.454c0.424-0.792,0.781-1.64,1.384-2.299c1.596-1.73,3.85-1.64,5.992-1.439
				c-0.134,1.35-0.781,2.689,0.045,4.084c0.826,1.417,2.656,1.875,4.296,1.908C247.829,167.096,249.514,166.839,251.065,167.374z"/>
			<path style="fill:#122CD8;" d="M281.279,239.712c-0.201,4.363-0.402,8.737-0.045,13.089c0.067,0.837,0.156,1.663,0.268,2.5
				c-0.022,0.067-0.045,0.134-0.078,0.201c-2.131-0.536-3.638-2.488-4.385-4.553c-0.748-2.053-0.915-4.285-1.361-6.428
				c-0.313-1.495-0.781-2.957-0.96-4.475c-0.234-1.852-0.056-3.727,0.045-5.59c0.134-2.511,0.112-5.033-0.045-7.543
				c-0.022-0.368-0.056-0.759-0.279-1.049c-0.424-0.591-1.339-0.536-1.997-0.201c-0.647,0.324-1.183,0.87-1.875,1.105
				c-0.491-2.221,1.875-4.039,2.265-6.271c0.145-0.87-0.011-1.763-0.167-2.633c-0.58-3.169-1.172-6.383-2.678-9.228
				c-1.551-2.924-3.984-5.267-6.372-7.555c2.299,0.368,4.597,0.748,6.896,1.116c0.513,0.078,1.149,0.123,1.439-0.312
				c0.179-0.268,0.145-0.603,0.123-0.915c-0.257-2.488-0.636-4.988-0.692-7.499c-0.078-4.073,0.714-8.113,1.495-12.118
				c0.268-1.339,0.335-4.397,2.198-4.397c2.087,0,2.265,2.846,2.634,4.285c0.1,0.402,0.212,0.815,0.312,1.216
				c-0.882,6.874-2.243,13.803,0.915,19.774c1.116,2.087,2.745,3.939,3.348,6.227c0.391,1.484,0.324,3.035,0.246,4.564
				c-0.357,7.755-0.714,15.511-1.094,23.255C281.391,237.424,281.335,238.562,281.279,239.712z"/>
			<path style="fill:#3543FC;" d="M284.872,178.242c2.744,2.155,5.494,4.316,7.978,6.766c0.832,0.821,1.648,1.684,2.662,2.264
				c0.633,0.362,1.327,0.603,2.007,0.867c3.35,1.3,6.438,3.182,9.504,5.054c0.216,0.132,0.444,0.277,0.547,0.507
				c0.135,0.302,0.016,0.653-0.107,0.96c-2.385,5.945-6.372,11.239-11.426,15.175c-1.581,1.232-3.564,2.385-5.487,1.819
				c-1.987-0.585-3.211-2.842-5.252-3.196c-0.741-0.129-1.502,0.017-2.254-0.018c-1.382-0.065-2.674-0.742-3.75-1.612
				c-4.474-3.62-5.39-10.07-5.084-15.818c0.148-2.771,0.499-5.527,0.641-8.298c0.122-2.385-0.572-5.192-0.054-7.503
				C275.877,170.394,282.964,176.743,284.872,178.242z"/>
			<path style="fill:#122CD8;" d="M223.131,268.87c0.346,2.031-0.223,4.107-0.781,6.093c-0.078,0.301-0.167,0.603-0.357,0.837
				c-0.234,0.279-0.603,0.424-0.949,0.569c-1.094,0.435-2.154,0.937-3.191,1.473c0.022-0.156,0.033-0.301,0.056-0.446
				c0.692-5.959-0.636-11.951-1.205-17.921c-0.391-3.995-0.424-8.023-0.904-12.018c-0.748-6.148-2.522-12.096-4.419-18.01
				c0.279,0.525,0.524,1.027,0.748,1.384c1.618,2.656,3.582,5.122,5.803,7.298c1.551,1.507,3.236,2.901,4.475,4.664
				c2.5,3.604,3.035,8.648,6.561,11.248c-4.162-0.089-6.45-5.044-10.277-6.718c1.607,1.997,2.611,4.452,2.857,6.997
				c0.335,3.37-0.625,6.829,0.212,10.11C222.137,265.935,222.885,267.341,223.131,268.87z"/>
		</g>
		<g>
			<g>
				<path style="fill:#4F4777;" d="M517.406,418.552c-0.183,1.688,0.449,3.389,1.446,4.763c0.939,1.294,2.205,2.348,3.648,3.038
					c2.004,0.957,4.396,1.262,5.984,2.815c1.85,1.81,2.146,4.906,4.252,6.41c1.31,0.935,3.024,1.026,4.633,1.048
					c2.114,0.028,4.435-0.082,6.002-1.502c1.898-1.72,1.941-4.636,1.843-7.195c-0.067-1.739-0.182-3.614-1.283-4.962
					c-0.518-0.634-1.215-1.094-1.909-1.53C537.943,418.879,518.595,407.569,517.406,418.552z"/>
				<path style="fill:#B550EF;" d="M532.515,323.189c-0.43,3.483-1.053,6.952-1.158,10.46c-0.372,12.481,5.747,24.112,8.897,36.195
					c1.81,6.945,2.644,14.103,3.34,21.246c1.065,10.936,1.818,21.925,1.5,32.908c-0.024,0.828-0.067,1.699-0.505,2.402
					c-0.448,0.719-1.24,1.145-2.026,1.461c-6.912,2.78-15.771-1.825-17.466-9.079c-1.165-4.988,0.68-10.125,1.154-15.225
					c0.429-4.621-0.278-9.265-1.049-13.841c-2.347-13.93-5.326-27.819-10.341-41.025c-1.282-3.376-2.704-6.72-4.635-9.771
					c-0.769-1.215-1.629-2.405-2.048-3.781c-0.435-1.428-0.364-2.954-0.289-4.445c0.509-10.142,1.017-20.285,1.526-30.427
					c0.134-2.669,0.364-5.577,2.184-7.534c2.106-2.264,5.596-2.46,8.677-2.193c2.534,0.22,6.897-0.577,9.226,0.412
					c2.762,1.172,2.557,5.322,2.899,7.903C533.47,306.918,533.513,315.117,532.515,323.189z"/>
				<path style="fill:#8227C1;" d="M518.934,352.334c-0.413,1.897-0.703,3.816-0.859,5.758c-0.96-3.136-2.009-6.238-3.18-9.306
					c-1.283-3.381-2.7-6.729-4.631-9.775c-0.77-1.216-1.629-2.41-2.053-3.783c-0.435-1.428-0.357-2.957-0.29-4.441
					c0.324-6.439,0.647-12.866,0.971-19.305c7.51-4.419,7.019,11.404,6.394,16.191c-0.368,2.812-1.004,5.747-0.056,8.414
					c0.971,2.7,3.437,4.687,4.33,7.421C520.496,346.353,519.57,349.422,518.934,352.334z"/>
				<path style="fill:#5B558E;" d="M462.509,431.093c-2.358,0.167-5.172,0.642-6.101,2.815c-1.04,2.43,1.094,4.996,3.165,6.638
					c3.856,3.056,8.402,5.608,13.321,5.729c3.431,0.085,6.923-1.014,10.248-0.164c3.997,1.021,7.747,4.766,11.592,3.271
					c2.081-0.809,3.343-3.028,3.648-5.24c0.305-2.212-0.179-4.448-0.661-6.628c-0.135-0.612-0.283-1.25-0.684-1.733
					c-0.421-0.506-1.06-0.768-1.672-1.01c-4.615-1.827-10.12-5.204-15.172-5.324C474.496,429.312,468.239,430.652,462.509,431.093z"
					/>
				<path style="fill:#CC6EFF;" d="M481.68,372.918c0.894,20.574-2.225,41.229-0.403,61.742c4.196,1.377,8.57,2.21,12.979,2.469
					c1.075,0.063,2.317,0.022,2.997-0.813c0.56-0.687,0.526-1.661,0.568-2.546c0.149-3.126,1.565-6.027,2.603-8.979
					c2.866-8.153,2.895-17.004,2.568-25.64c-0.696-18.364-2.848-36.916,0.413-55.002c0.676-3.749,1.588-7.475,3.077-10.982
					c1.436-3.381,3.388-6.515,5.05-9.791c2.829-5.577,4.815-11.582,5.869-17.746c0.232-1.354,0.413-2.779-0.047-4.074
					c-0.611-1.721-2.22-2.861-3.77-3.827c-7.436-4.633-15.639-7.907-23.961-10.646c-2.193-0.722-4.514-1.415-6.776-0.956
					c-5.081,1.031-5.534,7.384-6.071,11.457c-0.799,6.057-0.974,12.181-0.776,18.283c0.4,12.289,2.304,24.459,3.812,36.643
					C480.649,359.29,481.383,366.09,481.68,372.918z"/>
				<path style="fill:#FFBFBE;" d="M520.638,172.99c-6.048-0.882-12.386,0.458-17.598,3.649c-0.77,0.458-1.518,0.971-2.232,1.518
					c-0.245,0.19-0.513,0.391-0.815,0.368c-0.268-0.022-0.491-0.201-0.669-0.402c-1.239-1.328-1.54-3.504-3.147-4.33
					c-0.413-0.212-0.87-0.312-1.339-0.379c-0.926-0.145-1.886-0.179-2.589-0.759c-0.949-0.792-0.982-2.21-0.949-3.448
					c0.123-3.404,0.245-6.818,0.357-10.221c0.034-0.703,0.045-1.417-0.167-2.076c-0.112-0.335-0.268-0.647-0.301-0.993
					c-0.067-0.982,0.937-1.64,1.596-2.377c1.484-1.64,1.339-4.106,1.384-6.316c0.056-3.247,3.058-9.106,6.662-5.01
					c0.87,0.993,1.44,2.254,2.466,3.08c0.848,0.681,1.931,1.004,2.79,1.663c1.451,1.105,2.042,2.991,2.544,4.743
					c1.585,5.68,3.258,11.851,7.945,15.422c1.027,0.781,2.176,1.406,3.046,2.343C520.504,170.402,521.084,171.774,520.638,172.99z"
					/>
				<path style="fill:#190D57;" d="M503.752,131.689c0.881-0.132,1.784-0.144,2.646-0.371c1.169-0.309,2.199-0.997,3.331-1.421
					c2.282-0.855,4.826-0.587,7.209-0.076c1.465,0.314,2.969,0.744,4.093,1.734c1.317,1.16,1.948,2.944,3.242,4.13
					c1.131,1.037,2.67,1.525,3.853,2.502c1.973,1.63,2.66,4.364,2.746,6.923c0.087,2.558-0.307,5.133,0.022,7.672
					c0.243,1.882,0.875,3.832,0.253,5.625c-0.878,2.531-3.866,3.69-5.242,5.989c-1.208,2.018-1.272,4.984-3.4,5.987
					c-0.964,0.454-2.088,0.333-3.145,0.202c-1.093-0.135-2.187-0.271-3.28-0.406c-1.06-0.131-2.137-0.267-3.113-0.701
					c-1.997-0.889-3.278-2.908-3.962-4.984c-0.684-2.076-0.886-4.277-1.402-6.402c-0.489-2.012-1.263-3.956-2.29-5.753
					c-0.372-0.65-0.837-1.329-1.556-1.539c-0.937-0.274-1.94,0.405-2.369,1.281c-0.429,0.877-0.427,1.894-0.415,2.87
					c-0.76,0.637-2.003-0.01-2.375-0.93c-0.371-0.919-0.183-1.954-0.131-2.944c0.235-4.453-3.639-7.096-2.731-11.49
					C496.535,135.712,499.779,132.286,503.752,131.689z"/>
				<path style="fill:#F79F9F;" d="M495.013,184.333c-4.208,1.601-10.078,9.7-10.452,9.765c-0.401,0.07-1.344-0.39-1.702-0.583
					c-1.338-0.72-2.255-2.012-3.123-3.26c-5.643-8.112-11.285-16.225-16.928-24.337c-3.655-1.439-6.893-4.545-8.742-8.011
					c-0.783-1.469-1.464-3.179-2.962-3.903c-0.492-0.238-1.052-0.354-1.479-0.695c-0.544-0.434-0.77-1.144-0.967-1.811
					c-0.607-2.05-1.195-4.35-0.203-6.244c0.988-1.888,3.202-2.716,5.224-3.388c1.29-0.429,2.668-0.862,3.986-0.526
					c1.08,0.275,1.967,1.033,2.749,1.827c2.529,2.568,4.407,5.773,5.412,9.234c0.518,1.784,0.816,3.654,1.669,5.304
					c0.881,1.704,2.297,3.059,3.687,4.381c5.085,4.837,10.184,9.685,15.782,13.917C490.217,178.464,493.098,180.732,495.013,184.333
					z"/>
				<path style="fill:#91B6FF;" d="M529.152,243.314c-1.663,9.385-1.718,19.048-0.759,28.656c0.279,2.901,0.659,5.803,1.116,8.693
					c0.58,3.772,1.295,7.51,2.098,11.215c0.301,1.417,0.558,3.091-0.458,4.118c-0.435,0.457-1.049,0.692-1.641,0.915
					c-2.243,0.837-4.508,1.629-6.784,2.377c-6.528,2.142-13.435,3.928-20.22,2.834c-3.548-0.558-6.963-1.908-9.931-3.917
					c-0.703-0.469-1.373-0.982-2.064-1.473c-1.149-0.837-2.31-1.64-3.627-2.176c-2.31-0.937-4.988-0.993-7.03-2.421
					c-2.154-1.495-3.002-3.995-3.258-6.695c-0.167-1.674-0.112-3.415-0.011-5.044c0.915-14.707,1.239-29.448,0.681-44.167
					c-0.257-7.108-0.725-14.25-0.033-21.336c0.692-7.086,2.633-14.205,6.751-20.008c1.942-2.723,4.318-5.111,6.684-7.476
					c1.138-1.138,2.276-2.276,3.415-3.415c1.306-1.306,2.611-2.611,3.917-3.917c1.863-1.863,3.738-3.749,5.959-5.144
					c0.011-0.011,0.033-0.022,0.045-0.034c3.995-2.544,8.827-3.359,13.502-3.258c3.448,0.067,2.622,0.112,3.192,2.633
					c0.625,2.712,1.573,4.988,3.247,7.231c1.953,2.622,4.341,4.899,6.249,7.543c3.917,5.434,5.602,12.174,6.149,18.847
					c0.279,3.526,0.268,7.097-0.313,10.579c-0.87,5.233-2.979,10.155-4.553,15.221c-0.848,2.723-1.517,5.468-2.053,8.246
					C529.32,242.399,529.23,242.856,529.152,243.314z"/>
				<path style="fill:#F79F9F;" d="M503.04,176.639c-0.77,0.458-1.518,0.971-2.232,1.518c-0.245,0.19-0.513,0.391-0.815,0.368
					c-0.268-0.022-0.491-0.201-0.669-0.402c-1.239-1.328-1.54-3.504-3.147-4.33c-0.413-0.212-0.87-0.312-1.339-0.379
					c0.045-0.045,0.089-0.089,0.145-0.123c1.852-1.372,3.705-2.41,5.39-4.039c0.435-0.413,0.87-0.837,1.183-1.361
					c0.759-1.317,0.547-3.002,1.16-4.397c0.469,1.864,0.424,3.85-0.134,5.691c-0.391,1.294-1.038,2.6-0.837,3.95
					C501.925,174.352,502.806,175.468,503.04,176.639z"/>
				<path style="fill:#7396DE;" d="M516.721,178.76c-4.798-0.145-9.63,0.759-14.06,2.622c-1.016,0.424-2.02,0.904-3.102,1.138
					c-1.027,0.212-2.098,0.19-3.08,0.513c-0.558,0.19-1.071,0.48-1.585,0.781c-0.335,0.19-0.603,0.245-0.815,0.178
					c1.306-1.306,2.611-2.611,3.917-3.917c1.863-1.863,3.738-3.749,5.959-5.144c0.234,0.368,0.435,0.759,0.669,1.105
					c0.669,0.971,1.819,1.518,2.979,1.763c1.149,0.234,2.343,0.212,3.526,0.245C513.017,178.113,514.891,178.347,516.721,178.76z"/>
				<path style="fill:#7396DE;" d="M529.152,243.314c-1.663,9.385-1.718,19.048-0.759,28.656
					c-2.589,7.432-4.921,14.942-5.646,22.753c-0.179-4.631,0-9.273,0.826-13.826c0.658-3.66,1.752-7.253,2.12-10.947
					c0.212-2.064,0.19-4.14,0.178-6.216c-0.011-1.596-0.022-3.191-0.033-4.776c-1.986,4.832-5.68,8.737-9.306,12.509
					c-3.002,3.136-6.015,6.271-9.028,9.407c4.017-4.508,8.079-9.106,10.713-14.54c1.127-2.344,1.975-4.81,2.823-7.264
					c0.859-2.477,1.707-4.954,2.566-7.432c0.513-1.484,1.027-2.979,1.808-4.341c1.049-1.808,2.533-3.314,3.76-5.01
					c0.078-0.111,0.167-0.223,0.246-0.346C529.32,242.399,529.23,242.856,529.152,243.314z"/>
				<path style="fill:#7396DE;" d="M516.297,237.879c-2.767,0.826-5.524,1.652-8.28,2.477c-2.187,0.647-4.508,1.395-5.937,3.158
					c-1.551,1.919-1.707,4.553-2.031,6.986c-0.558,4.196-1.797,8.291-3.671,12.085c-1.83,3.716-4.252,7.142-5.736,11.003
					c-2.834,7.354-1.986,15.344-0.134,23.143c-1.149-0.837-2.31-1.64-3.627-2.176c-2.31-0.937-4.988-0.993-7.03-2.421
					c-2.154-1.495-3.002-3.995-3.258-6.695c0.513-3.136,2.109-6.182,3.694-8.994c5.267-9.351,10.891-18.646,13.904-28.946
					c1.038-3.548,1.763-7.197,2.957-10.713c3.046-8.938,9.206-17.196,8.983-26.636c-0.134-5.68-2.711-10.199-6.282-14.406
					c8.034,4.352,12.018,15.846,10.791,24.505c-0.547,3.883-1.986,7.733-1.406,11.605c0.212,1.451,0.859,3.024,2.232,3.571
					c0.96,0.391,2.064,0.167,3.091,0.346C515.594,235.949,516.677,236.908,516.297,237.879z"/>
				<path style="fill:#FFBFBE;" d="M473.907,252.439c-2.907,10.086-3.348,20.695-3.771,31.183c-0.094,2.32-0.186,4.658,0.168,6.953
					c0.451,2.92,1.611,5.681,2.264,8.562c0.631,2.785,0.797,5.711,1.965,8.316c1.168,2.605,3.751,4.895,6.582,4.525
					c-0.742-7.118-1.484-14.237-2.226-21.355c-0.105-1.002-0.209-2.02-0.032-3.012c0.222-1.248,0.87-2.372,1.494-3.475
					c7.991-14.141,13.594-29.628,16.501-45.608c0.128-0.701,0.221-1.515-0.255-2.046c-0.354-0.395-0.919-0.506-1.441-0.594
					c-3.614-0.613-13.226-4.119-15.676-0.985c-1.464,1.872-1.821,6.363-2.623,8.698
					C475.857,246.516,475.031,249.579,473.907,252.439z"/>
				<path style="fill:#DDDDFF;" d="M446.027,174.932H300.344c-7.886,0-14.279-6.393-14.279-14.279V92.249
					c0-7.886,6.393-14.279,14.279-14.279h145.684c7.886,0,14.279,6.393,14.279,14.279v68.404
					C460.306,168.539,453.913,174.932,446.027,174.932z"/>
				<path style="fill:#FFBFBE;" d="M456.869,150.337c-0.763-0.898-1.467-1.846-2.107-2.835c-0.433-0.67-0.848-1.394-0.89-2.19
					c-0.043-0.796,0.404-1.673,1.178-1.863c0.837-0.205,1.641,0.43,2.181,1.102c1.269,1.579,1.984,3.63,3.584,4.872
					c0.685,0.532,1.546,0.936,1.901,1.726c0.364,0.809,0.067,1.766-0.38,2.533c-0.218,0.374-0.845,1.528-1.328,1.588
					c-0.646,0.08-0.881-0.883-1.183-1.349C458.981,152.617,457.87,151.515,456.869,150.337z"/>
			</g>
			<g>
				<path style="fill:#FBF5FF;" d="M326.371,158.103v-10c12.225,0,22.172-9.946,22.172-22.171h10
					C358.543,143.671,344.111,158.103,326.371,158.103z"/>
				<path style="fill:#3441FF;" d="M326.371,158.103c-17.739,0-32.171-14.432-32.171-32.171c0-6.446,1.901-12.667,5.497-17.991
					l8.286,5.598c-2.475,3.664-3.784,7.949-3.784,12.393c0,12.226,9.946,22.171,22.171,22.171V158.103z"/>
				<path style="fill:#CC6EFF;" d="M358.543,125.931h-10c0-12.225-9.946-22.171-22.172-22.171c-7.377,0-14.251,3.656-18.388,9.778
					l-8.286-5.598c5.999-8.879,15.97-14.181,26.674-14.181C344.111,93.76,358.543,108.192,358.543,125.931z"/>
				<circle style="fill:#CC6EFF;" cx="378.374" cy="108.462" r="4.514"/>
				<circle style="fill:#FBF5FF;" cx="378.374" cy="127.707" r="4.514"/>
				<path style="fill:#3441FF;" d="M382.888,146.953c0-2.493-2.021-4.514-4.514-4.514c-2.493,0-4.514,2.021-4.514,4.514
					c0,2.493,2.021,4.514,4.514,4.514C380.867,151.467,382.888,149.446,382.888,146.953z"/>
				<path style="fill:#FBF5FF;" d="M449.913,107.841h-54.521c-1.247,0-2.257-1.011-2.257-2.257l0,0c0-1.246,1.011-2.257,2.257-2.257
					h54.521c1.247,0,2.257,1.011,2.257,2.257l0,0C452.171,106.831,451.16,107.841,449.913,107.841z"/>
				<path style="fill:#9989F8;" d="M449.913,118.903h-54.521c-1.247,0-2.257-1.011-2.257-2.257l0,0c0-1.247,1.011-2.257,2.257-2.257
					h54.521c1.247,0,2.257,1.01,2.257,2.257l0,0C452.171,117.892,451.16,118.903,449.913,118.903z"/>
				<path style="fill:#CC6EFF;" d="M449.913,129.964h-54.521c-1.247,0-2.257-1.01-2.257-2.257l0,0c0-1.247,1.011-2.257,2.257-2.257
					h54.521c1.247,0,2.257,1.01,2.257,2.257l0,0C452.171,128.954,451.16,129.964,449.913,129.964z"/>
				<path style="fill:#9989F8;" d="M449.913,141.026h-54.521c-1.247,0-2.257-1.01-2.257-2.257l0,0c0-1.247,1.011-2.257,2.257-2.257
					h54.521c1.247,0,2.257,1.01,2.257,2.257l0,0C452.171,140.015,451.16,141.026,449.913,141.026z"/>
				<path style="fill:#CC6EFF;" d="M449.913,152.087h-54.521c-1.247,0-2.257-1.01-2.257-2.257l0,0c0-1.247,1.011-2.257,2.257-2.257
					h54.521c1.247,0,2.257,1.01,2.257,2.257l0,0C452.171,151.077,451.16,152.087,449.913,152.087z"/>
				<path style="fill:#3441FF;" d="M450.258,163.494h-74.486c-1.056,0-1.912-0.856-1.912-1.912l0,0c0-1.056,0.856-1.912,1.912-1.912
					h74.486c1.056,0,1.913,0.856,1.913,1.912l0,0C452.171,162.638,451.314,163.494,450.258,163.494z"/>
				<path style="fill:#9989F8;" d="M450.258,96.78h-74.486c-1.056,0-1.912-0.856-1.912-1.912l0,0c0-1.056,0.856-1.912,1.912-1.912
					h74.486c1.056,0,1.913,0.856,1.913,1.912l0,0C452.171,95.923,451.314,96.78,450.258,96.78z"/>
				
					<ellipse transform="matrix(0.973 -0.231 0.231 0.973 -20.2615 78.7871)" style="fill:#B7BBF9;" cx="326.372" cy="125.931" rx="12.306" ry="12.306"/>
			</g>
		</g>
	</g>
</g>
<g id="DESIGNED_BY_FREEPIK">
	<g>
		<g id="XMLID_319_">
			<g id="XMLID_338_">
				<path id="XMLID_346_" style="fill:#A5B7C6;" d="M385.104,465.465c-0.432,0.443-0.803,0.931-1.108,1.453l-0.465-0.241
					c-0.067-0.298-0.349-0.503-0.659-0.466c-0.331,0.039-0.568,0.339-0.529,0.67s0.339,0.568,0.67,0.529
					c0.065-0.008,0.127-0.026,0.184-0.052l0.451,0.234c-0.251,0.554-0.433,1.139-0.539,1.744l0.746,0.132
					c0.23-1.306,0.85-2.507,1.792-3.473L385.104,465.465z"/>
				<path id="XMLID_345_" style="fill:#A5B7C6;" d="M390.592,463.163c-0.171,0-0.341,0.006-0.51,0.017l-0.074-0.626
					c0.188-0.149,0.296-0.389,0.266-0.645c-0.046-0.393-0.402-0.674-0.795-0.628s-0.674,0.402-0.628,0.795
					c0.03,0.254,0.189,0.461,0.405,0.564l0.073,0.624c-0.714,0.116-1.403,0.332-2.06,0.646l0.327,0.684
					c0.934-0.447,1.942-0.673,2.995-0.673c0.496,0,0.993,0.053,1.475,0.158l0.161-0.741
					C391.693,463.222,391.142,463.163,390.592,463.163z"/>
				<path id="XMLID_344_" style="fill:#A5B7C6;" d="M397.194,465.711c0.331-0.04,0.566-0.341,0.525-0.672
					c-0.04-0.331-0.341-0.566-0.672-0.526c-0.309,0.038-0.535,0.304-0.53,0.609l-0.416,0.363c-0.418-0.43-0.89-0.813-1.408-1.139
					l-0.404,0.641c1.134,0.715,2.021,1.726,2.563,2.925l0.691-0.313c-0.251-0.554-0.568-1.072-0.942-1.545l0.402-0.351
					C397.065,465.716,397.129,465.719,397.194,465.711z"/>
				<path id="XMLID_343_" style="fill:#A5B7C6;" d="M390.044,473.372c-0.386,0.023-0.775,0.035-1.157,0.035
					c-0.88,0-1.733-0.061-2.478-0.179c-0.39-0.062-0.846-0.155-1.27-0.292c1.046,1.861,3.069,3.125,5.388,3.125
					c2.855,0,5.262-1.916,5.95-4.504c-0.682,0.449-1.505,0.825-2.459,1.123C392.839,473.047,391.464,473.286,390.044,473.372z"/>
				<path id="XMLID_339_" style="fill:#A5B7C6;" d="M390.592,464.68c-3.352,0-6.08,2.666-6.08,5.943
					c0,0.426,0.046,0.849,0.137,1.261c0.674,0.483,2.706,0.89,5.348,0.731c2.879-0.173,5.297-0.957,6.672-2.159
					c-0.005-0.195-0.021-0.39-0.045-0.582C396.244,466.913,393.65,464.68,390.592,464.68z M388.432,471.194
					c-1.02,0-1.85-0.83-1.85-1.85c0-1.02,0.83-1.85,1.85-1.85c1.02,0,1.85,0.83,1.85,1.85
					C390.282,470.365,389.452,471.194,388.432,471.194z M393.17,470.286c-0.75,0-1.36-0.61-1.36-1.36s0.61-1.361,1.36-1.361
					c0.75,0,1.361,0.61,1.361,1.361S393.92,470.286,393.17,470.286z"/>
			</g>
			<path id="XMLID_336_" style="fill:#A5B7C6;" d="M406.595,466.547c-0.295-0.116-0.806-0.309-1.382-0.237
				c-0.551,0.069-0.844,0.341-0.844,1.007v0.866h2.228v1.717h-2.228v5.455h-1.932v-5.455h-1.34v-1.717h1.34v-0.888
				c0-1.68,0.896-2.783,2.568-2.783c0.642,0,1.157,0.122,1.59,0.308L406.595,466.547z"/>
			<path id="XMLID_334_" style="fill:#A5B7C6;" d="M411.298,469.879c-0.177-0.03-0.358-0.046-0.526-0.046
				c-0.896,0-1.51,0.548-1.51,1.614v3.908h-1.932v-7.172h1.873v0.785c0.451-0.673,1.14-0.977,2.021-0.977
				c0.414,0,0.848,0.128,1.094,0.337L411.298,469.879z"/>
			<path id="XMLID_331_" style="fill:#A5B7C6;" d="M418.965,471.757c0,0.222-0.015,0.489-0.037,0.651h-5.085
				c0.207,1.036,0.933,1.488,1.843,1.488c0.622,0,1.295-0.252,1.813-0.688l1.132,1.243c-0.814,0.748-1.85,1.088-3.057,1.088
				c-2.198,0-3.723-1.495-3.723-3.753c0-2.258,1.48-3.797,3.627-3.797C417.544,467.99,418.958,469.522,418.965,471.757z
				 M413.851,471.091h3.175c-0.177-0.918-0.733-1.436-1.562-1.436C414.554,469.655,414.021,470.203,413.851,471.091z"/>
			<path id="XMLID_328_" style="fill:#A5B7C6;" d="M426.618,471.757c0,0.222-0.015,0.489-0.037,0.651h-5.085
				c0.207,1.036,0.932,1.488,1.843,1.488c0.622,0,1.295-0.252,1.813-0.688l1.132,1.243c-0.814,0.748-1.85,1.088-3.057,1.088
				c-2.198,0-3.723-1.495-3.723-3.753c0-2.258,1.48-3.797,3.627-3.797C425.197,467.99,426.611,469.522,426.618,471.757z
				 M421.504,471.091h3.175c-0.178-0.918-0.733-1.436-1.562-1.436C422.207,469.655,421.674,470.203,421.504,471.091z"/>
			<path id="XMLID_325_" style="fill:#A5B7C6;" d="M434.964,471.764c0,2.154-1.495,3.775-3.471,3.775
				c-0.962,0-1.643-0.378-2.109-0.933v3.708h-1.924v-10.133h1.887v0.792c0.466-0.585,1.155-0.984,2.139-0.984
				C433.469,467.99,434.964,469.61,434.964,471.764z M429.287,471.764c0,1.132,0.747,1.976,1.843,1.976
				c1.14,0,1.85-0.881,1.85-1.976c0-1.095-0.71-1.976-1.85-1.976C430.035,469.788,429.287,470.632,429.287,471.764z"/>
			<path id="XMLID_322_" style="fill:#A5B7C6;" d="M438.068,465.836c0,0.696-0.54,1.229-1.236,1.229
				c-0.696,0-1.229-0.533-1.229-1.229c0-0.696,0.533-1.243,1.229-1.243C437.527,464.592,438.068,465.14,438.068,465.836z
				 M437.809,475.354h-1.932v-7.172h1.932V475.354z"/>
			<path id="XMLID_320_" style="fill:#A5B7C6;" d="M441.032,470.736l2.702-2.554h2.368l-3.479,3.375l3.501,3.797h-2.376
				l-2.716-2.901v2.901H439.1v-10.658h1.932V470.736z"/>
		</g>
		<g>
			<path style="fill:#A5B7C6;" d="M309.412,475.289v-1.055c-0.527,0.718-1.391,1.23-2.387,1.23c-1.846,0-3.149-1.406-3.149-3.706
				c0-2.256,1.289-3.721,3.149-3.721c0.952,0,1.816,0.469,2.387,1.245v-3.765h1.099v9.77H309.412z M309.412,473.37v-3.208
				c-0.395-0.615-1.245-1.143-2.124-1.143c-1.421,0-2.27,1.172-2.27,2.739c0,1.567,0.85,2.724,2.27,2.724
				C308.168,474.483,309.017,473.986,309.412,473.37z"/>
			<path style="fill:#A5B7C6;" d="M311.932,471.744c0-2.051,1.465-3.706,3.486-3.706c2.139,0,3.398,1.67,3.398,3.794v0.279h-5.727
				c0.088,1.333,1.026,2.446,2.549,2.446c0.805,0,1.626-0.322,2.182-0.894l0.527,0.718c-0.703,0.703-1.655,1.084-2.812,1.084
				C313.44,475.465,311.932,473.956,311.932,471.744z M315.404,468.947c-1.509,0-2.256,1.274-2.315,2.358h4.643
				C317.718,470.25,317.015,468.947,315.404,468.947z"/>
			<path style="fill:#A5B7C6;" d="M319.607,474.351l0.571-0.791c0.469,0.542,1.362,1.011,2.329,1.011c1.084,0,1.67-0.513,1.67-1.216
				c0-1.714-4.38-0.659-4.38-3.281c0-1.098,0.952-2.036,2.636-2.036c1.201,0,2.051,0.454,2.622,1.026l-0.513,0.762
				c-0.424-0.513-1.201-0.894-2.109-0.894c-0.967,0-1.567,0.483-1.567,1.113c0,1.552,4.38,0.527,4.38,3.281
				c0,1.187-0.952,2.138-2.783,2.138C321.306,475.465,320.325,475.113,319.607,474.351z"/>
			<path style="fill:#A5B7C6;" d="M326.477,466.471c0-0.41,0.337-0.747,0.732-0.747c0.41,0,0.747,0.337,0.747,0.747
				c0,0.41-0.337,0.732-0.747,0.732C326.814,467.203,326.477,466.881,326.477,466.471z M326.667,475.289v-7.075h1.099v7.075H326.667
				z"/>
			<path style="fill:#A5B7C6;" d="M329.582,477.105l0.556-0.82c0.586,0.703,1.289,0.967,2.3,0.967c1.172,0,2.27-0.571,2.27-2.124
				v-1.011c-0.513,0.718-1.377,1.26-2.373,1.26c-1.845,0-3.149-1.377-3.149-3.662c0-2.27,1.289-3.677,3.149-3.677
				c0.952,0,1.802,0.469,2.373,1.245v-1.069h1.099v6.87c0,2.344-1.641,3.076-3.369,3.076
				C331.237,478.16,330.417,477.926,329.582,477.105z M334.709,473.253v-3.091c-0.381-0.615-1.23-1.143-2.109-1.143
				c-1.421,0-2.27,1.128-2.27,2.695c0,1.553,0.849,2.695,2.27,2.695C333.478,474.41,334.328,473.868,334.709,473.253z"/>
			<path style="fill:#A5B7C6;" d="M342.413,475.289v-4.629c0-1.245-0.63-1.641-1.582-1.641c-0.865,0-1.685,0.527-2.095,1.099v5.17
				h-1.099v-7.075h1.099v1.025c0.498-0.586,1.465-1.201,2.519-1.201c1.48,0,2.256,0.747,2.256,2.285v4.966H342.413z"/>
			<path style="fill:#A5B7C6;" d="M344.932,471.744c0-2.051,1.465-3.706,3.486-3.706c2.138,0,3.398,1.67,3.398,3.794v0.279h-5.727
				c0.088,1.333,1.025,2.446,2.549,2.446c0.806,0,1.626-0.322,2.183-0.894l0.527,0.718c-0.703,0.703-1.655,1.084-2.812,1.084
				C346.441,475.465,344.932,473.956,344.932,471.744z M348.404,468.947c-1.509,0-2.256,1.274-2.314,2.358h4.643
				C350.718,470.25,350.015,468.947,348.404,468.947z"/>
			<path style="fill:#A5B7C6;" d="M358.35,475.289v-1.055c-0.527,0.718-1.392,1.23-2.388,1.23c-1.845,0-3.149-1.406-3.149-3.706
				c0-2.256,1.289-3.721,3.149-3.721c0.952,0,1.817,0.469,2.388,1.245v-3.765h1.098v9.77H358.35z M358.35,473.37v-3.208
				c-0.396-0.615-1.245-1.143-2.124-1.143c-1.421,0-2.27,1.172-2.27,2.739c0,1.567,0.849,2.724,2.27,2.724
				C357.105,474.483,357.954,473.986,358.35,473.37z"/>
			<path style="fill:#A5B7C6;" d="M364.692,475.289v-9.77h1.099v3.765c0.572-0.776,1.421-1.245,2.388-1.245
				c1.845,0,3.149,1.465,3.149,3.721c0,2.299-1.304,3.706-3.149,3.706c-0.996,0-1.86-0.513-2.388-1.23v1.055H364.692z
				 M367.9,474.483c1.436,0,2.286-1.157,2.286-2.724c0-1.568-0.85-2.739-2.286-2.739c-0.864,0-1.728,0.527-2.109,1.143v3.208
				C366.171,473.986,367.036,474.483,367.9,474.483z"/>
			<path style="fill:#A5B7C6;" d="M372.529,477.061c0.161,0.073,0.425,0.117,0.601,0.117c0.483,0,0.806-0.161,1.055-0.747
				l0.469-1.069l-2.959-7.148h1.187l2.358,5.8l2.344-5.8h1.201l-3.545,8.51c-0.425,1.025-1.143,1.421-2.08,1.435
				c-0.234,0-0.601-0.044-0.806-0.103L372.529,477.061z"/>
		</g>
	</g>
</g>
</svg>
